G04*
G04 #@! TF.GenerationSoftware,Altium Limited,Altium Designer,22.4.2 (48)*
G04*
G04 Layer_Color=16711935*
%FSTAX24Y24*%
%MOIN*%
G70*
G04*
G04 #@! TF.SameCoordinates,36F0A17D-9E63-4542-9A5D-60F15C5BBE16*
G04*
G04*
G04 #@! TF.FilePolarity,Positive*
G04*
G01*
G75*
%ADD10C,0.0079*%
%ADD11C,0.0100*%
%ADD15C,0.0050*%
%ADD17C,0.0039*%
G36*
X045433Y025436D02*
X04559D01*
Y025318D01*
X045433D01*
Y025436D01*
D02*
G37*
G36*
X04626Y025436D02*
X046418D01*
Y025318D01*
X04626D01*
Y025436D01*
D02*
G37*
D10*
X048823Y02817D02*
G03*
X048823Y02817I-000039J0D01*
G01*
X062412Y03018D02*
G03*
X062412Y03018I-000039J0D01*
G01*
X048799Y025338D02*
G03*
X048799Y025338I-000039J0D01*
G01*
X04109Y031616D02*
G03*
X04109Y031616I-000039J0D01*
G01*
X045719Y036885D02*
G03*
X045719Y036885I-000039J0D01*
G01*
D11*
X060797Y028704D02*
Y028237D01*
X060564Y028004D01*
X060331Y028237D01*
Y028704D01*
Y028354D01*
X060797D01*
X060098Y028704D02*
Y028004D01*
X059631Y028704D01*
Y028004D01*
X059398D02*
X058931D01*
X059165D01*
Y028704D01*
X058232Y028004D02*
X058698D01*
Y028704D01*
X058232D01*
X058698Y028354D02*
X058465D01*
X057998Y028704D02*
Y028004D01*
X057532Y028704D01*
Y028004D01*
X057299Y028704D02*
Y028004D01*
X056832Y028704D01*
Y028004D01*
X056599Y028704D02*
Y028237D01*
X056365Y028004D01*
X056132Y028237D01*
Y028704D01*
Y028354D01*
X056599D01*
D15*
X048843Y026103D02*
Y027481D01*
Y026103D02*
X051402D01*
Y027481D01*
X048843D02*
X051402D01*
X054892Y029708D02*
X061979D01*
Y027227D02*
Y029708D01*
Y037267D01*
X054892D02*
X061979D01*
X054892Y029708D02*
Y037267D01*
Y027227D02*
Y029708D01*
Y027227D02*
X061979D01*
X048819Y026027D02*
X051378D01*
Y027404D01*
X048819D02*
X051378D01*
X048819Y026027D02*
Y027404D01*
X04626Y025131D02*
Y025623D01*
X045591Y025131D02*
Y025623D01*
X041299Y031617D02*
X04252D01*
X041299Y032838D02*
X04252D01*
X041299Y031617D02*
Y032838D01*
X04252Y031617D02*
Y032838D01*
X047185Y036775D02*
Y037759D01*
X045925Y036775D02*
Y037759D01*
Y036775D02*
X047185D01*
X045925Y037759D02*
X047185D01*
D17*
X041614Y02955D02*
G03*
X041614Y02955I-000197J0D01*
G01*
X041063Y025889D02*
Y029904D01*
X04315Y025889D02*
Y029904D01*
X041063D02*
X04315D01*
X041063Y025889D02*
X04315D01*
M02*
