G04*
G04 #@! TF.GenerationSoftware,Altium Limited,Altium Designer,22.4.2 (48)*
G04*
G04 Layer_Color=32768*
%FSTAX24Y24*%
%MOIN*%
G70*
G04*
G04 #@! TF.SameCoordinates,36F0A17D-9E63-4542-9A5D-60F15C5BBE16*
G04*
G04*
G04 #@! TF.FilePolarity,Positive*
G04*
G01*
G75*
%ADD17C,0.0039*%
%ADD84C,0.0020*%
D17*
X04191Y027897D02*
X042303D01*
X042106Y0277D02*
Y028093D01*
D84*
X048902Y028462D02*
X051343D01*
Y02758D02*
Y028462D01*
Y02758D02*
X0515D01*
Y026005D02*
Y02758D01*
X050843Y026005D02*
X0515D01*
X050843Y025123D02*
Y026005D01*
X049402Y025123D02*
X050843D01*
X049402D02*
Y026005D01*
X048744D02*
X049402D01*
X048744D02*
Y02758D01*
X048902D01*
Y028462D01*
X062077Y027129D02*
Y029885D01*
X062274D01*
Y037562D01*
X054597D02*
X062274D01*
X054597Y029885D02*
Y037562D01*
Y029885D02*
X054793D01*
Y027129D02*
Y029885D01*
Y027129D02*
X062077D01*
X048878Y025046D02*
Y025928D01*
X048721D02*
X048878D01*
X048721D02*
Y027503D01*
X049378D01*
Y028385D01*
X050819D01*
Y027503D02*
Y028385D01*
Y027503D02*
X051477D01*
Y025928D02*
Y027503D01*
X051319Y025928D02*
X051477D01*
X051319Y025046D02*
Y025928D01*
X048878Y025046D02*
X051319D01*
X040658Y031519D02*
X043162D01*
X040658Y032936D02*
X043162D01*
X040658Y031519D02*
Y032936D01*
X043162Y031519D02*
Y032936D01*
X040443Y025849D02*
Y029944D01*
X04377Y025849D02*
Y029944D01*
X040443D02*
X04377D01*
X040443Y025849D02*
X04377D01*
X045748Y037936D02*
X047362D01*
X045748Y036597D02*
Y037936D01*
Y036597D02*
X047362D01*
Y037936D01*
M02*
