G04*
G04 #@! TF.GenerationSoftware,Altium Limited,Altium Designer,22.4.2 (48)*
G04*
G04 Layer_Color=2752767*
%FSTAX24Y24*%
%MOIN*%
G70*
G04*
G04 #@! TF.SameCoordinates,36F0A17D-9E63-4542-9A5D-60F15C5BBE16*
G04*
G04*
G04 #@! TF.FilePolarity,Positive*
G04*
G01*
G75*
%ADD85C,0.0020*%
%ADD86C,0.0027*%
D85*
X061117Y023909D02*
Y024069D01*
X061277D01*
Y023909D01*
X061117D01*
Y022909D02*
Y023069D01*
X061277D01*
Y022909D01*
X061117D01*
X060117Y023909D02*
Y024069D01*
X060277D01*
Y023909D01*
X060117D01*
Y022909D02*
Y023069D01*
X060277D01*
Y022909D01*
X060117D01*
X059117Y023909D02*
Y024069D01*
X059277D01*
Y023909D01*
X059117D01*
Y022909D02*
Y023069D01*
X059277D01*
Y022909D01*
X059117D01*
X058117Y023909D02*
Y024069D01*
X058277D01*
Y023909D01*
X058117D01*
Y022909D02*
Y023069D01*
X058277D01*
Y022909D01*
X058117D01*
X057117Y023909D02*
Y024069D01*
X057277D01*
Y023909D01*
X057117D01*
Y022909D02*
Y023069D01*
X057277D01*
Y022909D01*
X057117D01*
X056117Y023909D02*
Y024069D01*
X056277D01*
Y023909D01*
X056117D01*
Y022909D02*
Y023069D01*
X056277D01*
Y022909D01*
X056117D01*
X037048Y038316D02*
Y038476D01*
X037208D01*
Y038316D01*
X037048D01*
X036048D02*
Y038476D01*
X036208D01*
Y038316D01*
X036048D01*
X035048D02*
Y038476D01*
X035208D01*
Y038316D01*
X035048D01*
X034048D02*
Y038476D01*
X034208D01*
Y038316D01*
X034048D01*
X033048D02*
Y038476D01*
X033208D01*
Y038316D01*
X033048D01*
X065047Y042398D02*
X064967Y042558D01*
X065127D01*
X065047Y042398D01*
Y022049D02*
X064967Y022209D01*
X065127D01*
X065047Y022049D01*
X030992Y042392D02*
X030912Y042552D01*
X031072D01*
X030992Y042392D01*
X037044Y025836D02*
Y025996D01*
X037204D01*
Y025836D01*
X037044D01*
X036044D02*
Y025996D01*
X036204D01*
Y025836D01*
X036044D01*
X035044D02*
Y025996D01*
X035204D01*
Y025836D01*
X035044D01*
X034044D02*
Y025996D01*
X034204D01*
Y025836D01*
X034044D01*
X033044D02*
Y025996D01*
X033204D01*
Y025836D01*
X033044D01*
X030992Y022024D02*
X030912Y022184D01*
X031072D01*
X030992Y022024D01*
X064567Y037715D02*
X064607Y037755D01*
X064647D01*
X064607Y037795D01*
X064647Y037835D01*
X064607D01*
X064567Y037875D01*
X064527Y037835D01*
X064487D01*
X064527Y037795D01*
X064487Y037755D01*
X064527D01*
X064567Y037715D01*
Y028266D02*
X064607Y028306D01*
X064647D01*
X064607Y028346D01*
X064647Y028386D01*
X064607D01*
X064567Y028426D01*
X064527Y028386D01*
X064487D01*
X064527Y028346D01*
X064487Y028306D01*
X064527D01*
X064567Y028266D01*
X065354Y026692D02*
X065394Y026732D01*
X065434D01*
X065394Y026772D01*
X065434Y026812D01*
X065394D01*
X065354Y026852D01*
X065314Y026812D01*
X065274D01*
X065314Y026772D01*
X065274Y026732D01*
X065314D01*
X065354Y026692D01*
X064567Y025117D02*
X064607Y025157D01*
X064647D01*
X064607Y025197D01*
X064647Y025237D01*
X064607D01*
X064567Y025277D01*
X064527Y025237D01*
X064487D01*
X064527Y025197D01*
X064487Y025157D01*
X064527D01*
X064567Y025117D01*
X065354Y023542D02*
X065394Y023582D01*
X065434D01*
X065394Y023622D01*
X065434Y023662D01*
X065394D01*
X065354Y023702D01*
X065314Y023662D01*
X065274D01*
X065314Y023622D01*
X065274Y023582D01*
X065314D01*
X065354Y023542D01*
X062992Y040865D02*
X063032Y040905D01*
X063072D01*
X063032Y040945D01*
X063072Y040985D01*
X063032D01*
X062992Y041025D01*
X062952Y040985D01*
X062912D01*
X062952Y040945D01*
X062912Y040905D01*
X062952D01*
X062992Y040865D01*
Y025117D02*
X063032Y025157D01*
X063072D01*
X063032Y025197D01*
X063072Y025237D01*
X063032D01*
X062992Y025277D01*
X062952Y025237D01*
X062912D01*
X062952Y025197D01*
X062912Y025157D01*
X062952D01*
X062992Y025117D01*
X06378Y023542D02*
X06382Y023582D01*
X06386D01*
X06382Y023622D01*
X06386Y023662D01*
X06382D01*
X06378Y023702D01*
X06374Y023662D01*
X0637D01*
X06374Y023622D01*
X0637Y023582D01*
X06374D01*
X06378Y023542D01*
X062992Y021967D02*
X063032Y022007D01*
X063072D01*
X063032Y022047D01*
X063072Y022087D01*
X063032D01*
X062992Y022127D01*
X062952Y022087D01*
X062912D01*
X062952Y022047D01*
X062912Y022007D01*
X062952D01*
X062992Y021967D01*
X061417Y040865D02*
X061457Y040905D01*
X061497D01*
X061457Y040945D01*
X061497Y040985D01*
X061457D01*
X061417Y041025D01*
X061377Y040985D01*
X061337D01*
X061377Y040945D01*
X061337Y040905D01*
X061377D01*
X061417Y040865D01*
Y025117D02*
X061457Y025157D01*
X061497D01*
X061457Y025197D01*
X061497Y025237D01*
X061457D01*
X061417Y025277D01*
X061377Y025237D01*
X061337D01*
X061377Y025197D01*
X061337Y025157D01*
X061377D01*
X061417Y025117D01*
X062205Y023542D02*
X062245Y023582D01*
X062285D01*
X062245Y023622D01*
X062285Y023662D01*
X062245D01*
X062205Y023702D01*
X062165Y023662D01*
X062125D01*
X062165Y023622D01*
X062125Y023582D01*
X062165D01*
X062205Y023542D01*
X061417Y021967D02*
X061457Y022007D01*
X061497D01*
X061457Y022047D01*
X061497Y022087D01*
X061457D01*
X061417Y022127D01*
X061377Y022087D01*
X061337D01*
X061377Y022047D01*
X061337Y022007D01*
X061377D01*
X061417Y021967D01*
X059843Y040865D02*
X059883Y040905D01*
X059923D01*
X059883Y040945D01*
X059923Y040985D01*
X059883D01*
X059843Y041025D01*
X059803Y040985D01*
X059763D01*
X059803Y040945D01*
X059763Y040905D01*
X059803D01*
X059843Y040865D01*
Y037715D02*
X059883Y037755D01*
X059923D01*
X059883Y037795D01*
X059923Y037835D01*
X059883D01*
X059843Y037875D01*
X059803Y037835D01*
X059763D01*
X059803Y037795D01*
X059763Y037755D01*
X059803D01*
X059843Y037715D01*
X06063Y032991D02*
X06067Y033031D01*
X06071D01*
X06067Y033071D01*
X06071Y033111D01*
X06067D01*
X06063Y033151D01*
X06059Y033111D01*
X06055D01*
X06059Y033071D01*
X06055Y033031D01*
X06059D01*
X06063Y032991D01*
X059843Y031416D02*
X059883Y031456D01*
X059923D01*
X059883Y031496D01*
X059923Y031536D01*
X059883D01*
X059843Y031576D01*
X059803Y031536D01*
X059763D01*
X059803Y031496D01*
X059763Y031456D01*
X059803D01*
X059843Y031416D01*
Y025117D02*
X059883Y025157D01*
X059923D01*
X059883Y025197D01*
X059923Y025237D01*
X059883D01*
X059843Y025277D01*
X059803Y025237D01*
X059763D01*
X059803Y025197D01*
X059763Y025157D01*
X059803D01*
X059843Y025117D01*
X06063Y023542D02*
X06067Y023582D01*
X06071D01*
X06067Y023622D01*
X06071Y023662D01*
X06067D01*
X06063Y023702D01*
X06059Y023662D01*
X06055D01*
X06059Y023622D01*
X06055Y023582D01*
X06059D01*
X06063Y023542D01*
X059843Y021967D02*
X059883Y022007D01*
X059923D01*
X059883Y022047D01*
X059923Y022087D01*
X059883D01*
X059843Y022127D01*
X059803Y022087D01*
X059763D01*
X059803Y022047D01*
X059763Y022007D01*
X059803D01*
X059843Y021967D01*
X059055Y03929D02*
X059095Y03933D01*
X059135D01*
X059095Y03937D01*
X059135Y03941D01*
X059095D01*
X059055Y03945D01*
X059015Y03941D01*
X058975D01*
X059015Y03937D01*
X058975Y03933D01*
X059015D01*
X059055Y03929D01*
X058268Y037715D02*
X058308Y037755D01*
X058348D01*
X058308Y037795D01*
X058348Y037835D01*
X058308D01*
X058268Y037875D01*
X058228Y037835D01*
X058188D01*
X058228Y037795D01*
X058188Y037755D01*
X058228D01*
X058268Y037715D01*
X059055Y03614D02*
X059095Y03618D01*
X059135D01*
X059095Y03622D01*
X059135Y03626D01*
X059095D01*
X059055Y0363D01*
X059015Y03626D01*
X058975D01*
X059015Y03622D01*
X058975Y03618D01*
X059015D01*
X059055Y03614D01*
X058268Y034566D02*
X058308Y034606D01*
X058348D01*
X058308Y034646D01*
X058348Y034686D01*
X058308D01*
X058268Y034726D01*
X058228Y034686D01*
X058188D01*
X058228Y034646D01*
X058188Y034606D01*
X058228D01*
X058268Y034566D01*
Y031416D02*
X058308Y031456D01*
X058348D01*
X058308Y031496D01*
X058348Y031536D01*
X058308D01*
X058268Y031576D01*
X058228Y031536D01*
X058188D01*
X058228Y031496D01*
X058188Y031456D01*
X058228D01*
X058268Y031416D01*
Y025117D02*
X058308Y025157D01*
X058348D01*
X058308Y025197D01*
X058348Y025237D01*
X058308D01*
X058268Y025277D01*
X058228Y025237D01*
X058188D01*
X058228Y025197D01*
X058188Y025157D01*
X058228D01*
X058268Y025117D01*
Y021967D02*
X058308Y022007D01*
X058348D01*
X058308Y022047D01*
X058348Y022087D01*
X058308D01*
X058268Y022127D01*
X058228Y022087D01*
X058188D01*
X058228Y022047D01*
X058188Y022007D01*
X058228D01*
X058268Y021967D01*
X056693Y040865D02*
X056733Y040905D01*
X056773D01*
X056733Y040945D01*
X056773Y040985D01*
X056733D01*
X056693Y041025D01*
X056653Y040985D01*
X056613D01*
X056653Y040945D01*
X056613Y040905D01*
X056653D01*
X056693Y040865D01*
Y037715D02*
X056733Y037755D01*
X056773D01*
X056733Y037795D01*
X056773Y037835D01*
X056733D01*
X056693Y037875D01*
X056653Y037835D01*
X056613D01*
X056653Y037795D01*
X056613Y037755D01*
X056653D01*
X056693Y037715D01*
X05748Y03614D02*
X05752Y03618D01*
X05756D01*
X05752Y03622D01*
X05756Y03626D01*
X05752D01*
X05748Y0363D01*
X05744Y03626D01*
X0574D01*
X05744Y03622D01*
X0574Y03618D01*
X05744D01*
X05748Y03614D01*
X056693Y034566D02*
X056733Y034606D01*
X056773D01*
X056733Y034646D01*
X056773Y034686D01*
X056733D01*
X056693Y034726D01*
X056653Y034686D01*
X056613D01*
X056653Y034646D01*
X056613Y034606D01*
X056653D01*
X056693Y034566D01*
X05748Y032991D02*
X05752Y033031D01*
X05756D01*
X05752Y033071D01*
X05756Y033111D01*
X05752D01*
X05748Y033151D01*
X05744Y033111D01*
X0574D01*
X05744Y033071D01*
X0574Y033031D01*
X05744D01*
X05748Y032991D01*
X056693Y031416D02*
X056733Y031456D01*
X056773D01*
X056733Y031496D01*
X056773Y031536D01*
X056733D01*
X056693Y031576D01*
X056653Y031536D01*
X056613D01*
X056653Y031496D01*
X056613Y031456D01*
X056653D01*
X056693Y031416D01*
Y025117D02*
X056733Y025157D01*
X056773D01*
X056733Y025197D01*
X056773Y025237D01*
X056733D01*
X056693Y025277D01*
X056653Y025237D01*
X056613D01*
X056653Y025197D01*
X056613Y025157D01*
X056653D01*
X056693Y025117D01*
Y021967D02*
X056733Y022007D01*
X056773D01*
X056733Y022047D01*
X056773Y022087D01*
X056733D01*
X056693Y022127D01*
X056653Y022087D01*
X056613D01*
X056653Y022047D01*
X056613Y022007D01*
X056653D01*
X056693Y021967D01*
X055906Y03929D02*
X055946Y03933D01*
X055986D01*
X055946Y03937D01*
X055986Y03941D01*
X055946D01*
X055906Y03945D01*
X055866Y03941D01*
X055826D01*
X055866Y03937D01*
X055826Y03933D01*
X055866D01*
X055906Y03929D01*
Y03614D02*
X055946Y03618D01*
X055986D01*
X055946Y03622D01*
X055986Y03626D01*
X055946D01*
X055906Y0363D01*
X055866Y03626D01*
X055826D01*
X055866Y03622D01*
X055826Y03618D01*
X055866D01*
X055906Y03614D01*
Y032991D02*
X055946Y033031D01*
X055986D01*
X055946Y033071D01*
X055986Y033111D01*
X055946D01*
X055906Y033151D01*
X055866Y033111D01*
X055826D01*
X055866Y033071D01*
X055826Y033031D01*
X055866D01*
X055906Y032991D01*
X055118Y025117D02*
X055158Y025157D01*
X055198D01*
X055158Y025197D01*
X055198Y025237D01*
X055158D01*
X055118Y025277D01*
X055078Y025237D01*
X055038D01*
X055078Y025197D01*
X055038Y025157D01*
X055078D01*
X055118Y025117D01*
Y021967D02*
X055158Y022007D01*
X055198D01*
X055158Y022047D01*
X055198Y022087D01*
X055158D01*
X055118Y022127D01*
X055078Y022087D01*
X055038D01*
X055078Y022047D01*
X055038Y022007D01*
X055078D01*
X055118Y021967D01*
X053543Y037715D02*
X053583Y037755D01*
X053623D01*
X053583Y037795D01*
X053623Y037835D01*
X053583D01*
X053543Y037875D01*
X053503Y037835D01*
X053463D01*
X053503Y037795D01*
X053463Y037755D01*
X053503D01*
X053543Y037715D01*
X054331Y023542D02*
X054371Y023582D01*
X054411D01*
X054371Y023622D01*
X054411Y023662D01*
X054371D01*
X054331Y023702D01*
X054291Y023662D01*
X054251D01*
X054291Y023622D01*
X054251Y023582D01*
X054291D01*
X054331Y023542D01*
X053543Y021967D02*
X053583Y022007D01*
X053623D01*
X053583Y022047D01*
X053623Y022087D01*
X053583D01*
X053543Y022127D01*
X053503Y022087D01*
X053463D01*
X053503Y022047D01*
X053463Y022007D01*
X053503D01*
X053543Y021967D01*
X051968Y040865D02*
X052009Y040905D01*
X052049D01*
X052009Y040945D01*
X052049Y040985D01*
X052009D01*
X051968Y041025D01*
X051929Y040985D01*
X051888D01*
X051929Y040945D01*
X051888Y040905D01*
X051929D01*
X051968Y040865D01*
X052756Y03929D02*
X052796Y03933D01*
X052836D01*
X052796Y03937D01*
X052836Y03941D01*
X052796D01*
X052756Y03945D01*
X052716Y03941D01*
X052676D01*
X052716Y03937D01*
X052676Y03933D01*
X052716D01*
X052756Y03929D01*
X051968Y037715D02*
X052009Y037755D01*
X052049D01*
X052009Y037795D01*
X052049Y037835D01*
X052009D01*
X051968Y037875D01*
X051929Y037835D01*
X051888D01*
X051929Y037795D01*
X051888Y037755D01*
X051929D01*
X051968Y037715D01*
Y034566D02*
X052009Y034606D01*
X052049D01*
X052009Y034646D01*
X052049Y034686D01*
X052009D01*
X051968Y034726D01*
X051929Y034686D01*
X051888D01*
X051929Y034646D01*
X051888Y034606D01*
X051929D01*
X051968Y034566D01*
X050394Y021967D02*
X050434Y022007D01*
X050474D01*
X050434Y022047D01*
X050474Y022087D01*
X050434D01*
X050394Y022127D01*
X050354Y022087D01*
X050314D01*
X050354Y022047D01*
X050314Y022007D01*
X050354D01*
X050394Y021967D01*
X049606Y026692D02*
X049646Y026732D01*
X049686D01*
X049646Y026772D01*
X049686Y026812D01*
X049646D01*
X049606Y026852D01*
X049566Y026812D01*
X049526D01*
X049566Y026772D01*
X049526Y026732D01*
X049566D01*
X049606Y026692D01*
X047244Y021967D02*
X047284Y022007D01*
X047324D01*
X047284Y022047D01*
X047324Y022087D01*
X047284D01*
X047244Y022127D01*
X047204Y022087D01*
X047164D01*
X047204Y022047D01*
X047164Y022007D01*
X047204D01*
X047244Y021967D01*
X046457Y026692D02*
X046497Y026732D01*
X046537D01*
X046497Y026772D01*
X046537Y026812D01*
X046497D01*
X046457Y026852D01*
X046417Y026812D01*
X046377D01*
X046417Y026772D01*
X046377Y026732D01*
X046417D01*
X046457Y026692D01*
Y023542D02*
X046497Y023582D01*
X046537D01*
X046497Y023622D01*
X046537Y023662D01*
X046497D01*
X046457Y023702D01*
X046417Y023662D01*
X046377D01*
X046417Y023622D01*
X046377Y023582D01*
X046417D01*
X046457Y023542D01*
X045669Y021967D02*
X045709Y022007D01*
X045749D01*
X045709Y022047D01*
X045749Y022087D01*
X045709D01*
X045669Y022127D01*
X045629Y022087D01*
X045589D01*
X045629Y022047D01*
X045589Y022007D01*
X045629D01*
X045669Y021967D01*
X040945Y037715D02*
X040985Y037755D01*
X041025D01*
X040985Y037795D01*
X041025Y037835D01*
X040985D01*
X040945Y037875D01*
X040905Y037835D01*
X040865D01*
X040905Y037795D01*
X040865Y037755D01*
X040905D01*
X040945Y037715D01*
X041732Y029841D02*
X041772Y029881D01*
X041812D01*
X041772Y029921D01*
X041812Y029961D01*
X041772D01*
X041732Y030001D01*
X041692Y029961D01*
X041652D01*
X041692Y029921D01*
X041652Y029881D01*
X041692D01*
X041732Y029841D01*
X03937Y040865D02*
X03941Y040905D01*
X03945D01*
X03941Y040945D01*
X03945Y040985D01*
X03941D01*
X03937Y041025D01*
X03933Y040985D01*
X03929D01*
X03933Y040945D01*
X03929Y040905D01*
X03933D01*
X03937Y040865D01*
Y037715D02*
X03941Y037755D01*
X03945D01*
X03941Y037795D01*
X03945Y037835D01*
X03941D01*
X03937Y037875D01*
X03933Y037835D01*
X03929D01*
X03933Y037795D01*
X03929Y037755D01*
X03933D01*
X03937Y037715D01*
X040157Y029841D02*
X040197Y029881D01*
X040237D01*
X040197Y029921D01*
X040237Y029961D01*
X040197D01*
X040157Y030001D01*
X040117Y029961D01*
X040077D01*
X040117Y029921D01*
X040077Y029881D01*
X040117D01*
X040157Y029841D01*
X03937Y021967D02*
X03941Y022007D01*
X03945D01*
X03941Y022047D01*
X03945Y022087D01*
X03941D01*
X03937Y022127D01*
X03933Y022087D01*
X03929D01*
X03933Y022047D01*
X03929Y022007D01*
X03933D01*
X03937Y021967D01*
X037795Y040865D02*
X037835Y040905D01*
X037875D01*
X037835Y040945D01*
X037875Y040985D01*
X037835D01*
X037795Y041025D01*
X037755Y040985D01*
X037715D01*
X037755Y040945D01*
X037715Y040905D01*
X037755D01*
X037795Y040865D01*
Y031416D02*
X037835Y031456D01*
X037875D01*
X037835Y031496D01*
X037875Y031536D01*
X037835D01*
X037795Y031576D01*
X037755Y031536D01*
X037715D01*
X037755Y031496D01*
X037715Y031456D01*
X037755D01*
X037795Y031416D01*
X038583Y029841D02*
X038623Y029881D01*
X038663D01*
X038623Y029921D01*
X038663Y029961D01*
X038623D01*
X038583Y030001D01*
X038543Y029961D01*
X038503D01*
X038543Y029921D01*
X038503Y029881D01*
X038543D01*
X038583Y029841D01*
X037795Y028266D02*
X037835Y028306D01*
X037875D01*
X037835Y028346D01*
X037875Y028386D01*
X037835D01*
X037795Y028426D01*
X037755Y028386D01*
X037715D01*
X037755Y028346D01*
X037715Y028306D01*
X037755D01*
X037795Y028266D01*
X038583Y026692D02*
X038623Y026732D01*
X038663D01*
X038623Y026772D01*
X038663Y026812D01*
X038623D01*
X038583Y026852D01*
X038543Y026812D01*
X038503D01*
X038543Y026772D01*
X038503Y026732D01*
X038543D01*
X038583Y026692D01*
X037795Y025117D02*
X037835Y025157D01*
X037875D01*
X037835Y025197D01*
X037875Y025237D01*
X037835D01*
X037795Y025277D01*
X037755Y025237D01*
X037715D01*
X037755Y025197D01*
X037715Y025157D01*
X037755D01*
X037795Y025117D01*
X038583Y023542D02*
X038623Y023582D01*
X038663D01*
X038623Y023622D01*
X038663Y023662D01*
X038623D01*
X038583Y023702D01*
X038543Y023662D01*
X038503D01*
X038543Y023622D01*
X038503Y023582D01*
X038543D01*
X038583Y023542D01*
X037795Y021967D02*
X037835Y022007D01*
X037875D01*
X037835Y022047D01*
X037875Y022087D01*
X037835D01*
X037795Y022127D01*
X037755Y022087D01*
X037715D01*
X037755Y022047D01*
X037715Y022007D01*
X037755D01*
X037795Y021967D01*
X03622Y040865D02*
X03626Y040905D01*
X0363D01*
X03626Y040945D01*
X0363Y040985D01*
X03626D01*
X03622Y041025D01*
X03618Y040985D01*
X03614D01*
X03618Y040945D01*
X03614Y040905D01*
X03618D01*
X03622Y040865D01*
X037008Y03929D02*
X037048Y03933D01*
X037088D01*
X037048Y03937D01*
X037088Y03941D01*
X037048D01*
X037008Y03945D01*
X036968Y03941D01*
X036928D01*
X036968Y03937D01*
X036928Y03933D01*
X036968D01*
X037008Y03929D01*
Y03614D02*
X037048Y03618D01*
X037088D01*
X037048Y03622D01*
X037088Y03626D01*
X037048D01*
X037008Y0363D01*
X036968Y03626D01*
X036928D01*
X036968Y03622D01*
X036928Y03618D01*
X036968D01*
X037008Y03614D01*
Y032991D02*
X037048Y033031D01*
X037088D01*
X037048Y033071D01*
X037088Y033111D01*
X037048D01*
X037008Y033151D01*
X036968Y033111D01*
X036928D01*
X036968Y033071D01*
X036928Y033031D01*
X036968D01*
X037008Y032991D01*
X03622Y031416D02*
X03626Y031456D01*
X0363D01*
X03626Y031496D01*
X0363Y031536D01*
X03626D01*
X03622Y031576D01*
X03618Y031536D01*
X03614D01*
X03618Y031496D01*
X03614Y031456D01*
X03618D01*
X03622Y031416D01*
X037008Y026692D02*
X037048Y026732D01*
X037088D01*
X037048Y026772D01*
X037088Y026812D01*
X037048D01*
X037008Y026852D01*
X036968Y026812D01*
X036928D01*
X036968Y026772D01*
X036928Y026732D01*
X036968D01*
X037008Y026692D01*
X03622Y025117D02*
X03626Y025157D01*
X0363D01*
X03626Y025197D01*
X0363Y025237D01*
X03626D01*
X03622Y025277D01*
X03618Y025237D01*
X03614D01*
X03618Y025197D01*
X03614Y025157D01*
X03618D01*
X03622Y025117D01*
X037008Y023542D02*
X037048Y023582D01*
X037088D01*
X037048Y023622D01*
X037088Y023662D01*
X037048D01*
X037008Y023702D01*
X036968Y023662D01*
X036928D01*
X036968Y023622D01*
X036928Y023582D01*
X036968D01*
X037008Y023542D01*
X03622Y021967D02*
X03626Y022007D01*
X0363D01*
X03626Y022047D01*
X0363Y022087D01*
X03626D01*
X03622Y022127D01*
X03618Y022087D01*
X03614D01*
X03618Y022047D01*
X03614Y022007D01*
X03618D01*
X03622Y021967D01*
X034646Y040865D02*
X034686Y040905D01*
X034726D01*
X034686Y040945D01*
X034726Y040985D01*
X034686D01*
X034646Y041025D01*
X034606Y040985D01*
X034566D01*
X034606Y040945D01*
X034566Y040905D01*
X034606D01*
X034646Y040865D01*
X035433Y03929D02*
X035473Y03933D01*
X035513D01*
X035473Y03937D01*
X035513Y03941D01*
X035473D01*
X035433Y03945D01*
X035393Y03941D01*
X035353D01*
X035393Y03937D01*
X035353Y03933D01*
X035393D01*
X035433Y03929D01*
X034646Y037715D02*
X034686Y037755D01*
X034726D01*
X034686Y037795D01*
X034726Y037835D01*
X034686D01*
X034646Y037875D01*
X034606Y037835D01*
X034566D01*
X034606Y037795D01*
X034566Y037755D01*
X034606D01*
X034646Y037715D01*
Y031416D02*
X034686Y031456D01*
X034726D01*
X034686Y031496D01*
X034726Y031536D01*
X034686D01*
X034646Y031576D01*
X034606Y031536D01*
X034566D01*
X034606Y031496D01*
X034566Y031456D01*
X034606D01*
X034646Y031416D01*
Y028266D02*
X034686Y028306D01*
X034726D01*
X034686Y028346D01*
X034726Y028386D01*
X034686D01*
X034646Y028426D01*
X034606Y028386D01*
X034566D01*
X034606Y028346D01*
X034566Y028306D01*
X034606D01*
X034646Y028266D01*
Y025117D02*
X034686Y025157D01*
X034726D01*
X034686Y025197D01*
X034726Y025237D01*
X034686D01*
X034646Y025277D01*
X034606Y025237D01*
X034566D01*
X034606Y025197D01*
X034566Y025157D01*
X034606D01*
X034646Y025117D01*
X035433Y023542D02*
X035473Y023582D01*
X035513D01*
X035473Y023622D01*
X035513Y023662D01*
X035473D01*
X035433Y023702D01*
X035393Y023662D01*
X035353D01*
X035393Y023622D01*
X035353Y023582D01*
X035393D01*
X035433Y023542D01*
X034646Y021967D02*
X034686Y022007D01*
X034726D01*
X034686Y022047D01*
X034726Y022087D01*
X034686D01*
X034646Y022127D01*
X034606Y022087D01*
X034566D01*
X034606Y022047D01*
X034566Y022007D01*
X034606D01*
X034646Y021967D01*
X033071Y040865D02*
X033111Y040905D01*
X033151D01*
X033111Y040945D01*
X033151Y040985D01*
X033111D01*
X033071Y041025D01*
X033031Y040985D01*
X032991D01*
X033031Y040945D01*
X032991Y040905D01*
X033031D01*
X033071Y040865D01*
Y037715D02*
X033111Y037755D01*
X033151D01*
X033111Y037795D01*
X033151Y037835D01*
X033111D01*
X033071Y037875D01*
X033031Y037835D01*
X032991D01*
X033031Y037795D01*
X032991Y037755D01*
X033031D01*
X033071Y037715D01*
X033858Y03614D02*
X033898Y03618D01*
X033938D01*
X033898Y03622D01*
X033938Y03626D01*
X033898D01*
X033858Y0363D01*
X033818Y03626D01*
X033778D01*
X033818Y03622D01*
X033778Y03618D01*
X033818D01*
X033858Y03614D01*
X033071Y034566D02*
X033111Y034606D01*
X033151D01*
X033111Y034646D01*
X033151Y034686D01*
X033111D01*
X033071Y034726D01*
X033031Y034686D01*
X032991D01*
X033031Y034646D01*
X032991Y034606D01*
X033031D01*
X033071Y034566D01*
X033858Y032991D02*
X033898Y033031D01*
X033938D01*
X033898Y033071D01*
X033938Y033111D01*
X033898D01*
X033858Y033151D01*
X033818Y033111D01*
X033778D01*
X033818Y033071D01*
X033778Y033031D01*
X033818D01*
X033858Y032991D01*
X033071Y031416D02*
X033111Y031456D01*
X033151D01*
X033111Y031496D01*
X033151Y031536D01*
X033111D01*
X033071Y031576D01*
X033031Y031536D01*
X032991D01*
X033031Y031496D01*
X032991Y031456D01*
X033031D01*
X033071Y031416D01*
X033858Y029841D02*
X033898Y029881D01*
X033938D01*
X033898Y029921D01*
X033938Y029961D01*
X033898D01*
X033858Y030001D01*
X033818Y029961D01*
X033778D01*
X033818Y029921D01*
X033778Y029881D01*
X033818D01*
X033858Y029841D01*
X033071Y028266D02*
X033111Y028306D01*
X033151D01*
X033111Y028346D01*
X033151Y028386D01*
X033111D01*
X033071Y028426D01*
X033031Y028386D01*
X032991D01*
X033031Y028346D01*
X032991Y028306D01*
X033031D01*
X033071Y028266D01*
Y025117D02*
X033111Y025157D01*
X033151D01*
X033111Y025197D01*
X033151Y025237D01*
X033111D01*
X033071Y025277D01*
X033031Y025237D01*
X032991D01*
X033031Y025197D01*
X032991Y025157D01*
X033031D01*
X033071Y025117D01*
X033858Y023542D02*
X033898Y023582D01*
X033938D01*
X033898Y023622D01*
X033938Y023662D01*
X033898D01*
X033858Y023702D01*
X033818Y023662D01*
X033778D01*
X033818Y023622D01*
X033778Y023582D01*
X033818D01*
X033858Y023542D01*
X033071Y021967D02*
X033111Y022007D01*
X033151D01*
X033111Y022047D01*
X033151Y022087D01*
X033111D01*
X033071Y022127D01*
X033031Y022087D01*
X032991D01*
X033031Y022047D01*
X032991Y022007D01*
X033031D01*
X033071Y021967D01*
X031496Y040865D02*
X031536Y040905D01*
X031576D01*
X031536Y040945D01*
X031576Y040985D01*
X031536D01*
X031496Y041025D01*
X031456Y040985D01*
X031416D01*
X031456Y040945D01*
X031416Y040905D01*
X031456D01*
X031496Y040865D01*
X032283Y03929D02*
X032323Y03933D01*
X032363D01*
X032323Y03937D01*
X032363Y03941D01*
X032323D01*
X032283Y03945D01*
X032243Y03941D01*
X032203D01*
X032243Y03937D01*
X032203Y03933D01*
X032243D01*
X032283Y03929D01*
X031496Y037715D02*
X031536Y037755D01*
X031576D01*
X031536Y037795D01*
X031576Y037835D01*
X031536D01*
X031496Y037875D01*
X031456Y037835D01*
X031416D01*
X031456Y037795D01*
X031416Y037755D01*
X031456D01*
X031496Y037715D01*
X032283Y03614D02*
X032323Y03618D01*
X032363D01*
X032323Y03622D01*
X032363Y03626D01*
X032323D01*
X032283Y0363D01*
X032243Y03626D01*
X032203D01*
X032243Y03622D01*
X032203Y03618D01*
X032243D01*
X032283Y03614D01*
X031496Y034566D02*
X031536Y034606D01*
X031576D01*
X031536Y034646D01*
X031576Y034686D01*
X031536D01*
X031496Y034726D01*
X031456Y034686D01*
X031416D01*
X031456Y034646D01*
X031416Y034606D01*
X031456D01*
X031496Y034566D01*
X032283Y032991D02*
X032323Y033031D01*
X032363D01*
X032323Y033071D01*
X032363Y033111D01*
X032323D01*
X032283Y033151D01*
X032243Y033111D01*
X032203D01*
X032243Y033071D01*
X032203Y033031D01*
X032243D01*
X032283Y032991D01*
X031496Y031416D02*
X031536Y031456D01*
X031576D01*
X031536Y031496D01*
X031576Y031536D01*
X031536D01*
X031496Y031576D01*
X031456Y031536D01*
X031416D01*
X031456Y031496D01*
X031416Y031456D01*
X031456D01*
X031496Y031416D01*
X032283Y029841D02*
X032323Y029881D01*
X032363D01*
X032323Y029921D01*
X032363Y029961D01*
X032323D01*
X032283Y030001D01*
X032243Y029961D01*
X032203D01*
X032243Y029921D01*
X032203Y029881D01*
X032243D01*
X032283Y029841D01*
X031496Y028266D02*
X031536Y028306D01*
X031576D01*
X031536Y028346D01*
X031576Y028386D01*
X031536D01*
X031496Y028426D01*
X031456Y028386D01*
X031416D01*
X031456Y028346D01*
X031416Y028306D01*
X031456D01*
X031496Y028266D01*
X032283Y026692D02*
X032323Y026732D01*
X032363D01*
X032323Y026772D01*
X032363Y026812D01*
X032323D01*
X032283Y026852D01*
X032243Y026812D01*
X032203D01*
X032243Y026772D01*
X032203Y026732D01*
X032243D01*
X032283Y026692D01*
X031496Y025117D02*
X031536Y025157D01*
X031576D01*
X031536Y025197D01*
X031576Y025237D01*
X031536D01*
X031496Y025277D01*
X031456Y025237D01*
X031416D01*
X031456Y025197D01*
X031416Y025157D01*
X031456D01*
X031496Y025117D01*
X032283Y023542D02*
X032323Y023582D01*
X032363D01*
X032323Y023622D01*
X032363Y023662D01*
X032323D01*
X032283Y023702D01*
X032243Y023662D01*
X032203D01*
X032243Y023622D01*
X032203Y023582D01*
X032243D01*
X032283Y023542D01*
X050657Y034661D02*
X050697Y034701D01*
X050737D01*
X050697Y034741D01*
X050737Y034781D01*
X050697D01*
X050657Y034821D01*
X050617Y034781D01*
X050577D01*
X050617Y034741D01*
X050577Y034701D01*
X050617D01*
X050657Y034661D01*
X047914Y032384D02*
X047954Y032424D01*
X047994D01*
X047954Y032464D01*
X047994Y032504D01*
X047954D01*
X047914Y032544D01*
X047874Y032504D01*
X047834D01*
X047874Y032464D01*
X047834Y032424D01*
X047874D01*
X047914Y032384D01*
X063826Y029819D02*
X063866Y029899D01*
X063826Y029979D01*
X063906Y029939D01*
X063986Y029979D01*
X063946Y029899D01*
X063986Y029819D01*
X063906Y029859D01*
X063826Y029819D01*
X06227Y042398D02*
X06231Y042478D01*
X06227Y042558D01*
X06235Y042518D01*
X06243Y042558D01*
X06239Y042478D01*
X06243Y042398D01*
X06235Y042438D01*
X06227Y042398D01*
X062528Y035587D02*
X062568Y035627D01*
X062608D01*
X062568Y035667D01*
X062608Y035707D01*
X062568D01*
X062528Y035747D01*
X062488Y035707D01*
X062448D01*
X062488Y035667D01*
X062448Y035627D01*
X062488D01*
X062528Y035587D01*
Y035035D02*
X062568Y035075D01*
X062608D01*
X062568Y035115D01*
X062608Y035155D01*
X062568D01*
X062528Y035195D01*
X062488Y035155D01*
X062448D01*
X062488Y035115D01*
X062448Y035075D01*
X062488D01*
X062528Y035035D01*
X064101Y032339D02*
X064141Y032418D01*
X064101Y032499D01*
X064181Y032459D01*
X064261Y032499D01*
X064221Y032418D01*
X064261Y032339D01*
X064181Y032378D01*
X064101Y032339D01*
X064062Y033323D02*
X064102Y033403D01*
X064062Y033483D01*
X064142Y033443D01*
X064222Y033483D01*
X064182Y033403D01*
X064222Y033323D01*
X064142Y033363D01*
X064062Y033323D01*
X063786Y030626D02*
X063826Y030706D01*
X063786Y030786D01*
X063866Y030746D01*
X063946Y030786D01*
X063906Y030706D01*
X063946Y030626D01*
X063866Y030666D01*
X063786Y030626D01*
X063768Y040705D02*
X063808Y040745D01*
X063848D01*
X063808Y040785D01*
X063848Y040825D01*
X063808D01*
X063768Y040865D01*
X063728Y040825D01*
X063688D01*
X063728Y040785D01*
X063688Y040745D01*
X063728D01*
X063768Y040705D01*
X058492Y04069D02*
X058532Y04073D01*
X058572D01*
X058532Y04077D01*
X058572Y04081D01*
X058532D01*
X058492Y04085D01*
X058452Y04081D01*
X058412D01*
X058452Y04077D01*
X058412Y04073D01*
X058452D01*
X058492Y04069D01*
X060596Y039136D02*
X060636Y039216D01*
X060596Y039296D01*
X060676Y039256D01*
X060756Y039296D01*
X060716Y039216D01*
X060756Y039136D01*
X060676Y039176D01*
X060596Y039136D01*
X063748Y039189D02*
X063788Y039229D01*
X063828D01*
X063788Y039269D01*
X063828Y039309D01*
X063788D01*
X063748Y039349D01*
X063708Y039309D01*
X063668D01*
X063708Y039269D01*
X063668Y039229D01*
X063708D01*
X063748Y039189D01*
X0625Y034076D02*
X06254Y034116D01*
X06258D01*
X06254Y034156D01*
X06258Y034196D01*
X06254D01*
X0625Y034236D01*
X06246Y034196D01*
X06242D01*
X06246Y034156D01*
X06242Y034116D01*
X06246D01*
X0625Y034076D01*
X062492Y033596D02*
X062532Y033636D01*
X062572D01*
X062532Y033676D01*
X062572Y033716D01*
X062532D01*
X062492Y033756D01*
X062452Y033716D01*
X062412D01*
X062452Y033676D01*
X062412Y033636D01*
X062452D01*
X062492Y033596D01*
X055099Y039116D02*
X055139Y039156D01*
X055179D01*
X055139Y039196D01*
X055179Y039236D01*
X055139D01*
X055099Y039276D01*
X055059Y039236D01*
X055019D01*
X055059Y039196D01*
X055019Y039156D01*
X055059D01*
X055099Y039116D01*
X054311Y034116D02*
X054351Y034156D01*
X054391D01*
X054351Y034196D01*
X054391Y034236D01*
X054351D01*
X054311Y034276D01*
X054271Y034236D01*
X054231D01*
X054271Y034196D01*
X054231Y034156D01*
X054271D01*
X054311Y034116D01*
X054351Y031616D02*
X054391Y031656D01*
X054431D01*
X054391Y031696D01*
X054431Y031736D01*
X054391D01*
X054351Y031776D01*
X054311Y031736D01*
X054271D01*
X054311Y031696D01*
X054271Y031656D01*
X054311D01*
X054351Y031616D01*
X053906Y032083D02*
X053946Y032123D01*
X053986D01*
X053946Y032163D01*
X053986Y032203D01*
X053946D01*
X053906Y032243D01*
X053866Y032203D01*
X053826D01*
X053866Y032163D01*
X053826Y032123D01*
X053866D01*
X053906Y032083D01*
X055079Y040691D02*
X055119Y040731D01*
X055159D01*
X055119Y040771D01*
X055159Y040811D01*
X055119D01*
X055079Y040851D01*
X055039Y040811D01*
X054999D01*
X055039Y040771D01*
X054999Y040731D01*
X055039D01*
X055079Y040691D01*
X058502Y039115D02*
X058542Y039155D01*
X058582D01*
X058542Y039195D01*
X058582Y039235D01*
X058542D01*
X058502Y039275D01*
X058462Y039235D01*
X058422D01*
X058462Y039195D01*
X058422Y039155D01*
X058462D01*
X058502Y039115D01*
X042096Y023256D02*
Y023216D01*
X042176D01*
Y023256D01*
X042216D01*
Y023336D01*
X042176D01*
Y023376D01*
X042096D01*
Y023336D01*
X042056D01*
Y023256D01*
X042096D01*
X043828D02*
Y023216D01*
X043908D01*
Y023256D01*
X043948D01*
Y023336D01*
X043908D01*
Y023376D01*
X043828D01*
Y023336D01*
X043788D01*
Y023256D01*
X043828D01*
X051583Y031453D02*
X051623Y031493D01*
X051663D01*
X051623Y031533D01*
X051663Y031573D01*
X051623D01*
X051583Y031613D01*
X051543Y031573D01*
X051503D01*
X051543Y031533D01*
X051503Y031493D01*
X051543D01*
X051583Y031453D01*
X050697Y033579D02*
X050737Y033619D01*
X050777D01*
X050737Y033659D01*
X050777Y033699D01*
X050737D01*
X050697Y033739D01*
X050657Y033699D01*
X050617D01*
X050657Y033659D01*
X050617Y033619D01*
X050657D01*
X050697Y033579D01*
X050687Y032411D02*
X050727Y032451D01*
X050767D01*
X050727Y032491D01*
X050767Y032531D01*
X050727D01*
X050687Y032571D01*
X050647Y032531D01*
X050607D01*
X050647Y032491D01*
X050607Y032451D01*
X050647D01*
X050687Y032411D01*
Y03413D02*
X050727Y03417D01*
X050767D01*
X050727Y03421D01*
X050767Y03425D01*
X050727D01*
X050687Y03429D01*
X050647Y03425D01*
X050607D01*
X050647Y03421D01*
X050607Y03417D01*
X050647D01*
X050687Y03413D01*
X050672Y031433D02*
X050712Y031473D01*
X050752D01*
X050712Y031513D01*
X050752Y031553D01*
X050712D01*
X050672Y031593D01*
X050632Y031553D01*
X050592D01*
X050632Y031513D01*
X050592Y031473D01*
X050632D01*
X050672Y031433D01*
Y031905D02*
X050712Y031945D01*
X050752D01*
X050712Y031985D01*
X050752Y032025D01*
X050712D01*
X050672Y032065D01*
X050632Y032025D01*
X050592D01*
X050632Y031985D01*
X050592Y031945D01*
X050632D01*
X050672Y031905D01*
X050687Y035783D02*
X050727Y035823D01*
X050767D01*
X050727Y035863D01*
X050767Y035903D01*
X050727D01*
X050687Y035943D01*
X050647Y035903D01*
X050607D01*
X050647Y035863D01*
X050607Y035823D01*
X050647D01*
X050687Y035783D01*
Y035232D02*
X050727Y035272D01*
X050767D01*
X050727Y035312D01*
X050767Y035352D01*
X050727D01*
X050687Y035392D01*
X050647Y035352D01*
X050607D01*
X050647Y035312D01*
X050607Y035272D01*
X050647D01*
X050687Y035232D01*
X039193Y032935D02*
X039233Y032975D01*
X039273D01*
X039233Y033015D01*
X039273Y033055D01*
X039233D01*
X039193Y033095D01*
X039153Y033055D01*
X039113D01*
X039153Y033015D01*
X039113Y032975D01*
X039153D01*
X039193Y032935D01*
Y033364D02*
X039233Y033404D01*
X039273D01*
X039233Y033444D01*
X039273Y033484D01*
X039233D01*
X039193Y033524D01*
X039153Y033484D01*
X039113D01*
X039153Y033444D01*
X039113Y033404D01*
X039153D01*
X039193Y033364D01*
X035046Y034563D02*
X035086Y034643D01*
X035046Y034723D01*
X035126Y034683D01*
X035206Y034723D01*
X035166Y034643D01*
X035206Y034563D01*
X035126Y034603D01*
X035046Y034563D01*
X0425Y035061D02*
X04254Y035101D01*
X04258D01*
X04254Y035141D01*
X04258Y035181D01*
X04254D01*
X0425Y035221D01*
X04246Y035181D01*
X04242D01*
X04246Y035141D01*
X04242Y035101D01*
X04246D01*
X0425Y035061D01*
Y036321D02*
X04254Y036361D01*
X04258D01*
X04254Y036401D01*
X04258Y036441D01*
X04254D01*
X0425Y036481D01*
X04246Y036441D01*
X04242D01*
X04246Y036401D01*
X04242Y036361D01*
X04246D01*
X0425Y036321D01*
X040558Y034602D02*
X040598Y034682D01*
X040558Y034762D01*
X040638Y034722D01*
X040718Y034762D01*
X040678Y034682D01*
X040718Y034602D01*
X040638Y034642D01*
X040558Y034602D01*
X04191Y032395D02*
X04195Y032435D01*
X04199D01*
X04195Y032475D01*
X04199Y032515D01*
X04195D01*
X04191Y032555D01*
X04187Y032515D01*
X04183D01*
X04187Y032475D01*
X04183Y032435D01*
X04187D01*
X04191Y032395D01*
Y03198D02*
X04195Y03202D01*
X04199D01*
X04195Y03206D01*
X04199Y0321D01*
X04195D01*
X04191Y03214D01*
X04187Y0321D01*
X04183D01*
X04187Y03206D01*
X04183Y03202D01*
X04187D01*
X04191Y03198D01*
X046639Y028874D02*
X046679Y028914D01*
X046719D01*
X046679Y028954D01*
X046719Y028994D01*
X046679D01*
X046639Y029034D01*
X046599Y028994D01*
X046559D01*
X046599Y028954D01*
X046559Y028914D01*
X046599D01*
X046639Y028874D01*
X046634Y027187D02*
X046674Y027227D01*
X046714D01*
X046674Y027267D01*
X046714Y027307D01*
X046674D01*
X046634Y027347D01*
X046594Y027307D01*
X046554D01*
X046594Y027267D01*
X046554Y027227D01*
X046594D01*
X046634Y027187D01*
X052658Y029628D02*
X052698Y029668D01*
X052738D01*
X052698Y029708D01*
X052738Y029748D01*
X052698D01*
X052658Y029788D01*
X052618Y029748D01*
X052578D01*
X052618Y029708D01*
X052578Y029668D01*
X052618D01*
X052658Y029628D01*
X045589Y033073D02*
X045629Y033153D01*
X045589Y033233D01*
X045669Y033193D01*
X045749Y033233D01*
X045709Y033153D01*
X045749Y033073D01*
X045669Y033113D01*
X045589Y033073D01*
X050826Y038978D02*
X050866Y039058D01*
X050826Y039138D01*
X050906Y039098D01*
X050986Y039138D01*
X050946Y039058D01*
X050986Y038978D01*
X050906Y039018D01*
X050826Y038978D01*
X04876Y033289D02*
X0488Y033329D01*
X04884D01*
X0488Y033369D01*
X04884Y033409D01*
X0488D01*
X04876Y033449D01*
X04872Y033409D01*
X04868D01*
X04872Y033369D01*
X04868Y033329D01*
X04872D01*
X04876Y033289D01*
X044016Y036931D02*
X044056Y036971D01*
X044096D01*
X044056Y037011D01*
X044096Y037051D01*
X044056D01*
X044016Y037091D01*
X043976Y037051D01*
X043936D01*
X043976Y037011D01*
X043936Y036971D01*
X043976D01*
X044016Y036931D01*
X050099Y027797D02*
X050139Y027837D01*
X050179D01*
X050139Y027877D01*
X050179Y027917D01*
X050139D01*
X050099Y027957D01*
X050059Y027917D01*
X050019D01*
X050059Y027877D01*
X050019Y027837D01*
X050059D01*
X050099Y027797D01*
X050122Y025508D02*
X050162Y025548D01*
X050202D01*
X050162Y025588D01*
X050202Y025628D01*
X050162D01*
X050122Y025668D01*
X050082Y025628D01*
X050042D01*
X050082Y025588D01*
X050042Y025548D01*
X050082D01*
X050122Y025508D01*
X042735Y034293D02*
X042775Y034373D01*
X042735Y034453D01*
X042815Y034413D01*
X042895Y034453D01*
X042855Y034373D01*
X042895Y034293D01*
X042815Y034333D01*
X042735Y034293D01*
X044349Y031045D02*
X044389Y031125D01*
X044349Y031205D01*
X044429Y031165D01*
X044509Y031205D01*
X044469Y031125D01*
X044509Y031045D01*
X044429Y031085D01*
X044349Y031045D01*
X042461Y030533D02*
X042501Y030573D01*
X042541D01*
X042501Y030613D01*
X042541Y030653D01*
X042501D01*
X042461Y030693D01*
X042421Y030653D01*
X042381D01*
X042421Y030613D01*
X042381Y030573D01*
X042421D01*
X042461Y030533D01*
X048562Y041084D02*
X048602Y041164D01*
X048562Y041244D01*
X048642Y041204D01*
X048722Y041244D01*
X048682Y041164D01*
X048722Y041084D01*
X048642Y041124D01*
X048562Y041084D01*
X051103Y029195D02*
X051143Y029235D01*
X051183D01*
X051143Y029275D01*
X051183Y029315D01*
X051143D01*
X051103Y029355D01*
X051063Y029315D01*
X051023D01*
X051063Y029275D01*
X051023Y029235D01*
X051063D01*
X051103Y029195D01*
X051122Y029628D02*
X051162Y029668D01*
X051202D01*
X051162Y029708D01*
X051202Y029748D01*
X051162D01*
X051122Y029788D01*
X051082Y029748D01*
X051042D01*
X051082Y029708D01*
X051042Y029668D01*
X051082D01*
X051122Y029628D01*
X052658Y029195D02*
X052698Y029235D01*
X052738D01*
X052698Y029275D01*
X052738Y029315D01*
X052698D01*
X052658Y029355D01*
X052618Y029315D01*
X052578D01*
X052618Y029275D01*
X052578Y029235D01*
X052618D01*
X052658Y029195D01*
X050492Y030061D02*
X050532Y030101D01*
X050572D01*
X050532Y030141D01*
X050572Y030181D01*
X050532D01*
X050492Y030221D01*
X050452Y030181D01*
X050412D01*
X050452Y030141D01*
X050412Y030101D01*
X050452D01*
X050492Y030061D01*
Y030494D02*
X050532Y030534D01*
X050572D01*
X050532Y030574D01*
X050572Y030614D01*
X050532D01*
X050492Y030654D01*
X050452Y030614D01*
X050412D01*
X050452Y030574D01*
X050412Y030534D01*
X050452D01*
X050492Y030494D01*
X050778Y036782D02*
X050818Y036822D01*
X050858D01*
X050818Y036862D01*
X050858Y036902D01*
X050818D01*
X050778Y036942D01*
X050738Y036902D01*
X050698D01*
X050738Y036862D01*
X050698Y036822D01*
X050738D01*
X050778Y036782D01*
X042461Y031084D02*
X042501Y031124D01*
X042541D01*
X042501Y031164D01*
X042541Y031204D01*
X042501D01*
X042461Y031244D01*
X042421Y031204D01*
X042381D01*
X042421Y031164D01*
X042381Y031124D01*
X042421D01*
X042461Y031084D01*
X040689Y033171D02*
X040729Y033211D01*
X040769D01*
X040729Y033251D01*
X040769Y033291D01*
X040729D01*
X040689Y033331D01*
X040649Y033291D01*
X040609D01*
X040649Y033251D01*
X040609Y033211D01*
X040649D01*
X040689Y033171D01*
Y031084D02*
X040729Y031124D01*
X040769D01*
X040729Y031164D01*
X040769Y031204D01*
X040729D01*
X040689Y031244D01*
X040649Y031204D01*
X040609D01*
X040649Y031164D01*
X040609Y031124D01*
X040649D01*
X040689Y031084D01*
Y030533D02*
X040729Y030573D01*
X040769D01*
X040729Y030613D01*
X040769Y030653D01*
X040729D01*
X040689Y030693D01*
X040649Y030653D01*
X040609D01*
X040649Y030613D01*
X040609Y030573D01*
X040649D01*
X040689Y030533D01*
Y033643D02*
X040729Y033683D01*
X040769D01*
X040729Y033723D01*
X040769Y033763D01*
X040729D01*
X040689Y033803D01*
X040649Y033763D01*
X040609D01*
X040649Y033723D01*
X040609Y033683D01*
X040649D01*
X040689Y033643D01*
X052275Y026215D02*
X052315Y026295D01*
X052275Y026375D01*
X052355Y026335D01*
X052435Y026375D01*
X052395Y026295D01*
X052435Y026215D01*
X052355Y026255D01*
X052275Y026215D01*
X044418Y033378D02*
X044458Y033458D01*
X044418Y033538D01*
X044498Y033498D01*
X044578Y033538D01*
X044538Y033458D01*
X044578Y033378D01*
X044498Y033418D01*
X044418Y033378D01*
X043366Y023643D02*
X043406Y023683D01*
X043446D01*
X043406Y023723D01*
X043446Y023763D01*
X043406D01*
X043366Y023803D01*
X043326Y023763D01*
X043286D01*
X043326Y023723D01*
X043286Y023683D01*
X043326D01*
X043366Y023643D01*
X042697D02*
X042737Y023683D01*
X042777D01*
X042737Y023723D01*
X042777Y023763D01*
X042737D01*
X042697Y023803D01*
X042657Y023763D01*
X042617D01*
X042657Y023723D01*
X042617Y023683D01*
X042657D01*
X042697Y023643D01*
X043917Y032344D02*
X043957Y032384D01*
X043997D01*
X043957Y032424D01*
X043997Y032464D01*
X043957D01*
X043917Y032504D01*
X043877Y032464D01*
X043837D01*
X043877Y032424D01*
X043837Y032384D01*
X043877D01*
X043917Y032344D01*
X039989Y028702D02*
X040029Y028782D01*
X039989Y028862D01*
X040069Y028822D01*
X040149Y028862D01*
X040109Y028782D01*
X040149Y028702D01*
X040069Y028742D01*
X039989Y028702D01*
X039969Y027945D02*
X040009Y028025D01*
X039969Y028105D01*
X040049Y028065D01*
X040129Y028105D01*
X040089Y028025D01*
X040129Y027945D01*
X040049Y027985D01*
X039969Y027945D01*
X047733Y026215D02*
X047773Y026295D01*
X047733Y026375D01*
X047813Y026335D01*
X047893Y026375D01*
X047853Y026295D01*
X047893Y026215D01*
X047813Y026255D01*
X047733Y026215D01*
X042263Y028092D02*
X042303Y028172D01*
X042263Y028252D01*
X042343Y028212D01*
X042423Y028252D01*
X042383Y028172D01*
X042423Y028092D01*
X042343Y028132D01*
X042263Y028092D01*
X042658Y026045D02*
X042698Y026085D01*
X042738D01*
X042698Y026125D01*
X042738Y026165D01*
X042698D01*
X042658Y026205D01*
X042618Y026165D01*
X042578D01*
X042618Y026125D01*
X042578Y026085D01*
X042618D01*
X042658Y026045D01*
Y026478D02*
X042698Y026518D01*
X042738D01*
X042698Y026558D01*
X042738Y026598D01*
X042698D01*
X042658Y026638D01*
X042618Y026598D01*
X042578D01*
X042618Y026558D01*
X042578Y026518D01*
X042618D01*
X042658Y026478D01*
X041811Y027019D02*
X041851Y027099D01*
X041811Y027179D01*
X041891Y027139D01*
X041971Y027179D01*
X041931Y027099D01*
X041971Y027019D01*
X041891Y027059D01*
X041811Y027019D01*
X044694Y026714D02*
X044734Y026794D01*
X044694Y026874D01*
X044774Y026834D01*
X044854Y026874D01*
X044814Y026794D01*
X044854Y026714D01*
X044774Y026754D01*
X044694Y026714D01*
X051859Y0276D02*
X051899Y02768D01*
X051859Y02776D01*
X051939Y02772D01*
X052019Y02776D01*
X051979Y02768D01*
X052019Y0276D01*
X051939Y02764D01*
X051859Y0276D01*
X048168Y02759D02*
X048208Y02767D01*
X048168Y02775D01*
X048248Y02771D01*
X048328Y02775D01*
X048288Y02767D01*
X048328Y02759D01*
X048248Y02763D01*
X048168Y02759D01*
X051837Y024847D02*
X051877Y024927D01*
X051837Y025007D01*
X051917Y024967D01*
X051997Y025007D01*
X051957Y024927D01*
X051997Y024847D01*
X051917Y024887D01*
X051837Y024847D01*
X048187Y024826D02*
X048227Y024906D01*
X048187Y024986D01*
X048267Y024946D01*
X048347Y024986D01*
X048307Y024906D01*
X048347Y024826D01*
X048267Y024866D01*
X048187Y024826D01*
X044704Y027423D02*
X044744Y027503D01*
X044704Y027583D01*
X044784Y027543D01*
X044864Y027583D01*
X044824Y027503D01*
X044864Y027423D01*
X044784Y027463D01*
X044704Y027423D01*
X041908Y025179D02*
X041948Y025259D01*
X041908Y025339D01*
X041988Y025299D01*
X042068Y025339D01*
X042028Y025259D01*
X042068Y025179D01*
X041988Y025219D01*
X041908Y025179D01*
X043286Y025494D02*
X043326Y025574D01*
X043286Y025654D01*
X043366Y025614D01*
X043446Y025654D01*
X043406Y025574D01*
X043446Y025494D01*
X043366Y025534D01*
X043286Y025494D01*
X043303Y036894D02*
X043343Y036974D01*
X043303Y037054D01*
X043383Y037014D01*
X043463Y037054D01*
X043423Y036974D01*
X043463Y036894D01*
X043383Y036934D01*
X043303Y036894D01*
X045589Y031183D02*
X045629Y031263D01*
X045589Y031343D01*
X045669Y031303D01*
X045749Y031343D01*
X045709Y031263D01*
X045749Y031183D01*
X045669Y031223D01*
X045589Y031183D01*
X043326Y033643D02*
X043366Y033723D01*
X043326Y033803D01*
X043406Y033763D01*
X043486Y033803D01*
X043446Y033723D01*
X043486Y033643D01*
X043406Y033683D01*
X043326Y033643D01*
X043406Y032147D02*
X043446Y032187D01*
X043486D01*
X043446Y032227D01*
X043486Y032267D01*
X043446D01*
X043406Y032307D01*
X043366Y032267D01*
X043326D01*
X043366Y032227D01*
X043326Y032187D01*
X043366D01*
X043406Y032147D01*
X043917Y03192D02*
X043957Y03196D01*
X043997D01*
X043957Y032D01*
X043997Y03204D01*
X043957D01*
X043917Y03208D01*
X043877Y03204D01*
X043837D01*
X043877Y032D01*
X043837Y03196D01*
X043877D01*
X043917Y03192D01*
X041689Y03902D02*
X041729Y0391D01*
X041689Y03918D01*
X041769Y03914D01*
X041849Y03918D01*
X041809Y0391D01*
X041849Y03902D01*
X041769Y03906D01*
X041689Y03902D01*
X044917Y037635D02*
X044957Y037675D01*
X044997D01*
X044957Y037715D01*
X044997Y037755D01*
X044957D01*
X044917Y037795D01*
X044877Y037755D01*
X044837D01*
X044877Y037715D01*
X044837Y037675D01*
X044877D01*
X044917Y037635D01*
X049979Y038525D02*
X050019Y038605D01*
X049979Y038685D01*
X050059Y038645D01*
X050139Y038685D01*
X050099Y038605D01*
X050139Y038525D01*
X050059Y038565D01*
X049979Y038525D01*
X048799Y037856D02*
X048839Y037896D01*
X048879D01*
X048839Y037936D01*
X048879Y037976D01*
X048839D01*
X048799Y038016D01*
X048759Y037976D01*
X048719D01*
X048759Y037936D01*
X048719Y037896D01*
X048759D01*
X048799Y037856D01*
X046869Y038565D02*
X046909Y038645D01*
X046869Y038725D01*
X046949Y038685D01*
X047029Y038725D01*
X046989Y038645D01*
X047029Y038565D01*
X046949Y038605D01*
X046869Y038565D01*
X042814Y038447D02*
X042854Y038527D01*
X042814Y038607D01*
X042894Y038567D01*
X042974Y038607D01*
X042934Y038527D01*
X042974Y038447D01*
X042894Y038487D01*
X042814Y038447D01*
X045532Y033801D02*
X045572Y033841D01*
X045612D01*
X045572Y033881D01*
X045612Y033921D01*
X045572D01*
X045532Y033961D01*
X045492Y033921D01*
X045452D01*
X045492Y033881D01*
X045452Y033841D01*
X045492D01*
X045532Y033801D01*
X044841Y038486D02*
X044881Y038566D01*
X044841Y038646D01*
X044921Y038606D01*
X045001Y038646D01*
X044961Y038566D01*
X045001Y038486D01*
X044921Y038526D01*
X044841Y038486D01*
X043917Y034076D02*
X043957Y034116D01*
X043997D01*
X043957Y034156D01*
X043997Y034196D01*
X043957D01*
X043917Y034236D01*
X043877Y034196D01*
X043837D01*
X043877Y034156D01*
X043837Y034116D01*
X043877D01*
X043917Y034076D01*
X043996Y036202D02*
X044036Y036242D01*
X044076D01*
X044036Y036282D01*
X044076Y036322D01*
X044036D01*
X043996Y036362D01*
X043956Y036322D01*
X043916D01*
X043956Y036282D01*
X043916Y036242D01*
X043956D01*
X043996Y036202D01*
Y035218D02*
X044036Y035258D01*
X044076D01*
X044036Y035298D01*
X044076Y035338D01*
X044036D01*
X043996Y035378D01*
X043956Y035338D01*
X043916D01*
X043956Y035298D01*
X043916Y035258D01*
X043956D01*
X043996Y035218D01*
X046748Y034674D02*
X046789D01*
X046828Y034714D01*
X046869Y034674D01*
X046908D01*
Y034714D01*
X046869Y034754D01*
X046908Y034794D01*
Y034834D01*
X046869D01*
X046828Y034794D01*
X046789Y034834D01*
X046748D01*
Y034794D01*
X046789Y034754D01*
X046748Y034714D01*
Y034674D01*
Y035147D02*
X046789D01*
X046828Y035187D01*
X046869Y035147D01*
X046908D01*
Y035187D01*
X046869Y035227D01*
X046908Y035267D01*
Y035307D01*
X046869D01*
X046828Y035267D01*
X046789Y035307D01*
X046748D01*
Y035267D01*
X046789Y035227D01*
X046748Y035187D01*
Y035147D01*
X047221Y035147D02*
X047261D01*
X047301Y035187D01*
X047341Y035147D01*
X047381D01*
Y035187D01*
X047341Y035227D01*
X047381Y035267D01*
Y035307D01*
X047341D01*
X047301Y035267D01*
X047261Y035307D01*
X047221D01*
Y035267D01*
X047261Y035227D01*
X047221Y035187D01*
Y035147D01*
Y034674D02*
X047261D01*
X047301Y034714D01*
X047341Y034674D01*
X047381D01*
Y034714D01*
X047341Y034754D01*
X047381Y034794D01*
Y034834D01*
X047341D01*
X047301Y034794D01*
X047261Y034834D01*
X047221D01*
Y034794D01*
X047261Y034754D01*
X047221Y034714D01*
Y034674D01*
D86*
X051935Y023792D02*
G03*
X051935Y023792I-00008J0D01*
G01*
X048521D02*
G03*
X048521Y023792I-00008J0D01*
G01*
X051935D02*
G03*
X051935Y023792I-00008J0D01*
G01*
Y022296D02*
G03*
X051935Y022296I-00008J0D01*
G01*
X048521D02*
G03*
X048521Y022296I-00008J0D01*
G01*
M02*
