G04*
G04 #@! TF.GenerationSoftware,Altium Limited,Altium Designer,22.4.2 (48)*
G04*
G04 Layer_Color=8388736*
%FSTAX24Y24*%
%MOIN*%
G70*
G04*
G04 #@! TF.SameCoordinates,36F0A17D-9E63-4542-9A5D-60F15C5BBE16*
G04*
G04*
G04 #@! TF.FilePolarity,Negative*
G04*
G01*
G75*
G04:AMPARAMS|DCode=39|XSize=40.9mil|YSize=52.8mil|CornerRadius=4.5mil|HoleSize=0mil|Usage=FLASHONLY|Rotation=180.000|XOffset=0mil|YOffset=0mil|HoleType=Round|Shape=RoundedRectangle|*
%AMROUNDEDRECTD39*
21,1,0.0409,0.0437,0,0,180.0*
21,1,0.0319,0.0528,0,0,180.0*
1,1,0.0091,-0.0159,0.0219*
1,1,0.0091,0.0159,0.0219*
1,1,0.0091,0.0159,-0.0219*
1,1,0.0091,-0.0159,-0.0219*
%
%ADD39ROUNDEDRECTD39*%
%ADD40R,0.0630X0.0474*%
%ADD41R,0.0434X0.0316*%
%ADD42R,0.0395X0.0552*%
%ADD43R,0.2049X0.2049*%
%ADD44R,0.0867X0.0434*%
%ADD45R,0.0434X0.0867*%
%ADD46R,0.0277X0.0966*%
%ADD47R,0.0867X0.1064*%
%ADD48R,0.0474X0.0630*%
G04:AMPARAMS|DCode=49|XSize=143.3mil|YSize=143.3mil|CornerRadius=6.2mil|HoleSize=0mil|Usage=FLASHONLY|Rotation=0.000|XOffset=0mil|YOffset=0mil|HoleType=Round|Shape=RoundedRectangle|*
%AMROUNDEDRECTD49*
21,1,0.1433,0.1309,0,0,0.0*
21,1,0.1309,0.1433,0,0,0.0*
1,1,0.0124,0.0655,-0.0655*
1,1,0.0124,-0.0655,-0.0655*
1,1,0.0124,-0.0655,0.0655*
1,1,0.0124,0.0655,0.0655*
%
%ADD49ROUNDEDRECTD49*%
G04:AMPARAMS|DCode=50|XSize=14.2mil|YSize=29.1mil|CornerRadius=3mil|HoleSize=0mil|Usage=FLASHONLY|Rotation=90.000|XOffset=0mil|YOffset=0mil|HoleType=Round|Shape=RoundedRectangle|*
%AMROUNDEDRECTD50*
21,1,0.0142,0.0232,0,0,90.0*
21,1,0.0082,0.0291,0,0,90.0*
1,1,0.0059,0.0116,0.0041*
1,1,0.0059,0.0116,-0.0041*
1,1,0.0059,-0.0116,-0.0041*
1,1,0.0059,-0.0116,0.0041*
%
%ADD50ROUNDEDRECTD50*%
G04:AMPARAMS|DCode=51|XSize=14.2mil|YSize=29.1mil|CornerRadius=3mil|HoleSize=0mil|Usage=FLASHONLY|Rotation=0.000|XOffset=0mil|YOffset=0mil|HoleType=Round|Shape=RoundedRectangle|*
%AMROUNDEDRECTD51*
21,1,0.0142,0.0232,0,0,0.0*
21,1,0.0082,0.0291,0,0,0.0*
1,1,0.0059,0.0041,-0.0116*
1,1,0.0059,-0.0041,-0.0116*
1,1,0.0059,-0.0041,0.0116*
1,1,0.0059,0.0041,0.0116*
%
%ADD51ROUNDEDRECTD51*%
G04:AMPARAMS|DCode=52|XSize=85.6mil|YSize=32.4mil|CornerRadius=7.1mil|HoleSize=0mil|Usage=FLASHONLY|Rotation=90.000|XOffset=0mil|YOffset=0mil|HoleType=Round|Shape=RoundedRectangle|*
%AMROUNDEDRECTD52*
21,1,0.0856,0.0183,0,0,90.0*
21,1,0.0715,0.0324,0,0,90.0*
1,1,0.0141,0.0092,0.0357*
1,1,0.0141,0.0092,-0.0357*
1,1,0.0141,-0.0092,-0.0357*
1,1,0.0141,-0.0092,0.0357*
%
%ADD52ROUNDEDRECTD52*%
G04:AMPARAMS|DCode=53|XSize=85.6mil|YSize=132.4mil|CornerRadius=13.7mil|HoleSize=0mil|Usage=FLASHONLY|Rotation=90.000|XOffset=0mil|YOffset=0mil|HoleType=Round|Shape=RoundedRectangle|*
%AMROUNDEDRECTD53*
21,1,0.0856,0.1050,0,0,90.0*
21,1,0.0582,0.1324,0,0,90.0*
1,1,0.0274,0.0525,0.0291*
1,1,0.0274,0.0525,-0.0291*
1,1,0.0274,-0.0525,-0.0291*
1,1,0.0274,-0.0525,0.0291*
%
%ADD53ROUNDEDRECTD53*%
%ADD54R,0.0316X0.0434*%
%ADD55O,0.0611X0.0218*%
G04:AMPARAMS|DCode=56|XSize=24mil|YSize=29.1mil|CornerRadius=3.7mil|HoleSize=0mil|Usage=FLASHONLY|Rotation=180.000|XOffset=0mil|YOffset=0mil|HoleType=Round|Shape=RoundedRectangle|*
%AMROUNDEDRECTD56*
21,1,0.0240,0.0218,0,0,180.0*
21,1,0.0167,0.0291,0,0,180.0*
1,1,0.0074,-0.0083,0.0109*
1,1,0.0074,0.0083,0.0109*
1,1,0.0074,0.0083,-0.0109*
1,1,0.0074,-0.0083,-0.0109*
%
%ADD56ROUNDEDRECTD56*%
%ADD57R,0.0277X0.0277*%
G04:AMPARAMS|DCode=58|XSize=52.8mil|YSize=151.2mil|CornerRadius=5.1mil|HoleSize=0mil|Usage=FLASHONLY|Rotation=90.000|XOffset=0mil|YOffset=0mil|HoleType=Round|Shape=RoundedRectangle|*
%AMROUNDEDRECTD58*
21,1,0.0528,0.1409,0,0,90.0*
21,1,0.0425,0.1512,0,0,90.0*
1,1,0.0102,0.0705,0.0213*
1,1,0.0102,0.0705,-0.0213*
1,1,0.0102,-0.0705,-0.0213*
1,1,0.0102,-0.0705,0.0213*
%
%ADD58ROUNDEDRECTD58*%
%ADD59R,0.0592X0.0513*%
%ADD60C,0.0671*%
%ADD61R,0.0671X0.0671*%
%ADD62C,0.0646*%
%ADD63C,0.1433*%
%ADD64C,0.0395*%
%ADD65C,0.0552*%
%ADD66C,0.0291*%
D39*
X049071Y023792D02*
D03*
X049504D02*
D03*
X049937D02*
D03*
X05037D02*
D03*
X050804D02*
D03*
X051237D02*
D03*
D40*
X05311Y023521D02*
D03*
Y024421D02*
D03*
X039272Y023549D02*
D03*
X041162Y0391D02*
D03*
Y04D02*
D03*
X039272Y024449D02*
D03*
D41*
X053799Y023757D02*
D03*
X053799Y024472D02*
D03*
X064437Y029967D02*
D03*
X064437Y030682D02*
D03*
X06237Y040406D02*
D03*
X06237Y039691D02*
D03*
X053728Y040406D02*
D03*
X053728Y039691D02*
D03*
X064437Y031207D02*
D03*
X064437Y031922D02*
D03*
X063846Y031198D02*
D03*
X063846Y031913D02*
D03*
X057154Y039691D02*
D03*
X057154Y040406D02*
D03*
X039931Y023737D02*
D03*
X051949Y027277D02*
D03*
X051949Y026562D02*
D03*
X048248D02*
D03*
X048248Y027277D02*
D03*
X048267Y025312D02*
D03*
X048267Y026027D02*
D03*
X051917Y025312D02*
D03*
X051917Y026027D02*
D03*
X044311Y026784D02*
D03*
X044311Y027499D02*
D03*
X039931Y024452D02*
D03*
X050374Y036862D02*
D03*
X050374Y037577D02*
D03*
X049744Y036862D02*
D03*
X049744Y037577D02*
D03*
X045315Y037D02*
D03*
X045315Y037715D02*
D03*
X048799Y037617D02*
D03*
X048799Y036902D02*
D03*
D42*
X063768Y038664D02*
D03*
Y04142D02*
D03*
X058492Y038664D02*
D03*
Y04142D02*
D03*
X055099Y038664D02*
D03*
Y04142D02*
D03*
D43*
X058829Y033129D02*
D03*
D44*
X055089Y030176D02*
D03*
Y030676D02*
D03*
Y031176D02*
D03*
Y031676D02*
D03*
Y032176D02*
D03*
Y032676D02*
D03*
Y033176D02*
D03*
Y033676D02*
D03*
Y034176D02*
D03*
Y034676D02*
D03*
Y035176D02*
D03*
Y035676D02*
D03*
Y036176D02*
D03*
Y036676D02*
D03*
X061782D02*
D03*
Y036176D02*
D03*
Y035676D02*
D03*
Y035176D02*
D03*
Y034676D02*
D03*
Y034176D02*
D03*
Y033676D02*
D03*
Y033176D02*
D03*
Y032676D02*
D03*
Y032176D02*
D03*
Y031676D02*
D03*
Y031176D02*
D03*
Y030676D02*
D03*
Y030176D02*
D03*
D45*
X056185Y03707D02*
D03*
X056685D02*
D03*
X057185D02*
D03*
X057685D02*
D03*
X058185D02*
D03*
X058685D02*
D03*
X059185D02*
D03*
X059685D02*
D03*
X060185D02*
D03*
X060685D02*
D03*
D46*
X043622Y024452D02*
D03*
X043312Y024447D02*
D03*
X043002Y024442D02*
D03*
X042692Y024437D02*
D03*
X042382Y024432D02*
D03*
D47*
X044774Y024312D02*
D03*
X044772Y022052D02*
D03*
X041229D02*
D03*
X04123Y024312D02*
D03*
D48*
X046689Y028505D02*
D03*
X046689Y027705D02*
D03*
X045789D02*
D03*
X045789Y028505D02*
D03*
D49*
X047065Y034991D02*
D03*
D50*
X045923Y035877D02*
D03*
Y03568D02*
D03*
Y035483D02*
D03*
Y035286D02*
D03*
Y035089D02*
D03*
Y034892D02*
D03*
Y034695D02*
D03*
Y034499D02*
D03*
Y034302D02*
D03*
Y034105D02*
D03*
X048206D02*
D03*
Y034302D02*
D03*
Y034499D02*
D03*
Y034695D02*
D03*
Y034892D02*
D03*
Y035089D02*
D03*
Y035286D02*
D03*
Y035483D02*
D03*
Y03568D02*
D03*
Y035877D02*
D03*
D51*
X046179Y033849D02*
D03*
X046376D02*
D03*
X046573D02*
D03*
X046769D02*
D03*
X046966D02*
D03*
X047163D02*
D03*
X04736D02*
D03*
X047557D02*
D03*
X047754D02*
D03*
X047951D02*
D03*
Y036132D02*
D03*
X047754D02*
D03*
X047557D02*
D03*
X04736D02*
D03*
X047163D02*
D03*
X046966D02*
D03*
X046769D02*
D03*
X046573D02*
D03*
X046376D02*
D03*
X046179D02*
D03*
D52*
X049099Y025532D02*
D03*
X049599D02*
D03*
X050099D02*
D03*
X050599D02*
D03*
X051099D02*
D03*
D53*
X050099Y027899D02*
D03*
D54*
X042504Y035495D02*
D03*
X043219Y035495D02*
D03*
X042504Y036046D02*
D03*
X043219Y036046D02*
D03*
X048298Y037621D02*
D03*
X047583Y037621D02*
D03*
X04934Y041243D02*
D03*
X050055Y041243D02*
D03*
X048023Y041243D02*
D03*
X047308Y041243D02*
D03*
X041802Y041204D02*
D03*
X041087Y041204D02*
D03*
X048298Y036912D02*
D03*
X047583Y036912D02*
D03*
X05151Y029218D02*
D03*
X052225Y029218D02*
D03*
X05151Y029768D02*
D03*
X052225Y029768D02*
D03*
X047189Y032936D02*
D03*
X047904Y032936D02*
D03*
X045055Y036282D02*
D03*
X04434Y036282D02*
D03*
X045055Y035298D02*
D03*
X04434Y035298D02*
D03*
X045055Y033999D02*
D03*
X04434Y033999D02*
D03*
X044709Y041243D02*
D03*
X045424Y041243D02*
D03*
X045055Y034747D02*
D03*
X04434Y034747D02*
D03*
D55*
X043465Y028025D02*
D03*
Y02828D02*
D03*
X040748Y02956D02*
D03*
Y029304D02*
D03*
Y029048D02*
D03*
Y028792D02*
D03*
Y028536D02*
D03*
Y02828D02*
D03*
Y028025D02*
D03*
Y027769D02*
D03*
Y027513D02*
D03*
Y027257D02*
D03*
Y027001D02*
D03*
Y026745D02*
D03*
Y026489D02*
D03*
Y026233D02*
D03*
X043465Y02956D02*
D03*
Y029304D02*
D03*
Y029048D02*
D03*
Y028792D02*
D03*
Y028536D02*
D03*
Y027769D02*
D03*
Y027513D02*
D03*
Y027257D02*
D03*
Y027001D02*
D03*
Y026745D02*
D03*
Y026489D02*
D03*
Y026233D02*
D03*
D56*
X04502Y032011D02*
D03*
X045276Y031263D02*
D03*
X044764D02*
D03*
X04502Y032404D02*
D03*
X044764Y033153D02*
D03*
X045276D02*
D03*
D57*
X045492Y025377D02*
D03*
X046358D02*
D03*
D58*
X043438Y0402D02*
D03*
Y039098D02*
D03*
X045453Y0402D02*
D03*
Y039098D02*
D03*
X047461Y0402D02*
D03*
Y039098D02*
D03*
X049482Y0402D02*
D03*
Y039098D02*
D03*
D59*
X046103Y036912D02*
D03*
X047008D02*
D03*
Y037621D02*
D03*
X046103D02*
D03*
D60*
X061197Y023989D02*
D03*
Y022989D02*
D03*
X060197Y023989D02*
D03*
Y022989D02*
D03*
X059197Y023989D02*
D03*
Y022989D02*
D03*
X058197Y023989D02*
D03*
Y022989D02*
D03*
X057197Y023989D02*
D03*
Y022989D02*
D03*
X056197Y023989D02*
D03*
X036128Y038396D02*
D03*
X035128D02*
D03*
X034128D02*
D03*
X033128D02*
D03*
X036124Y025916D02*
D03*
X035124D02*
D03*
X034124D02*
D03*
X033124D02*
D03*
D61*
X056197Y022989D02*
D03*
X037128Y038396D02*
D03*
X037124Y025916D02*
D03*
D62*
X051855Y023792D02*
D03*
X048441D02*
D03*
X051855D02*
D03*
Y022296D02*
D03*
X048441D02*
D03*
D63*
X065047Y042478D02*
D03*
Y022129D02*
D03*
X030992Y042472D02*
D03*
Y022104D02*
D03*
D64*
X064567Y037795D02*
D03*
Y028346D02*
D03*
X065354Y026772D02*
D03*
X064567Y025197D02*
D03*
X065354Y023622D02*
D03*
X062992Y040945D02*
D03*
Y025197D02*
D03*
X06378Y023622D02*
D03*
X062992Y022047D02*
D03*
X061417Y040945D02*
D03*
Y025197D02*
D03*
X062205Y023622D02*
D03*
X061417Y022047D02*
D03*
X059843Y040945D02*
D03*
Y037795D02*
D03*
X06063Y033071D02*
D03*
X059843Y031496D02*
D03*
Y025197D02*
D03*
X06063Y023622D02*
D03*
X059843Y022047D02*
D03*
X059055Y03937D02*
D03*
X058268Y037795D02*
D03*
X059055Y03622D02*
D03*
X058268Y034646D02*
D03*
Y031496D02*
D03*
Y025197D02*
D03*
Y022047D02*
D03*
X056693Y040945D02*
D03*
Y037795D02*
D03*
X05748Y03622D02*
D03*
X056693Y034646D02*
D03*
X05748Y033071D02*
D03*
X056693Y031496D02*
D03*
Y025197D02*
D03*
Y022047D02*
D03*
X055906Y03937D02*
D03*
Y03622D02*
D03*
Y033071D02*
D03*
X055118Y025197D02*
D03*
Y022047D02*
D03*
X053543Y037795D02*
D03*
X054331Y023622D02*
D03*
X053543Y022047D02*
D03*
X051968Y040945D02*
D03*
X052756Y03937D02*
D03*
X051968Y037795D02*
D03*
Y034646D02*
D03*
X050394Y022047D02*
D03*
X049606Y026772D02*
D03*
X047244Y022047D02*
D03*
X046457Y026772D02*
D03*
Y023622D02*
D03*
X045669Y022047D02*
D03*
X040945Y037795D02*
D03*
X041732Y029921D02*
D03*
X03937Y040945D02*
D03*
Y037795D02*
D03*
X040157Y029921D02*
D03*
X03937Y022047D02*
D03*
X037795Y040945D02*
D03*
Y031496D02*
D03*
X038583Y029921D02*
D03*
X037795Y028346D02*
D03*
X038583Y026772D02*
D03*
X037795Y025197D02*
D03*
X038583Y023622D02*
D03*
X037795Y022047D02*
D03*
X03622Y040945D02*
D03*
X037008Y03937D02*
D03*
Y03622D02*
D03*
Y033071D02*
D03*
X03622Y031496D02*
D03*
X037008Y026772D02*
D03*
X03622Y025197D02*
D03*
X037008Y023622D02*
D03*
X03622Y022047D02*
D03*
X034646Y040945D02*
D03*
X035433Y03937D02*
D03*
X034646Y037795D02*
D03*
Y031496D02*
D03*
Y028346D02*
D03*
Y025197D02*
D03*
X035433Y023622D02*
D03*
X034646Y022047D02*
D03*
X033071Y040945D02*
D03*
Y037795D02*
D03*
X033858Y03622D02*
D03*
X033071Y034646D02*
D03*
X033858Y033071D02*
D03*
X033071Y031496D02*
D03*
X033858Y029921D02*
D03*
X033071Y028346D02*
D03*
Y025197D02*
D03*
X033858Y023622D02*
D03*
X033071Y022047D02*
D03*
X031496Y040945D02*
D03*
X032283Y03937D02*
D03*
X031496Y037795D02*
D03*
X032283Y03622D02*
D03*
X031496Y034646D02*
D03*
X032283Y033071D02*
D03*
X031496Y031496D02*
D03*
X032283Y029921D02*
D03*
X031496Y028346D02*
D03*
X032283Y026772D02*
D03*
X031496Y025197D02*
D03*
X032283Y023622D02*
D03*
X050657Y034741D02*
D03*
X047914Y032464D02*
D03*
X062528Y035667D02*
D03*
Y035115D02*
D03*
X063768Y040785D02*
D03*
X058492Y04077D02*
D03*
X063748Y039269D02*
D03*
X0625Y034156D02*
D03*
X062492Y033676D02*
D03*
X055099Y039196D02*
D03*
X054311Y034196D02*
D03*
X054351Y031696D02*
D03*
X053906Y032163D02*
D03*
X055079Y040771D02*
D03*
X058502Y039195D02*
D03*
X051583Y031533D02*
D03*
X050697Y033659D02*
D03*
X050687Y032491D02*
D03*
Y03421D02*
D03*
X050672Y031513D02*
D03*
Y031985D02*
D03*
X050687Y035863D02*
D03*
Y035312D02*
D03*
X039193Y033015D02*
D03*
Y033444D02*
D03*
X0425Y035141D02*
D03*
Y036401D02*
D03*
X04191Y032475D02*
D03*
Y03206D02*
D03*
X046639Y028954D02*
D03*
X046634Y027267D02*
D03*
X052658Y029708D02*
D03*
X04876Y033369D02*
D03*
X044016Y037011D02*
D03*
X050099Y027877D02*
D03*
X050122Y025588D02*
D03*
X042461Y030613D02*
D03*
X051103Y029275D02*
D03*
X051122Y029708D02*
D03*
X052658Y029275D02*
D03*
X050492Y030141D02*
D03*
Y030574D02*
D03*
X050778Y036862D02*
D03*
X042461Y031164D02*
D03*
X040689Y033251D02*
D03*
Y031164D02*
D03*
Y030613D02*
D03*
Y033723D02*
D03*
X043366Y023723D02*
D03*
X042697D02*
D03*
X043917Y032424D02*
D03*
X042658Y026125D02*
D03*
Y026558D02*
D03*
X043406Y032227D02*
D03*
X043917Y032D02*
D03*
X044917Y037715D02*
D03*
X048799Y037936D02*
D03*
X045532Y033881D02*
D03*
X043917Y034156D02*
D03*
X043996Y036282D02*
D03*
Y035298D02*
D03*
D65*
X063906Y029899D02*
D03*
X06235Y042478D02*
D03*
X064181Y032418D02*
D03*
X064142Y033403D02*
D03*
X063866Y030706D02*
D03*
X042136Y023296D02*
D03*
X043868D02*
D03*
X035126Y034643D02*
D03*
X040638Y034682D02*
D03*
X045669Y033153D02*
D03*
X050906Y039058D02*
D03*
X042815Y034373D02*
D03*
X044429Y031125D02*
D03*
X048642Y041164D02*
D03*
X052355Y026295D02*
D03*
X044498Y033458D02*
D03*
X040069Y028782D02*
D03*
X040049Y028025D02*
D03*
X047813Y026295D02*
D03*
X042343Y028172D02*
D03*
X041891Y027099D02*
D03*
X044774Y026794D02*
D03*
X051939Y02768D02*
D03*
X048248Y02767D02*
D03*
X051917Y024927D02*
D03*
X048267Y024906D02*
D03*
X044784Y027503D02*
D03*
X041988Y025259D02*
D03*
X043366Y025574D02*
D03*
X043383Y036974D02*
D03*
X045669Y031263D02*
D03*
X043406Y033723D02*
D03*
X041769Y0391D02*
D03*
X050059Y038605D02*
D03*
X046949Y038645D02*
D03*
X042894Y038527D02*
D03*
X044921Y038566D02*
D03*
D66*
X046828Y034754D02*
D03*
Y035227D02*
D03*
X047301Y035227D02*
D03*
Y034754D02*
D03*
M02*
