G04*
G04 #@! TF.GenerationSoftware,Altium Limited,Altium Designer,22.4.2 (48)*
G04*
G04 Layer_Color=32896*
%FSTAX24Y24*%
%MOIN*%
G70*
G04*
G04 #@! TF.SameCoordinates,36F0A17D-9E63-4542-9A5D-60F15C5BBE16*
G04*
G04*
G04 #@! TF.FilePolarity,Positive*
G04*
G01*
G75*
%ADD10C,0.0079*%
%ADD11C,0.0100*%
%ADD15C,0.0050*%
%ADD17C,0.0039*%
D10*
X048823Y02817D02*
G03*
X048823Y02817I-000039J0D01*
G01*
X04109Y031616D02*
G03*
X04109Y031616I-000039J0D01*
G01*
X041742Y034491D02*
X042589D01*
Y035003D01*
X041742D02*
X042589D01*
X041742Y034491D02*
Y035003D01*
Y03709D02*
X042589D01*
X041742Y036578D02*
Y03709D01*
Y036578D02*
X042589D01*
Y03709D01*
X064404Y040232D02*
X064348Y040288D01*
Y040399D01*
X064404Y040455D01*
X064627D01*
X064683Y040399D01*
Y040288D01*
X064627Y040232D01*
X064683Y04012D02*
Y040009D01*
Y040064D01*
X064348D01*
X064404Y04012D01*
X064683Y039674D02*
X064348D01*
X064516Y039841D01*
Y039618D01*
X042933Y03329D02*
Y033011D01*
X042877Y032956D01*
X042766D01*
X04271Y033011D01*
Y03329D01*
X042599Y032956D02*
X042487D01*
X042543D01*
Y03329D01*
X042599Y033234D01*
X046673Y026991D02*
Y027326D01*
X046506D01*
X04645Y02727D01*
Y027158D01*
X046506Y027103D01*
X046673D01*
X046562D02*
X04645Y026991D01*
X046339D02*
X046227D01*
X046283D01*
Y027326D01*
X046339Y02727D01*
X045837Y027326D02*
X04606D01*
Y027158D01*
X045949Y027214D01*
X045893D01*
X045837Y027158D01*
Y027047D01*
X045893Y026991D01*
X046004D01*
X04606Y027047D01*
X046693Y028881D02*
Y029215D01*
X046526D01*
X04647Y02916D01*
Y029048D01*
X046526Y028992D01*
X046693D01*
X046582D02*
X04647Y028881D01*
X046359D02*
X046247D01*
X046303D01*
Y029215D01*
X046359Y02916D01*
X045912Y028881D02*
Y029215D01*
X04608Y029048D01*
X045857D01*
X042402Y037778D02*
Y037444D01*
X042234D01*
X042179Y0375D01*
Y037723D01*
X042234Y037778D01*
X042402D01*
X041844Y037444D02*
X042067D01*
X041844Y037667D01*
Y037723D01*
X0419Y037778D01*
X042011D01*
X042067Y037723D01*
X042343Y034117D02*
Y033782D01*
X042175D01*
X04212Y033838D01*
Y034061D01*
X042175Y034117D01*
X042343D01*
X042008Y033782D02*
X041897D01*
X041952D01*
Y034117D01*
X042008Y034061D01*
X047858Y025423D02*
X047913Y025367D01*
Y025256D01*
X047858Y0252D01*
X047635D01*
X047579Y025256D01*
Y025367D01*
X047635Y025423D01*
X047579Y025757D02*
Y025534D01*
X047802Y025757D01*
X047858D01*
X047913Y025702D01*
Y02559D01*
X047858Y025534D01*
X047913Y026092D02*
Y025869D01*
X047746D01*
X047802Y02598D01*
Y026036D01*
X047746Y026092D01*
X047635D01*
X047579Y026036D01*
Y025925D01*
X047635Y025869D01*
X052582Y025561D02*
X052638Y025505D01*
Y025393D01*
X052582Y025338D01*
X052359D01*
X052303Y025393D01*
Y025505D01*
X052359Y025561D01*
X052303Y025895D02*
Y025672D01*
X052526Y025895D01*
X052582D01*
X052638Y025839D01*
Y025728D01*
X052582Y025672D01*
X052303Y02623D02*
Y026007D01*
X052526Y02623D01*
X052582D01*
X052638Y026174D01*
Y026062D01*
X052582Y026007D01*
X041871Y027187D02*
X041927Y027131D01*
Y027019D01*
X041871Y026964D01*
X041648D01*
X041593Y027019D01*
Y027131D01*
X041648Y027187D01*
X041593Y027521D02*
Y027298D01*
X041816Y027521D01*
X041871D01*
X041927Y027465D01*
Y027354D01*
X041871Y027298D01*
X041593Y027633D02*
Y027744D01*
Y027688D01*
X041927D01*
X041871Y027633D01*
X044452Y025836D02*
X044508Y02578D01*
Y025669D01*
X044452Y025613D01*
X044229D01*
X044173Y025669D01*
Y02578D01*
X044229Y025836D01*
X044173Y025948D02*
Y026059D01*
Y026003D01*
X044508D01*
X044452Y025948D01*
X044229Y026226D02*
X044173Y026282D01*
Y026394D01*
X044229Y026449D01*
X044452D01*
X044508Y026394D01*
Y026282D01*
X044452Y026226D01*
X044396D01*
X044341Y026282D01*
Y026449D01*
X059224Y039827D02*
X059279Y039771D01*
Y039659D01*
X059224Y039604D01*
X059001D01*
X058945Y039659D01*
Y039771D01*
X059001Y039827D01*
X058945Y039938D02*
Y04005D01*
Y039994D01*
X059279D01*
X059224Y039938D01*
Y040217D02*
X059279Y040273D01*
Y040384D01*
X059224Y04044D01*
X059168D01*
X059112Y040384D01*
X059056Y04044D01*
X059001D01*
X058945Y040384D01*
Y040273D01*
X059001Y040217D01*
X059056D01*
X059112Y040273D01*
X059168Y040217D01*
X059224D01*
X059112Y040273D02*
Y040384D01*
X044876Y033727D02*
X044931Y033782D01*
X045043D01*
X045099Y033727D01*
Y033504D01*
X045043Y033448D01*
X044931D01*
X044876Y033504D01*
X044764Y033448D02*
X044653D01*
X044708D01*
Y033782D01*
X044764Y033727D01*
X044262Y033448D02*
X044485D01*
X044262Y033671D01*
Y033727D01*
X044318Y033782D01*
X04443D01*
X044485Y033727D01*
X042921Y040281D02*
X042977Y040337D01*
X043088D01*
X043144Y040281D01*
Y040058D01*
X043088Y040003D01*
X042977D01*
X042921Y040058D01*
X042809Y040337D02*
X042586D01*
Y040281D01*
X042809Y040058D01*
Y040003D01*
X044979Y040281D02*
X045034Y040337D01*
X045146D01*
X045202Y040281D01*
Y040058D01*
X045146Y040003D01*
X045034D01*
X044979Y040058D01*
X044644Y040337D02*
X044867D01*
Y04017D01*
X044756Y040226D01*
X0447D01*
X044644Y04017D01*
Y040058D01*
X0447Y040003D01*
X044811D01*
X044867Y040058D01*
X047026Y040281D02*
X047082Y040337D01*
X047193D01*
X047249Y040281D01*
Y040058D01*
X047193Y040003D01*
X047082D01*
X047026Y040058D01*
X046691Y040003D02*
X046914D01*
X046691Y040226D01*
Y040281D01*
X046747Y040337D01*
X046859D01*
X046914Y040281D01*
X049063Y040281D02*
X049118Y040337D01*
X04923D01*
X049286Y040281D01*
Y040058D01*
X04923Y040003D01*
X049118D01*
X049063Y040058D01*
X048951Y040003D02*
X04884D01*
X048895D01*
Y040337D01*
X048951Y040281D01*
X042953Y025636D02*
X04273Y025413D01*
X042953D02*
X04273Y025636D01*
X042953Y025525D02*
X04273D01*
X042841Y025413D02*
Y025636D01*
X042618Y025357D02*
X042507D01*
X042563D01*
Y025692D01*
X042618Y025636D01*
D11*
X04266Y034353D02*
G03*
X04266Y034353I-000022J0D01*
G01*
X041715Y037227D02*
G03*
X041715Y037227I-000022J0D01*
G01*
X043383Y025239D02*
G03*
X043383Y025239I-00001J0D01*
G01*
X050158Y029125D02*
X049758Y028725D01*
X050158D02*
X049758Y029125D01*
X050158Y028925D02*
X049758D01*
X049958Y028725D02*
Y029125D01*
X049558D02*
X049458Y029225D01*
X049258D01*
X049158Y029125D01*
Y029025D01*
X049258Y028925D01*
X049358D01*
X049258D01*
X049158Y028825D01*
Y028725D01*
X049258Y028625D01*
X049458D01*
X049558Y028725D01*
X047858Y026683D02*
X047913Y026627D01*
Y026515D01*
X047858Y02646D01*
X047635D01*
X047579Y026515D01*
Y026627D01*
X047635Y026683D01*
X047579Y027017D02*
Y026794D01*
X047802Y027017D01*
X047858D01*
X047913Y026961D01*
Y02685D01*
X047858Y026794D01*
Y027129D02*
X047913Y027184D01*
Y027296D01*
X047858Y027352D01*
X047802D01*
X047746Y027296D01*
X04769Y027352D01*
X047635D01*
X047579Y027296D01*
Y027184D01*
X047635Y027129D01*
X04769D01*
X047746Y027184D01*
X047802Y027129D01*
X047858D01*
X047746Y027184D02*
Y027296D01*
X052602Y026722D02*
X052658Y026666D01*
Y026555D01*
X052602Y026499D01*
X052379D01*
X052323Y026555D01*
Y026666D01*
X052379Y026722D01*
X052323Y027057D02*
Y026834D01*
X052546Y027057D01*
X052602D01*
X052658Y027001D01*
Y026889D01*
X052602Y026834D01*
X052658Y027168D02*
Y027391D01*
X052602D01*
X052379Y027168D01*
X052323D01*
X055779Y039964D02*
X055835Y039909D01*
Y039797D01*
X055779Y039741D01*
X055556D01*
X0555Y039797D01*
Y039909D01*
X055556Y039964D01*
X0555Y040076D02*
Y040187D01*
Y040132D01*
X055835D01*
X055779Y040076D01*
X055835Y040355D02*
Y040578D01*
X055779D01*
X055556Y040355D01*
X0555D01*
D15*
X051402Y026103D02*
Y027481D01*
X05087Y026103D02*
X051402D01*
X048843D02*
X049374D01*
X048843D02*
Y027481D01*
X041299Y031617D02*
X04252D01*
X041299Y032838D02*
X04252D01*
D17*
X063518Y039506D02*
X064018D01*
X063518D02*
Y040406D01*
Y040606D01*
X064018D01*
Y039506D02*
Y040606D01*
X063568Y039906D02*
X063968D01*
X063568D02*
Y040206D01*
X063968D01*
Y039906D02*
Y040206D01*
X058292Y039906D02*
Y040206D01*
Y039906D02*
X058692D01*
Y040206D01*
X058292D02*
X058692D01*
X058242Y039506D02*
Y040606D01*
Y039506D02*
X058742D01*
Y039706D01*
Y040606D01*
X058242D02*
X058742D01*
X055279Y039892D02*
Y040192D01*
X054879D02*
X055279D01*
X054879Y039892D02*
Y040192D01*
Y039892D02*
X055279D01*
X055329Y039492D02*
Y040592D01*
X054829D02*
X055329D01*
X054829Y040392D02*
Y040592D01*
Y039492D02*
Y040392D01*
Y039492D02*
X055329D01*
X046139Y027905D02*
X046439D01*
X046139Y027505D02*
Y027905D01*
Y027505D02*
X046439D01*
Y027905D01*
X045739Y027955D02*
X046839D01*
X045739Y027455D02*
Y027955D01*
Y027455D02*
X045939D01*
X046839D01*
Y027955D01*
X046139Y028705D02*
X046439D01*
X046139Y028305D02*
Y028705D01*
Y028305D02*
X046439D01*
Y028705D01*
X045739Y028755D02*
X046839D01*
X045739Y028255D02*
Y028755D01*
Y028255D02*
X045939D01*
X046839D01*
Y028755D01*
X052149Y026762D02*
Y027062D01*
X051749D02*
X052149D01*
X051749Y026762D02*
Y027062D01*
Y026762D02*
X052149D01*
X052199Y026362D02*
Y027462D01*
X051699D02*
X052199D01*
X051699Y027262D02*
Y027462D01*
Y026362D02*
Y027262D01*
Y026362D02*
X052199D01*
X048448Y026762D02*
Y027062D01*
X048048D02*
X048448D01*
X048048Y026762D02*
Y027062D01*
Y026762D02*
X048448D01*
X048498Y026362D02*
Y027462D01*
X047998D02*
X048498D01*
X047998Y027262D02*
Y027462D01*
Y026362D02*
Y027262D01*
Y026362D02*
X048498D01*
X042143Y027314D02*
Y027614D01*
Y027314D02*
X042543D01*
Y027614D01*
X042143D02*
X042543D01*
X042093Y026914D02*
Y028014D01*
Y026914D02*
X042593D01*
Y027114D01*
Y028014D01*
X042093D02*
X042593D01*
X048067Y025518D02*
Y025818D01*
Y025518D02*
X048467D01*
Y025818D01*
X048067D02*
X048467D01*
X048017Y025118D02*
Y026218D01*
Y025118D02*
X048517D01*
Y025318D01*
Y026218D01*
X048017D02*
X048517D01*
X051717Y025518D02*
Y025818D01*
Y025518D02*
X052117D01*
Y025818D01*
X051717D02*
X052117D01*
X051667Y025118D02*
Y026218D01*
Y025118D02*
X052167D01*
Y025318D01*
Y026218D01*
X051667D02*
X052167D01*
X044511Y026999D02*
Y027299D01*
X044111D02*
X044511D01*
X044111Y026999D02*
Y027299D01*
Y026999D02*
X044511D01*
X044561Y026599D02*
Y027699D01*
X044061D02*
X044561D01*
X044061Y027499D02*
Y027699D01*
Y026599D02*
Y027499D01*
Y026599D02*
X044561D01*
X042694Y039203D02*
Y039503D01*
Y039203D02*
X043094D01*
Y039503D01*
X042694D02*
X043094D01*
X042644Y038803D02*
Y039903D01*
Y038803D02*
X043144D01*
Y039003D01*
Y039903D01*
X042644D02*
X043144D01*
X045102Y039203D02*
Y039503D01*
X044702D02*
X045102D01*
X044702Y039203D02*
Y039503D01*
Y039203D02*
X045102D01*
X045152Y038803D02*
Y039903D01*
X044652D02*
X045152D01*
X044652Y039703D02*
Y039903D01*
Y038803D02*
Y039703D01*
Y038803D02*
X045152D01*
X046749Y039203D02*
Y039503D01*
Y039203D02*
X047149D01*
Y039503D01*
X046749D02*
X047149D01*
X046699Y038803D02*
Y039903D01*
Y038803D02*
X047199D01*
Y039003D01*
Y039903D01*
X046699D02*
X047199D01*
X049236Y039203D02*
Y039503D01*
X048836D02*
X049236D01*
X048836Y039203D02*
Y039503D01*
Y039203D02*
X049236D01*
X049286Y038803D02*
Y039903D01*
X048786D02*
X049286D01*
X048786Y039703D02*
Y039903D01*
Y038803D02*
Y039703D01*
Y038803D02*
X049286D01*
X044555Y033956D02*
X044855D01*
Y034356D01*
X044555D02*
X044855D01*
X044555Y033956D02*
Y034356D01*
X044155Y033906D02*
X045255D01*
Y034406D01*
X045055D02*
X045255D01*
X044155D02*
X045055D01*
X044155Y033906D02*
Y034406D01*
X042697Y024038D02*
X043248D01*
Y025219D01*
X042697D02*
X043248D01*
X042697Y024038D02*
Y025219D01*
M02*
