M48
;Layer_Color=9474304
;FILE_FORMAT=2:4
INCH,LZ
;TYPE=PLATED
T1F00S00C0.0118
T2F00S00C0.0157
T3F00S00C0.0236
T4F00S00C0.0354
T5F00S00C0.0394
T6F00S00C0.0472
T7F00S00C0.1181
%
T01
X046828Y034754
Y035227
X047301Y035227
Y034754
T02
X062992Y022047
X06378Y023622
X065354
X064567Y025197
X062992
X065354Y026772
X064567Y028346
X061417Y025197
X059843
X058268
X056693
X055118
X054331Y023622
X053543Y022047
X055118
X056693
X058268
X059843
X061417
X062205Y023622
X06063
X050394Y022047
X047244
X050122Y025588
X049606Y026772
X050099Y027877
X051103Y029275
X051122Y029708
X050492Y030141
Y030574
X052658Y029708
Y029275
X046639Y028954
X046634Y027267
X046457Y026772
Y023622
X045669Y022047
X043366Y023723
X042697
X042658Y026125
Y026558
X042461Y030613
Y031164
X040689Y031164
Y030613
X040157Y029921
X041732
X038583
X037795Y028346
X038583Y026772
X037008
X03622Y025197
X037795
X038583Y023622
X037008
X035433
X033858
X032283
X031496Y025197
X033071
X034646
Y028346
X033071
X031496
X032283Y029921
X033858
X032283Y026772
X033071Y022047
X034646
X03622
X037795
X03937
X037795Y031496
X03622
X034646
X033071
X031496
X032283Y033071
X033858
X033071Y034646
X031496
X032283Y03622
X033858
X033071Y037795
X034646
X035433Y03937
X037008
X03622Y040945
X037795
X03937
Y037795
X040945
X0425Y036401
Y035141
X043996Y035298
Y036282
X044016Y037011
X044917Y037715
X045532Y033881
X043917Y034156
Y032424
Y032
X043406Y032227
X04191Y03206
Y032475
X040689Y033251
Y033723
X039193Y033444
Y033015
X037008Y033071
Y03622
X034646Y040945
X033071
X031496
X032283Y03937
X031496Y037795
X048799Y037936
X050778Y036862
X050687Y035863
Y035312
X050657Y034741
X050687Y03421
X050697Y033659
X050687Y032491
X050672Y031985
Y031513
X051583Y031533
X054351Y031696
X053906Y032163
X054311Y034196
X055906Y033071
X05748
X056693Y034646
X058268
X059055Y03622
X05748
X055906
X056693Y037795
X058268
X059843
X059055Y03937
X058502Y039195
X058492Y04077
X059843Y040945
X061417
X056693
X055079Y040771
X055099Y039196
X055906Y03937
X052756
X051968Y040945
Y037795
X053543
X051968Y034646
X04876Y033369
X047914Y032464
X056693Y031496
X058268
X059843
X06063Y033071
X062492Y033676
X0625Y034156
X062528Y035115
Y035667
X064567Y037795
X063748Y039269
X063768Y040785
X062992Y040945
T03
X063906Y029899
X063866Y030706
X051939Y02768
X052355Y026295
X051917Y024927
X048267Y024906
X047813Y026295
X048248Y02767
X044784Y027503
X044774Y026794
X043366Y025574
X041988Y025259
X041891Y027099
X042343Y028172
X040049Y028025
X040069Y028782
X044429Y031125
X045669Y031263
X045669Y033153
X044498Y033458
X043406Y033723
X042815Y034373
X040638Y034682
X043383Y036974
X042894Y038527
X041769Y0391
X044921Y038566
X035126Y034643
X046949Y038645
X050059Y038605
X050906Y039058
X048642Y041164
X060676Y039216
X06235Y042478
X064142Y033403
X064181Y032418
T04
X056197Y022989
X057197
X058197
X059197
X060197
X061197
Y023989
X060197
X059197
X058197
X057197
X056197
X037124Y025916
X036124
X035124
X034124
X033124
X033128Y038396
X034128
X035128
X036128
X037128
T05
X042136Y023296
X043868
T06
X048441Y022296
Y023792
X051855
Y022296
T07
X065047Y022129
X030992Y022104
Y042472
X065047Y042478
M30
