G04*
G04 #@! TF.GenerationSoftware,Altium Limited,Altium Designer,22.4.2 (48)*
G04*
G04 Layer_Color=255*
%FSTAX24Y24*%
%MOIN*%
G70*
G04*
G04 #@! TF.SameCoordinates,36F0A17D-9E63-4542-9A5D-60F15C5BBE16*
G04*
G04*
G04 #@! TF.FilePolarity,Positive*
G04*
G01*
G75*
G04:AMPARAMS|DCode=19|XSize=35.4mil|YSize=47.2mil|CornerRadius=1.8mil|HoleSize=0mil|Usage=FLASHONLY|Rotation=180.000|XOffset=0mil|YOffset=0mil|HoleType=Round|Shape=RoundedRectangle|*
%AMROUNDEDRECTD19*
21,1,0.0354,0.0437,0,0,180.0*
21,1,0.0319,0.0472,0,0,180.0*
1,1,0.0035,-0.0159,0.0219*
1,1,0.0035,0.0159,0.0219*
1,1,0.0035,0.0159,-0.0219*
1,1,0.0035,-0.0159,-0.0219*
%
%ADD19ROUNDEDRECTD19*%
%ADD20R,0.0550X0.0394*%
%ADD21R,0.0354X0.0236*%
%ADD22R,0.0315X0.0472*%
%ADD23R,0.0787X0.0354*%
%ADD24R,0.0354X0.0787*%
%ADD25R,0.0197X0.0886*%
%ADD26R,0.0787X0.0984*%
%ADD27R,0.0394X0.0550*%
G04:AMPARAMS|DCode=28|XSize=137.8mil|YSize=137.8mil|CornerRadius=3.4mil|HoleSize=0mil|Usage=FLASHONLY|Rotation=0.000|XOffset=0mil|YOffset=0mil|HoleType=Round|Shape=RoundedRectangle|*
%AMROUNDEDRECTD28*
21,1,0.1378,0.1309,0,0,0.0*
21,1,0.1309,0.1378,0,0,0.0*
1,1,0.0069,0.0655,-0.0655*
1,1,0.0069,-0.0655,-0.0655*
1,1,0.0069,-0.0655,0.0655*
1,1,0.0069,0.0655,0.0655*
%
%ADD28ROUNDEDRECTD28*%
G04:AMPARAMS|DCode=29|XSize=8.7mil|YSize=23.6mil|CornerRadius=0.2mil|HoleSize=0mil|Usage=FLASHONLY|Rotation=90.000|XOffset=0mil|YOffset=0mil|HoleType=Round|Shape=RoundedRectangle|*
%AMROUNDEDRECTD29*
21,1,0.0087,0.0232,0,0,90.0*
21,1,0.0082,0.0236,0,0,90.0*
1,1,0.0004,0.0116,0.0041*
1,1,0.0004,0.0116,-0.0041*
1,1,0.0004,-0.0116,-0.0041*
1,1,0.0004,-0.0116,0.0041*
%
%ADD29ROUNDEDRECTD29*%
G04:AMPARAMS|DCode=30|XSize=8.7mil|YSize=23.6mil|CornerRadius=0.2mil|HoleSize=0mil|Usage=FLASHONLY|Rotation=0.000|XOffset=0mil|YOffset=0mil|HoleType=Round|Shape=RoundedRectangle|*
%AMROUNDEDRECTD30*
21,1,0.0087,0.0232,0,0,0.0*
21,1,0.0082,0.0236,0,0,0.0*
1,1,0.0004,0.0041,-0.0116*
1,1,0.0004,-0.0041,-0.0116*
1,1,0.0004,-0.0041,0.0116*
1,1,0.0004,0.0041,0.0116*
%
%ADD30ROUNDEDRECTD30*%
G04:AMPARAMS|DCode=31|XSize=77.6mil|YSize=24.4mil|CornerRadius=3.1mil|HoleSize=0mil|Usage=FLASHONLY|Rotation=90.000|XOffset=0mil|YOffset=0mil|HoleType=Round|Shape=RoundedRectangle|*
%AMROUNDEDRECTD31*
21,1,0.0776,0.0183,0,0,90.0*
21,1,0.0715,0.0244,0,0,90.0*
1,1,0.0061,0.0092,0.0357*
1,1,0.0061,0.0092,-0.0357*
1,1,0.0061,-0.0092,-0.0357*
1,1,0.0061,-0.0092,0.0357*
%
%ADD31ROUNDEDRECTD31*%
G04:AMPARAMS|DCode=32|XSize=77.6mil|YSize=124.4mil|CornerRadius=9.7mil|HoleSize=0mil|Usage=FLASHONLY|Rotation=90.000|XOffset=0mil|YOffset=0mil|HoleType=Round|Shape=RoundedRectangle|*
%AMROUNDEDRECTD32*
21,1,0.0776,0.1050,0,0,90.0*
21,1,0.0582,0.1244,0,0,90.0*
1,1,0.0194,0.0525,0.0291*
1,1,0.0194,0.0525,-0.0291*
1,1,0.0194,-0.0525,-0.0291*
1,1,0.0194,-0.0525,0.0291*
%
%ADD32ROUNDEDRECTD32*%
%ADD33R,0.0236X0.0354*%
%ADD34O,0.0531X0.0138*%
G04:AMPARAMS|DCode=35|XSize=18.5mil|YSize=23.6mil|CornerRadius=0.9mil|HoleSize=0mil|Usage=FLASHONLY|Rotation=180.000|XOffset=0mil|YOffset=0mil|HoleType=Round|Shape=RoundedRectangle|*
%AMROUNDEDRECTD35*
21,1,0.0185,0.0218,0,0,180.0*
21,1,0.0167,0.0236,0,0,180.0*
1,1,0.0019,-0.0083,0.0109*
1,1,0.0019,0.0083,0.0109*
1,1,0.0019,0.0083,-0.0109*
1,1,0.0019,-0.0083,-0.0109*
%
%ADD35ROUNDEDRECTD35*%
%ADD36R,0.0197X0.0197*%
G04:AMPARAMS|DCode=37|XSize=47.2mil|YSize=145.7mil|CornerRadius=2.4mil|HoleSize=0mil|Usage=FLASHONLY|Rotation=90.000|XOffset=0mil|YOffset=0mil|HoleType=Round|Shape=RoundedRectangle|*
%AMROUNDEDRECTD37*
21,1,0.0472,0.1409,0,0,90.0*
21,1,0.0425,0.1457,0,0,90.0*
1,1,0.0047,0.0705,0.0213*
1,1,0.0047,0.0705,-0.0213*
1,1,0.0047,-0.0705,-0.0213*
1,1,0.0047,-0.0705,0.0213*
%
%ADD37ROUNDEDRECTD37*%
%ADD38R,0.0512X0.0433*%
%ADD67R,0.1969X0.1969*%
%ADD72C,0.0591*%
%ADD73R,0.0591X0.0591*%
%ADD74C,0.1378*%
D19*
X049071Y023792D02*
D03*
X049504D02*
D03*
X049937D02*
D03*
X05037D02*
D03*
X050804D02*
D03*
X051237D02*
D03*
D20*
X05311Y023521D02*
D03*
Y024421D02*
D03*
X039272Y023549D02*
D03*
X041162Y0391D02*
D03*
Y04D02*
D03*
X039272Y024449D02*
D03*
D21*
X053799Y023757D02*
D03*
X053799Y024472D02*
D03*
X064437Y029967D02*
D03*
X064437Y030682D02*
D03*
X06237Y040406D02*
D03*
X06237Y039691D02*
D03*
X053728Y040406D02*
D03*
X053728Y039691D02*
D03*
X064437Y031207D02*
D03*
X064437Y031922D02*
D03*
X063846Y031198D02*
D03*
X063846Y031913D02*
D03*
X057154Y039691D02*
D03*
X057154Y040406D02*
D03*
X039931Y023737D02*
D03*
X051949Y027277D02*
D03*
X051949Y026562D02*
D03*
X048248D02*
D03*
X048248Y027277D02*
D03*
X048267Y025312D02*
D03*
X048267Y026027D02*
D03*
X051917Y025312D02*
D03*
X051917Y026027D02*
D03*
X044311Y026784D02*
D03*
X044311Y027499D02*
D03*
X039931Y024452D02*
D03*
X050374Y036862D02*
D03*
X050374Y037577D02*
D03*
X049744Y036862D02*
D03*
X049744Y037577D02*
D03*
X045315Y037D02*
D03*
X045315Y037715D02*
D03*
X048799Y037617D02*
D03*
X048799Y036902D02*
D03*
D22*
X063768Y038664D02*
D03*
Y04142D02*
D03*
X058492Y038664D02*
D03*
Y04142D02*
D03*
X055099Y038664D02*
D03*
Y04142D02*
D03*
D23*
X055089Y030176D02*
D03*
Y030676D02*
D03*
Y031176D02*
D03*
Y031676D02*
D03*
Y032176D02*
D03*
Y032676D02*
D03*
Y033176D02*
D03*
Y033676D02*
D03*
Y034176D02*
D03*
Y034676D02*
D03*
Y035176D02*
D03*
Y035676D02*
D03*
Y036176D02*
D03*
Y036676D02*
D03*
X061782D02*
D03*
Y036176D02*
D03*
Y035676D02*
D03*
Y035176D02*
D03*
Y034676D02*
D03*
Y034176D02*
D03*
Y033676D02*
D03*
Y033176D02*
D03*
Y032676D02*
D03*
Y032176D02*
D03*
Y031676D02*
D03*
Y031176D02*
D03*
Y030676D02*
D03*
Y030176D02*
D03*
D24*
X056185Y03707D02*
D03*
X056685D02*
D03*
X057185D02*
D03*
X057685D02*
D03*
X058185D02*
D03*
X058685D02*
D03*
X059185D02*
D03*
X059685D02*
D03*
X060185D02*
D03*
X060685D02*
D03*
D25*
X043622Y024452D02*
D03*
X043312Y024447D02*
D03*
X043002Y024442D02*
D03*
X042692Y024437D02*
D03*
X042382Y024432D02*
D03*
D26*
X044774Y024312D02*
D03*
X044772Y022052D02*
D03*
X041229D02*
D03*
X04123Y024312D02*
D03*
D27*
X046689Y028505D02*
D03*
X046689Y027705D02*
D03*
X045789D02*
D03*
X045789Y028505D02*
D03*
D28*
X047065Y034991D02*
D03*
D29*
X045923Y035877D02*
D03*
Y03568D02*
D03*
Y035483D02*
D03*
Y035286D02*
D03*
Y035089D02*
D03*
Y034892D02*
D03*
Y034695D02*
D03*
Y034499D02*
D03*
Y034302D02*
D03*
Y034105D02*
D03*
X048206D02*
D03*
Y034302D02*
D03*
Y034499D02*
D03*
Y034695D02*
D03*
Y034892D02*
D03*
Y035089D02*
D03*
Y035286D02*
D03*
Y035483D02*
D03*
Y03568D02*
D03*
Y035877D02*
D03*
D30*
X046179Y033849D02*
D03*
X046376D02*
D03*
X046573D02*
D03*
X046769D02*
D03*
X046966D02*
D03*
X047163D02*
D03*
X04736D02*
D03*
X047557D02*
D03*
X047754D02*
D03*
X047951D02*
D03*
Y036132D02*
D03*
X047754D02*
D03*
X047557D02*
D03*
X04736D02*
D03*
X047163D02*
D03*
X046966D02*
D03*
X046769D02*
D03*
X046573D02*
D03*
X046376D02*
D03*
X046179D02*
D03*
D31*
X049099Y025532D02*
D03*
X049599D02*
D03*
X050099D02*
D03*
X050599D02*
D03*
X051099D02*
D03*
D32*
X050099Y027899D02*
D03*
D33*
X042504Y035495D02*
D03*
X043219Y035495D02*
D03*
X042504Y036046D02*
D03*
X043219Y036046D02*
D03*
X048298Y037621D02*
D03*
X047583Y037621D02*
D03*
X04934Y041243D02*
D03*
X050055Y041243D02*
D03*
X048023Y041243D02*
D03*
X047308Y041243D02*
D03*
X041802Y041204D02*
D03*
X041087Y041204D02*
D03*
X048298Y036912D02*
D03*
X047583Y036912D02*
D03*
X05151Y029218D02*
D03*
X052225Y029218D02*
D03*
X05151Y029768D02*
D03*
X052225Y029768D02*
D03*
X047189Y032936D02*
D03*
X047904Y032936D02*
D03*
X045055Y036282D02*
D03*
X04434Y036282D02*
D03*
X045055Y035298D02*
D03*
X04434Y035298D02*
D03*
X045055Y033999D02*
D03*
X04434Y033999D02*
D03*
X044709Y041243D02*
D03*
X045424Y041243D02*
D03*
X045055Y034747D02*
D03*
X04434Y034747D02*
D03*
D34*
X043465Y028025D02*
D03*
Y02828D02*
D03*
X040748Y02956D02*
D03*
Y029304D02*
D03*
Y029048D02*
D03*
Y028792D02*
D03*
Y028536D02*
D03*
Y02828D02*
D03*
Y028025D02*
D03*
Y027769D02*
D03*
Y027513D02*
D03*
Y027257D02*
D03*
Y027001D02*
D03*
Y026745D02*
D03*
Y026489D02*
D03*
Y026233D02*
D03*
X043465Y02956D02*
D03*
Y029304D02*
D03*
Y029048D02*
D03*
Y028792D02*
D03*
Y028536D02*
D03*
Y027769D02*
D03*
Y027513D02*
D03*
Y027257D02*
D03*
Y027001D02*
D03*
Y026745D02*
D03*
Y026489D02*
D03*
Y026233D02*
D03*
D35*
X04502Y032011D02*
D03*
X045276Y031263D02*
D03*
X044764D02*
D03*
X04502Y032404D02*
D03*
X044764Y033153D02*
D03*
X045276D02*
D03*
D36*
X045492Y025377D02*
D03*
X046358D02*
D03*
D37*
X043438Y0402D02*
D03*
Y039098D02*
D03*
X045453Y0402D02*
D03*
Y039098D02*
D03*
X047461Y0402D02*
D03*
Y039098D02*
D03*
X049482Y0402D02*
D03*
Y039098D02*
D03*
D38*
X046103Y036912D02*
D03*
X047008D02*
D03*
Y037621D02*
D03*
X046103D02*
D03*
D67*
X058829Y033129D02*
D03*
D72*
X061197Y023989D02*
D03*
Y022989D02*
D03*
X060197Y023989D02*
D03*
Y022989D02*
D03*
X059197Y023989D02*
D03*
Y022989D02*
D03*
X058197Y023989D02*
D03*
Y022989D02*
D03*
X057197Y023989D02*
D03*
Y022989D02*
D03*
X056197Y023989D02*
D03*
X051855Y023792D02*
D03*
X048441D02*
D03*
X051855D02*
D03*
Y022296D02*
D03*
X048441D02*
D03*
X036128Y038396D02*
D03*
X035128D02*
D03*
X034128D02*
D03*
X033128D02*
D03*
X036124Y025916D02*
D03*
X035124D02*
D03*
X034124D02*
D03*
X033124D02*
D03*
D73*
X056197Y022989D02*
D03*
X037128Y038396D02*
D03*
X037124Y025916D02*
D03*
D74*
X065047Y042478D02*
D03*
Y022129D02*
D03*
X030992Y042472D02*
D03*
Y022104D02*
D03*
M02*
