G04*
G04 #@! TF.GenerationSoftware,Altium Limited,Altium Designer,22.4.2 (48)*
G04*
G04 Layer_Color=65535*
%FSTAX24Y24*%
%MOIN*%
G70*
G04*
G04 #@! TF.SameCoordinates,36F0A17D-9E63-4542-9A5D-60F15C5BBE16*
G04*
G04*
G04 #@! TF.FilePolarity,Positive*
G04*
G01*
G75*
%ADD10C,0.0079*%
%ADD11C,0.0100*%
%ADD12C,0.0098*%
%ADD13C,0.0236*%
%ADD14C,0.0118*%
%ADD15C,0.0050*%
%ADD16C,0.0040*%
%ADD17C,0.0039*%
%ADD18C,0.0080*%
D10*
X062412Y03018D02*
G03*
X062412Y03018I-000039J0D01*
G01*
X048799Y025338D02*
G03*
X048799Y025338I-000039J0D01*
G01*
X045719Y036885D02*
G03*
X045719Y036885I-000039J0D01*
G01*
X046346Y027537D02*
Y027871D01*
X04615Y027556D02*
Y027871D01*
X046189Y027714D02*
X046346Y027871D01*
X046189Y027694D02*
X046346Y027537D01*
Y028344D02*
Y028678D01*
X04615Y028363D02*
Y028678D01*
X046189Y028521D02*
X046346Y028678D01*
X046189Y028501D02*
X046346Y028344D01*
X052941Y023875D02*
X053276D01*
X052961Y024072D02*
X053276D01*
X053118Y024033D02*
X053276Y023875D01*
X052941D02*
X053098Y024033D01*
X039102Y023915D02*
X039437D01*
X039122Y024111D02*
X039437D01*
X03928Y024072D02*
X039437Y023915D01*
X039102D02*
X03926Y024072D01*
X041169Y039485D02*
X041327Y039643D01*
X040992D02*
X04115Y039485D01*
X04176Y039741D02*
Y039741D01*
X040992Y039446D02*
X041307D01*
X040992Y039643D02*
X041327D01*
X055697Y022489D02*
X061697D01*
Y024489D01*
X055697D02*
X061697D01*
X055697Y022489D02*
Y024489D01*
X032628Y037896D02*
Y038896D01*
X037628D01*
X032628Y037896D02*
X037628D01*
Y038896D01*
X032624Y025416D02*
Y026416D01*
X037624D01*
X032624Y025416D02*
X037624D01*
Y026416D01*
X046252Y034178D02*
Y035475D01*
Y034178D02*
X047878D01*
Y035804D01*
X04658D02*
X047878D01*
X046252Y035475D02*
X04658Y035804D01*
X044597Y031381D02*
X045443D01*
X044597D02*
Y031893D01*
X045443D01*
Y031381D02*
Y031893D01*
X044597Y033034D02*
X045443D01*
Y032523D02*
Y033034D01*
X044597Y032523D02*
X045443D01*
X044597D02*
Y033034D01*
X041171Y025889D02*
Y029904D01*
X043042Y025889D02*
Y029904D01*
X041171D02*
X043042D01*
X041171Y025889D02*
X043042D01*
X034305Y025225D02*
X03397D01*
Y025002D01*
X034305Y024667D02*
Y02489D01*
X03397D01*
Y024667D01*
X034138Y02489D02*
Y024779D01*
X034305Y024556D02*
X03397D01*
Y024389D01*
X034026Y024333D01*
X034249D01*
X034305Y024389D01*
Y024556D01*
X034249Y023887D02*
X034305Y023831D01*
Y023719D01*
X034249Y023664D01*
X034026D01*
X03397Y023719D01*
Y023831D01*
X034026Y023887D01*
X034249D01*
X034305Y023218D02*
Y022995D01*
Y023106D01*
X03397D01*
X034305Y022883D02*
X03397Y02266D01*
X034305D02*
X03397Y022883D01*
Y022214D02*
X034305D01*
Y022047D01*
X034249Y021991D01*
X034138D01*
X034082Y022047D01*
Y022214D01*
X035283Y025225D02*
X03506D01*
X034949Y025113D01*
X03506Y025002D01*
X035283D01*
X035228Y024667D02*
X035283Y024723D01*
Y024835D01*
X035228Y02489D01*
X035005D01*
X034949Y024835D01*
Y024723D01*
X035005Y024667D01*
X035228Y024333D02*
X035283Y024389D01*
Y0245D01*
X035228Y024556D01*
X035005D01*
X034949Y0245D01*
Y024389D01*
X035005Y024333D01*
X035283Y023887D02*
X034949D01*
Y023664D01*
X035283Y023329D02*
Y023552D01*
X034949D01*
Y023329D01*
X035116Y023552D02*
Y023441D01*
X035283Y023218D02*
X034949D01*
Y02305D01*
X035005Y022995D01*
X035228D01*
X035283Y02305D01*
Y023218D01*
X03626Y025225D02*
X035926D01*
Y025002D01*
X03626Y024667D02*
Y02489D01*
X035926D01*
Y024667D01*
X036093Y02489D02*
Y024779D01*
X03626Y024556D02*
X035926D01*
Y024389D01*
X035981Y024333D01*
X036204D01*
X03626Y024389D01*
Y024556D01*
X035926Y023887D02*
Y023775D01*
Y023831D01*
X03626D01*
X036204Y023887D01*
X03626Y023273D02*
Y02305D01*
Y023162D01*
X035926D01*
X03626Y022939D02*
X035926Y022716D01*
X03626D02*
X035926Y022939D01*
Y02227D02*
X03626D01*
X035926Y022047D01*
X03626D01*
X033268Y025225D02*
X032933D01*
Y025002D01*
X033268Y024667D02*
Y02489D01*
X032933D01*
Y024667D01*
X033101Y02489D02*
Y024779D01*
X033268Y024556D02*
X032933D01*
Y024389D01*
X032989Y024333D01*
X033212D01*
X033268Y024389D01*
Y024556D01*
X033212Y023887D02*
X033268Y023831D01*
Y023719D01*
X033212Y023664D01*
X032989D01*
X032933Y023719D01*
Y023831D01*
X032989Y023887D01*
X033212D01*
X033268Y023218D02*
Y022995D01*
Y023106D01*
X032933D01*
X033268Y022883D02*
X032933Y02266D01*
X033268D02*
X032933Y022883D01*
Y022214D02*
X033268D01*
X032933Y021991D01*
X033268D01*
X037323Y025225D02*
X036989D01*
Y025002D01*
X037323Y024667D02*
Y02489D01*
X036989D01*
Y024667D01*
X037156Y02489D02*
Y024779D01*
X037323Y024556D02*
X036989D01*
Y024389D01*
X037044Y024333D01*
X037267D01*
X037323Y024389D01*
Y024556D01*
X036989Y023887D02*
Y023775D01*
Y023831D01*
X037323D01*
X037267Y023887D01*
X037323Y023273D02*
Y02305D01*
Y023162D01*
X036989D01*
X037323Y022939D02*
X036989Y022716D01*
X037323D02*
X036989Y022939D01*
Y02227D02*
X037323D01*
Y022103D01*
X037267Y022047D01*
X037156D01*
X0371Y022103D01*
Y02227D01*
X035303Y041316D02*
X03508D01*
X034969Y041205D01*
X03508Y041093D01*
X035303D01*
X035247Y040759D02*
X035303Y040814D01*
Y040926D01*
X035247Y040982D01*
X035024D01*
X034969Y040926D01*
Y040814D01*
X035024Y040759D01*
X035247Y040424D02*
X035303Y04048D01*
Y040591D01*
X035247Y040647D01*
X035024D01*
X034969Y040591D01*
Y04048D01*
X035024Y040424D01*
X035303Y039978D02*
X034969D01*
Y039755D01*
X035303Y03942D02*
Y039643D01*
X034969D01*
Y03942D01*
X035136Y039643D02*
Y039532D01*
X035303Y039309D02*
X034969D01*
Y039142D01*
X035024Y039086D01*
X035247D01*
X035303Y039142D01*
Y039309D01*
X034283Y039755D02*
X034338Y039811D01*
Y039922D01*
X034283Y039978D01*
X03406D01*
X034004Y039922D01*
Y039811D01*
X03406Y039755D01*
X034171D01*
Y039866D01*
X034004Y039643D02*
X034338D01*
X034004Y03942D01*
X034338D01*
Y039309D02*
X034004D01*
Y039142D01*
X03406Y039086D01*
X034283D01*
X034338Y039142D01*
Y039309D01*
X03322Y039755D02*
X033275Y039811D01*
Y039922D01*
X03322Y039978D01*
X032997D01*
X032941Y039922D01*
Y039811D01*
X032997Y039755D01*
X033108D01*
Y039866D01*
X032941Y039643D02*
X033275D01*
X032941Y03942D01*
X033275D01*
Y039309D02*
X032941D01*
Y039142D01*
X032997Y039086D01*
X03322D01*
X033275Y039142D01*
Y039309D01*
X036268Y040647D02*
X035933D01*
Y04048D01*
X035989Y040424D01*
X036212D01*
X036268Y04048D01*
Y040647D01*
Y04009D02*
Y040313D01*
X035933D01*
Y04009D01*
X0361Y040313D02*
Y040201D01*
X036268Y039978D02*
Y039755D01*
Y039866D01*
X035933D01*
X035877Y039643D02*
Y03942D01*
X035933Y039309D02*
X036268D01*
Y039142D01*
X036212Y039086D01*
X0361D01*
X036045Y039142D01*
Y039309D01*
X037409Y040647D02*
X037075D01*
Y04048D01*
X037131Y040424D01*
X037354D01*
X037409Y04048D01*
Y040647D01*
Y04009D02*
Y040313D01*
X037075D01*
Y04009D01*
X037242Y040313D02*
Y040201D01*
X037409Y039978D02*
Y039755D01*
Y039866D01*
X037075D01*
X037019Y039643D02*
Y03942D01*
X037075Y039309D02*
X037409D01*
X037075Y039086D01*
X037409D01*
X032803Y042576D02*
Y042911D01*
X03297D01*
X033026Y042855D01*
Y042743D01*
X03297Y042688D01*
X032803D01*
X033138Y042576D02*
Y042911D01*
X033305D01*
X033361Y042855D01*
Y042743D01*
X033305Y042688D01*
X033138D01*
X033695Y042855D02*
X03364Y042911D01*
X033528D01*
X033472Y042855D01*
Y042632D01*
X033528Y042576D01*
X03364D01*
X033695Y042632D01*
Y042743D01*
X033584D01*
X034141Y042464D02*
Y042799D01*
X034309D01*
X034364Y042743D01*
Y042632D01*
X034309Y042576D01*
X034141D01*
X034476Y042799D02*
Y042576D01*
Y042688D01*
X034532Y042743D01*
X034587Y042799D01*
X034643D01*
X034866Y042576D02*
X034978D01*
X035033Y042632D01*
Y042743D01*
X034978Y042799D01*
X034866D01*
X03481Y042743D01*
Y042632D01*
X034866Y042576D01*
X035368Y042799D02*
X035201D01*
X035145Y042743D01*
Y042632D01*
X035201Y042576D01*
X035368D01*
X035647D02*
X035535D01*
X035479Y042632D01*
Y042743D01*
X035535Y042799D01*
X035647D01*
X035702Y042743D01*
Y042688D01*
X035479D01*
X035814Y042576D02*
X035981D01*
X036037Y042632D01*
X035981Y042688D01*
X03587D01*
X035814Y042743D01*
X03587Y042799D01*
X036037D01*
X036149Y042576D02*
X036316D01*
X036372Y042632D01*
X036316Y042688D01*
X036204D01*
X036149Y042743D01*
X036204Y042799D01*
X036372D01*
X036483Y042576D02*
X036595D01*
X036539D01*
Y042799D01*
X036483D01*
X036762Y042576D02*
Y042799D01*
X036929D01*
X036985Y042743D01*
Y042576D01*
X037208Y042464D02*
X037264D01*
X037319Y04252D01*
Y042799D01*
X037152D01*
X037096Y042743D01*
Y042632D01*
X037152Y042576D01*
X037319D01*
X037765Y042743D02*
X037988D01*
X037877Y042855D02*
Y042632D01*
X038435Y042576D02*
X038602D01*
X038658Y042632D01*
X038602Y042688D01*
X03849D01*
X038435Y042743D01*
X03849Y042799D01*
X038658D01*
X038936Y042576D02*
X038825D01*
X038769Y042632D01*
Y042743D01*
X038825Y042799D01*
X038936D01*
X038992Y042743D01*
Y042688D01*
X038769D01*
X039104Y042576D02*
Y042799D01*
X039271D01*
X039327Y042743D01*
Y042576D01*
X039438D02*
X039605D01*
X039661Y042632D01*
X039605Y042688D01*
X039494D01*
X039438Y042743D01*
X039494Y042799D01*
X039661D01*
X039828Y042576D02*
X03994D01*
X039996Y042632D01*
Y042743D01*
X03994Y042799D01*
X039828D01*
X039773Y042743D01*
Y042632D01*
X039828Y042576D01*
X040107Y042799D02*
Y042576D01*
Y042688D01*
X040163Y042743D01*
X040219Y042799D01*
X040275D01*
X040776D02*
X040888Y042576D01*
X040999Y042799D01*
X041278Y042576D02*
X041167D01*
X041111Y042632D01*
Y042743D01*
X041167Y042799D01*
X041278D01*
X041334Y042743D01*
Y042688D01*
X041111D01*
X041445Y042799D02*
Y042576D01*
Y042688D01*
X041501Y042743D01*
X041557Y042799D01*
X041613D01*
X042114Y042576D02*
X042226D01*
X04217D01*
Y042911D01*
X042114Y042855D01*
X042393Y042576D02*
Y042632D01*
X042449D01*
Y042576D01*
X042393D01*
X042672D02*
X042784D01*
X042728D01*
Y042911D01*
X042672Y042855D01*
X052721Y039909D02*
Y040243D01*
X052888D01*
X052944Y040188D01*
Y040076D01*
X052888Y04002D01*
X052721D01*
X052833D02*
X052944Y039909D01*
X053056Y040188D02*
X053112Y040243D01*
X053223D01*
X053279Y040188D01*
Y040132D01*
X053223Y040076D01*
X053279Y04002D01*
Y039964D01*
X053223Y039909D01*
X053112D01*
X053056Y039964D01*
Y04002D01*
X053112Y040076D01*
X053056Y040132D01*
Y040188D01*
X053112Y040076D02*
X053223D01*
X061422Y03981D02*
Y040145D01*
X061589D01*
X061645Y040089D01*
Y039978D01*
X061589Y039922D01*
X061422D01*
X061534D02*
X061645Y03981D01*
X061757Y040145D02*
X06198D01*
Y040089D01*
X061757Y039866D01*
Y03981D01*
X031942Y025727D02*
Y026062D01*
X032109D01*
X032165Y026006D01*
Y025895D01*
X032109Y025839D01*
X031942D01*
X032276Y025727D02*
X032388D01*
X032332D01*
Y026062D01*
X032276Y026006D01*
X031858Y038206D02*
Y03854D01*
X032026D01*
X032081Y038485D01*
Y038373D01*
X032026Y038317D01*
X031858D01*
X032416Y038206D02*
X032193D01*
X032416Y038429D01*
Y038485D01*
X03236Y03854D01*
X032249D01*
X032193Y038485D01*
X045855Y036895D02*
Y036616D01*
X04591Y036561D01*
X046022D01*
X046078Y036616D01*
Y036895D01*
X046412Y036561D02*
X046189D01*
X046412Y036784D01*
Y036839D01*
X046357Y036895D01*
X046245D01*
X046189Y036839D01*
X038521Y023316D02*
X038465Y023261D01*
Y023149D01*
X038521Y023093D01*
X038576D01*
X038632Y023149D01*
Y023261D01*
X038688Y023316D01*
X038744D01*
X038799Y023261D01*
Y023149D01*
X038744Y023093D01*
X038855Y023428D02*
Y023651D01*
X038465Y023763D02*
X038799D01*
Y023986D01*
X038465Y02432D02*
Y024097D01*
X038799D01*
Y02432D01*
X038632Y024097D02*
Y024209D01*
X038465Y024432D02*
X038799D01*
Y024599D01*
X038744Y024655D01*
X038521D01*
X038465Y024599D01*
Y024432D01*
X038799Y024766D02*
Y024878D01*
Y024822D01*
X038465D01*
X038521Y024766D01*
X046339Y038349D02*
Y038294D01*
X04645Y038182D01*
X046562Y038294D01*
Y038349D01*
X04645Y038182D02*
Y038015D01*
X046673D02*
X046785D01*
X046729D01*
Y038349D01*
X046673Y038294D01*
X045492Y021696D02*
X045771D01*
X045827Y021752D01*
Y021863D01*
X045771Y021919D01*
X045492D01*
X045548Y022253D02*
X045492Y022198D01*
Y022086D01*
X045548Y02203D01*
X045604D01*
X04566Y022086D01*
Y022198D01*
X045715Y022253D01*
X045771D01*
X045827Y022198D01*
Y022086D01*
X045771Y02203D01*
X045492Y022365D02*
X045827D01*
Y022532D01*
X045771Y022588D01*
X045715D01*
X04566Y022532D01*
Y022365D01*
Y022532D01*
X045604Y022588D01*
X045548D01*
X045492Y022532D01*
Y022365D01*
X045883Y022699D02*
Y022922D01*
X045492Y023034D02*
X045771D01*
X045827Y02309D01*
Y023201D01*
X045771Y023257D01*
X045492D01*
X045827Y023369D02*
X045604D01*
X045492Y02348D01*
X045604Y023592D01*
X045827D01*
X04566D01*
Y023369D01*
X045827Y023703D02*
X045492D01*
Y02387D01*
X045548Y023926D01*
X04566D01*
X045715Y02387D01*
Y023703D01*
Y023815D02*
X045827Y023926D01*
X045492Y024038D02*
Y024261D01*
Y024149D01*
X045827D01*
Y024372D02*
Y024484D01*
Y024428D01*
X045492D01*
X045548Y024372D01*
X039823Y029806D02*
Y029527D01*
X039879Y029471D01*
X03999D01*
X040046Y029527D01*
Y029806D01*
X040325Y029471D02*
Y029806D01*
X040158Y029639D01*
X040381D01*
X054004Y037399D02*
Y03712D01*
X05406Y037064D01*
X054171D01*
X054227Y03712D01*
Y037399D01*
X054338Y037343D02*
X054394Y037399D01*
X054506D01*
X054562Y037343D01*
Y037287D01*
X054506Y037231D01*
X05445D01*
X054506D01*
X054562Y037176D01*
Y03712D01*
X054506Y037064D01*
X054394D01*
X054338Y03712D01*
X045217Y029334D02*
X04544D01*
X045328D01*
Y028999D01*
X045551Y029334D02*
X045774Y028999D01*
Y029334D02*
X045551Y028999D01*
X045886Y028943D02*
X046109D01*
X04622Y029334D02*
Y028999D01*
X046443D01*
X046778Y029334D02*
X046555D01*
Y028999D01*
X046778D01*
X046555Y029166D02*
X046666D01*
X046889Y029334D02*
Y028999D01*
X047057D01*
X047112Y029055D01*
Y029278D01*
X047057Y029334D01*
X046889D01*
X047224Y028999D02*
X047335D01*
X04728D01*
Y029334D01*
X047224Y029278D01*
X045374Y026775D02*
Y027109D01*
X045541D01*
X045597Y027053D01*
Y026942D01*
X045541Y026886D01*
X045374D01*
X045486D02*
X045597Y026775D01*
X045709Y027109D02*
X045932Y026775D01*
Y027109D02*
X045709Y026775D01*
X046043Y026719D02*
X046266D01*
X046378Y027109D02*
Y026775D01*
X046601D01*
X046935Y027109D02*
X046712D01*
Y026775D01*
X046935D01*
X046712Y026942D02*
X046824D01*
X047047Y027109D02*
Y026775D01*
X047214D01*
X04727Y02683D01*
Y027053D01*
X047214Y027109D01*
X047047D01*
X047381Y026775D02*
X047493D01*
X047437D01*
Y027109D01*
X047381Y027053D01*
X040138Y022523D02*
X039803D01*
Y02269D01*
X039859Y022746D01*
X039971D01*
X040026Y02269D01*
Y022523D01*
Y022634D02*
X040138Y022746D01*
Y022857D02*
Y022969D01*
Y022913D01*
X039803D01*
X039859Y022857D01*
Y023136D02*
X039803Y023192D01*
Y023303D01*
X039859Y023359D01*
X039915D01*
X039971Y023303D01*
Y023247D01*
Y023303D01*
X040026Y023359D01*
X040082D01*
X040138Y023303D01*
Y023192D01*
X040082Y023136D01*
X056209Y039859D02*
Y040194D01*
X056376D01*
X056432Y040138D01*
Y040027D01*
X056376Y039971D01*
X056209D01*
X05632D02*
X056432Y039859D01*
X056543Y039915D02*
X056599Y039859D01*
X05671D01*
X056766Y039915D01*
Y040138D01*
X05671Y040194D01*
X056599D01*
X056543Y040138D01*
Y040082D01*
X056599Y040027D01*
X056766D01*
X065146Y029899D02*
X064811D01*
Y030066D01*
X064867Y030122D01*
X064978D01*
X065034Y030066D01*
Y029899D01*
Y03001D02*
X065146Y030122D01*
Y030233D02*
Y030345D01*
Y030289D01*
X064811D01*
X064867Y030233D01*
X065146Y030735D02*
Y030512D01*
X064923Y030735D01*
X064867D01*
X064811Y030679D01*
Y030568D01*
X064867Y030512D01*
X051477Y030121D02*
Y030456D01*
X051644D01*
X0517Y0304D01*
Y030288D01*
X051644Y030233D01*
X051477D01*
X051588D02*
X0517Y030121D01*
X051811D02*
X051923D01*
X051867D01*
Y030456D01*
X051811Y0304D01*
X05209Y030121D02*
X052201D01*
X052146D01*
Y030456D01*
X05209Y0304D01*
X051555Y028507D02*
Y028841D01*
X051723D01*
X051778Y028786D01*
Y028674D01*
X051723Y028618D01*
X051555D01*
X051667D02*
X051778Y028507D01*
X05189D02*
X052001D01*
X051946D01*
Y028841D01*
X05189Y028786D01*
X052169D02*
X052224Y028841D01*
X052336D01*
X052392Y028786D01*
Y028563D01*
X052336Y028507D01*
X052224D01*
X052169Y028563D01*
Y028786D01*
X04441Y035653D02*
Y035987D01*
X044577D01*
X044633Y035931D01*
Y03582D01*
X044577Y035764D01*
X04441D01*
X044521D02*
X044633Y035653D01*
X044967Y035987D02*
X044856Y035931D01*
X044744Y03582D01*
Y035708D01*
X0448Y035653D01*
X044911D01*
X044967Y035708D01*
Y035764D01*
X044911Y03582D01*
X044744D01*
X049882Y037877D02*
X049548D01*
Y038044D01*
X049603Y0381D01*
X049715D01*
X049771Y038044D01*
Y037877D01*
Y037988D02*
X049882Y0381D01*
X049548Y038434D02*
Y038211D01*
X049715D01*
X049659Y038323D01*
Y038379D01*
X049715Y038434D01*
X049826D01*
X049882Y038379D01*
Y038267D01*
X049826Y038211D01*
X050571Y037877D02*
X050236D01*
Y038044D01*
X050292Y0381D01*
X050404D01*
X05046Y038044D01*
Y037877D01*
Y037988D02*
X050571Y0381D01*
Y038434D02*
Y038211D01*
X050348Y038434D01*
X050292D01*
X050236Y038379D01*
Y038267D01*
X050292Y038211D01*
X044811Y04169D02*
Y042025D01*
X044978D01*
X045034Y041969D01*
Y041857D01*
X044978Y041802D01*
X044811D01*
X044923D02*
X045034Y04169D01*
X045146D02*
X045257D01*
X045201D01*
Y042025D01*
X045146Y041969D01*
X043248Y040948D02*
Y040613D01*
X043471D01*
X04375D02*
Y040948D01*
X043583Y04078D01*
X043806D01*
X045158Y040908D02*
Y040574D01*
X045381D01*
X045492Y040853D02*
X045548Y040908D01*
X045659D01*
X045715Y040853D01*
Y040797D01*
X045659Y040741D01*
X045604D01*
X045659D01*
X045715Y040685D01*
Y04063D01*
X045659Y040574D01*
X045548D01*
X045492Y04063D01*
X047185Y040908D02*
Y040574D01*
X047408D01*
X047743D02*
X04752D01*
X047743Y040797D01*
Y040853D01*
X047687Y040908D01*
X047575D01*
X04752Y040853D01*
X049252Y040889D02*
Y040554D01*
X049475D01*
X049587D02*
X049698D01*
X049642D01*
Y040889D01*
X049587Y040833D01*
X045709Y025042D02*
Y024708D01*
X045876D01*
X045932Y024763D01*
Y024986D01*
X045876Y025042D01*
X045709D01*
X046266D02*
X046043D01*
Y024875D01*
X046155Y024931D01*
X046211D01*
X046266Y024875D01*
Y024763D01*
X046211Y024708D01*
X046099D01*
X046043Y024763D01*
X04563Y031932D02*
Y031597D01*
X045797D01*
X045853Y031653D01*
Y031876D01*
X045797Y031932D01*
X04563D01*
X046132Y031597D02*
Y031932D01*
X045965Y031765D01*
X046188D01*
X045591Y032975D02*
Y032641D01*
X045758D01*
X045814Y032696D01*
Y032919D01*
X045758Y032975D01*
X045591D01*
X045925Y032919D02*
X045981Y032975D01*
X046093D01*
X046148Y032919D01*
Y032864D01*
X046093Y032808D01*
X046037D01*
X046093D01*
X046148Y032752D01*
Y032696D01*
X046093Y032641D01*
X045981D01*
X045925Y032696D01*
X047615Y025482D02*
X047559Y025426D01*
Y025315D01*
X047615Y025259D01*
X047838D01*
X047894Y025315D01*
Y025426D01*
X047838Y025482D01*
X047894Y025816D02*
Y025593D01*
X047671Y025816D01*
X047615D01*
X047559Y025761D01*
Y025649D01*
X047615Y025593D01*
X047894Y026095D02*
X047559D01*
X047727Y025928D01*
Y026151D01*
X052339Y025482D02*
X052284Y025426D01*
Y025315D01*
X052339Y025259D01*
X052563D01*
X052618Y025315D01*
Y025426D01*
X052563Y025482D01*
X052618Y025816D02*
Y025593D01*
X052395Y025816D01*
X052339D01*
X052284Y025761D01*
Y025649D01*
X052339Y025593D01*
Y025928D02*
X052284Y025984D01*
Y026095D01*
X052339Y026151D01*
X052395D01*
X052451Y026095D01*
Y026039D01*
Y026095D01*
X052507Y026151D01*
X052563D01*
X052618Y026095D01*
Y025984D01*
X052563Y025928D01*
X044151Y025797D02*
X044095Y025741D01*
Y02563D01*
X044151Y025574D01*
X044374D01*
X044429Y02563D01*
Y025741D01*
X044374Y025797D01*
X044429Y026131D02*
Y025908D01*
X044206Y026131D01*
X044151D01*
X044095Y026076D01*
Y025964D01*
X044151Y025908D01*
Y026243D02*
X044095Y026299D01*
Y02641D01*
X044151Y026466D01*
X044374D01*
X044429Y02641D01*
Y026299D01*
X044374Y026243D01*
X044151D01*
X0648Y031334D02*
X064744Y031279D01*
Y031167D01*
X0648Y031111D01*
X065023D01*
X065078Y031167D01*
Y031279D01*
X065023Y031334D01*
X065078Y031446D02*
Y031557D01*
Y031502D01*
X064744D01*
X0648Y031446D01*
X064744Y031948D02*
X0648Y031836D01*
X064911Y031725D01*
X065023D01*
X065078Y03178D01*
Y031892D01*
X065023Y031948D01*
X064967D01*
X064911Y031892D01*
Y031725D01*
X06532Y031363D02*
X065264Y031307D01*
Y031196D01*
X06532Y03114D01*
X065543D01*
X065598Y031196D01*
Y031307D01*
X065543Y031363D01*
X065598Y031475D02*
Y031586D01*
Y03153D01*
X065264D01*
X06532Y031475D01*
X065264Y031976D02*
Y031753D01*
X065431D01*
X065375Y031865D01*
Y031921D01*
X065431Y031976D01*
X065543D01*
X065598Y031921D01*
Y031809D01*
X065543Y031753D01*
X047363Y033565D02*
X047307Y033621D01*
X047195D01*
X04714Y033565D01*
Y033342D01*
X047195Y033286D01*
X047307D01*
X047363Y033342D01*
X047474Y033286D02*
X047586D01*
X04753D01*
Y033621D01*
X047474Y033565D01*
X047753D02*
X047809Y033621D01*
X04792D01*
X047976Y033565D01*
Y033509D01*
X04792Y033453D01*
X047864D01*
X04792D01*
X047976Y033398D01*
Y033342D01*
X04792Y033286D01*
X047809D01*
X047753Y033342D01*
X044495Y036896D02*
X044439Y036952D01*
X044328D01*
X044272Y036896D01*
Y036673D01*
X044328Y036617D01*
X044439D01*
X044495Y036673D01*
X044606Y036617D02*
X044718D01*
X044662D01*
Y036952D01*
X044606Y036896D01*
X044885Y036617D02*
X044997D01*
X044941D01*
Y036952D01*
X044885Y036896D01*
X044542Y033583D02*
X044486Y033639D01*
X044375D01*
X044319Y033583D01*
Y03336D01*
X044375Y033304D01*
X044486D01*
X044542Y03336D01*
X044653Y033304D02*
X044765D01*
X044709D01*
Y033639D01*
X044653Y033583D01*
X044932D02*
X044988Y033639D01*
X045099D01*
X045155Y033583D01*
Y03336D01*
X045099Y033304D01*
X044988D01*
X044932Y03336D01*
Y033583D01*
X043727Y034849D02*
X043671Y034904D01*
X04356D01*
X043504Y034849D01*
Y034626D01*
X04356Y03457D01*
X043671D01*
X043727Y034626D01*
X043839D02*
X043894Y03457D01*
X044006D01*
X044062Y034626D01*
Y034849D01*
X044006Y034904D01*
X043894D01*
X043839Y034849D01*
Y034793D01*
X043894Y034737D01*
X044062D01*
X048827Y038398D02*
X048771Y038454D01*
X04866D01*
X048604Y038398D01*
Y038175D01*
X04866Y038119D01*
X048771D01*
X048827Y038175D01*
X048938Y038398D02*
X048994Y038454D01*
X049106D01*
X049161Y038398D01*
Y038342D01*
X049106Y038287D01*
X049161Y038231D01*
Y038175D01*
X049106Y038119D01*
X048994D01*
X048938Y038175D01*
Y038231D01*
X048994Y038287D01*
X048938Y038342D01*
Y038398D01*
X048994Y038287D02*
X049106D01*
X047861Y036561D02*
X047805Y036617D01*
X047694D01*
X047638Y036561D01*
Y036338D01*
X047694Y036282D01*
X047805D01*
X047861Y036338D01*
X048196Y036617D02*
X048084Y036561D01*
X047972Y03645D01*
Y036338D01*
X048028Y036282D01*
X04814D01*
X048196Y036338D01*
Y036394D01*
X04814Y03645D01*
X047972D01*
X04794Y038274D02*
X047884Y03833D01*
X047772D01*
X047717Y038274D01*
Y038051D01*
X047772Y037995D01*
X047884D01*
X04794Y038051D01*
X048218Y037995D02*
Y03833D01*
X048051Y038162D01*
X048274D01*
X044573Y037441D02*
X044517Y037497D01*
X044406D01*
X04435Y037441D01*
Y037218D01*
X044406Y037162D01*
X044517D01*
X044573Y037218D01*
X044685Y037441D02*
X04474Y037497D01*
X044852D01*
X044908Y037441D01*
Y037385D01*
X044852Y03733D01*
X044796D01*
X044852D01*
X044908Y037274D01*
Y037218D01*
X044852Y037162D01*
X04474D01*
X044685Y037218D01*
D11*
X045942Y036138D02*
G03*
X045943Y036132I-000019J-000006D01*
G01*
X044569Y031243D02*
G03*
X044569Y031243I-000022J0D01*
G01*
X045514Y033172D02*
G03*
X045514Y033172I-000022J0D01*
G01*
X063038Y038932D02*
X063488D01*
X064048D02*
X064498D01*
X063518Y040542D02*
X064018D01*
X063518Y039542D02*
Y040542D01*
Y039542D02*
X064018D01*
Y040542D01*
X064498Y038932D02*
Y041152D01*
X063038Y038932D02*
Y041152D01*
X063488D01*
X064048D02*
X064498D01*
X057762Y038932D02*
X058212D01*
X058772D02*
X059222D01*
X058242Y040542D02*
X058742D01*
X058242Y039542D02*
Y040542D01*
Y039542D02*
X058742D01*
Y040542D01*
X059222Y038932D02*
Y041152D01*
X057762Y038932D02*
Y041152D01*
X058212D01*
X058772D02*
X059222D01*
X054369Y038932D02*
X054819D01*
X055379D02*
X055829D01*
X054849Y040542D02*
X055349D01*
X054849Y039542D02*
Y040542D01*
Y039542D02*
X055349D01*
Y040542D01*
X055829Y038932D02*
Y041152D01*
X054369Y038932D02*
Y041152D01*
X054819D01*
X055379D02*
X055829D01*
X063113Y042244D02*
X063014Y042344D01*
X062814D01*
X062714Y042244D01*
Y042144D01*
X062814Y042044D01*
X063014D01*
X063113Y041945D01*
Y041845D01*
X063014Y041745D01*
X062814D01*
X062714Y041845D01*
X063313Y042344D02*
Y041745D01*
X063513Y041945D01*
X063713Y041745D01*
Y042344D01*
X063913Y041745D02*
X064113D01*
X064013D01*
Y042344D01*
X063913Y042244D01*
X058173Y042522D02*
X057773D01*
Y041922D01*
X058173D01*
X057773Y042222D02*
X057973D01*
X058372Y041922D02*
Y042522D01*
X058772Y041922D01*
Y042522D01*
X058972Y041922D02*
X059172D01*
X059072D01*
Y042522D01*
X058972Y042422D01*
X048779Y029198D02*
X049178Y028799D01*
X048779D02*
X049178Y029198D01*
X048779Y028998D02*
X049178D01*
X048979Y028799D02*
Y029198D01*
X049778Y028699D02*
X049378D01*
X049778Y029098D01*
Y029198D01*
X049678Y029298D01*
X049478D01*
X049378Y029198D01*
X049134Y041656D02*
Y041991D01*
X049301D01*
X049357Y041935D01*
Y041824D01*
X049301Y041768D01*
X049134D01*
X049246D02*
X049357Y041656D01*
X049469Y041601D02*
X049692D01*
X049803Y041656D02*
X049915D01*
X049859D01*
Y041991D01*
X049803Y041935D01*
X046752Y041676D02*
Y042011D01*
X046919D01*
X046975Y041955D01*
Y041843D01*
X046919Y041788D01*
X046752D01*
X046864D02*
X046975Y041676D01*
X047087Y04162D02*
X04731D01*
X047644Y041676D02*
X047421D01*
X047644Y041899D01*
Y041955D01*
X047588Y042011D01*
X047477D01*
X047421Y041955D01*
X047658Y022365D02*
X047937D01*
X047992Y022421D01*
Y022532D01*
X047937Y022588D01*
X047658D01*
X047713Y022923D02*
X047658Y022867D01*
Y022755D01*
X047713Y0227D01*
X047769D01*
X047825Y022755D01*
Y022867D01*
X047881Y022923D01*
X047937D01*
X047992Y022867D01*
Y022755D01*
X047937Y0227D01*
X047658Y023034D02*
X047992D01*
Y023201D01*
X047937Y023257D01*
X047881D01*
X047825Y023201D01*
Y023034D01*
Y023201D01*
X047769Y023257D01*
X047713D01*
X047658Y023201D01*
Y023034D01*
X047992Y023369D02*
Y02348D01*
Y023424D01*
X047658D01*
X047713Y023369D01*
X054594Y042552D02*
X054797D01*
X054696D01*
Y041946D01*
X054594D01*
X054797D01*
X055403Y042552D02*
X055201D01*
X0551Y042451D01*
Y042047D01*
X055201Y041946D01*
X055403D01*
X055504Y042047D01*
Y042451D01*
X055403Y042552D01*
X055706Y041946D02*
X055908D01*
X055807D01*
Y042552D01*
X055706Y042451D01*
X041Y04165D02*
Y041985D01*
X041167D01*
X041223Y041929D01*
Y041817D01*
X041167Y041762D01*
X041D01*
X041112D02*
X041223Y04165D01*
X041335D02*
X041446D01*
X04139D01*
Y041985D01*
X041335Y041929D01*
X041613Y041985D02*
X041836D01*
Y041929D01*
X041613Y041706D01*
Y04165D01*
X054469Y023626D02*
X054134D01*
Y023793D01*
X05419Y023849D01*
X054301D01*
X054357Y023793D01*
Y023626D01*
Y023737D02*
X054469Y023849D01*
Y02396D02*
Y024072D01*
Y024016D01*
X054134D01*
X05419Y02396D01*
X054134Y024462D02*
X05419Y024351D01*
X054301Y024239D01*
X054413D01*
X054469Y024295D01*
Y024406D01*
X054413Y024462D01*
X054357D01*
X054301Y024406D01*
Y024239D01*
X041673Y035298D02*
Y035633D01*
X041841D01*
X041896Y035577D01*
Y035465D01*
X041841Y03541D01*
X041673D01*
X041785D02*
X041896Y035298D01*
X042175D02*
Y035633D01*
X042008Y035465D01*
X042231D01*
X041654Y035869D02*
Y036204D01*
X041821D01*
X041877Y036148D01*
Y036036D01*
X041821Y035981D01*
X041654D01*
X041765D02*
X041877Y035869D01*
X041988Y036148D02*
X042044Y036204D01*
X042156D01*
X042211Y036148D01*
Y036092D01*
X042156Y036036D01*
X0421D01*
X042156D01*
X042211Y035981D01*
Y035925D01*
X042156Y035869D01*
X042044D01*
X041988Y035925D01*
X052291Y022871D02*
X052626D01*
Y023094D01*
X052291Y023429D02*
Y023206D01*
X052626D01*
Y023429D01*
X052459Y023206D02*
Y023317D01*
X052291Y02354D02*
X052626D01*
Y023708D01*
X05257Y023763D01*
X052347D01*
X052291Y023708D01*
Y02354D01*
X052682Y023875D02*
Y024098D01*
X052626Y024209D02*
X052291D01*
X052403Y024321D01*
X052291Y024432D01*
X052626D01*
X052291Y024767D02*
Y024544D01*
X052626D01*
Y024767D01*
X052459Y024544D02*
Y024655D01*
X052626Y024878D02*
Y02499D01*
Y024934D01*
X052291D01*
X052347Y024878D01*
X040205Y038462D02*
X040539D01*
Y038685D01*
X040205Y039019D02*
Y038796D01*
X040539D01*
Y039019D01*
X040372Y038796D02*
Y038908D01*
X040205Y039131D02*
X040539D01*
Y039298D01*
X040484Y039354D01*
X040261D01*
X040205Y039298D01*
Y039131D01*
X040595Y039465D02*
Y039688D01*
X040539Y0398D02*
X040316D01*
X040205Y039911D01*
X040316Y040023D01*
X040539D01*
X040372D01*
Y0398D01*
X040205Y040358D02*
Y040135D01*
X040372D01*
Y040246D01*
Y040135D01*
X040539D01*
X040205Y040692D02*
Y040469D01*
X040539D01*
Y040692D01*
X040372Y040469D02*
Y040581D01*
X040539Y040804D02*
Y040915D01*
Y040859D01*
X040205D01*
X040261Y040804D01*
X047635Y02682D02*
X047579Y026765D01*
Y026653D01*
X047635Y026597D01*
X047858D01*
X047914Y026653D01*
Y026765D01*
X047858Y02682D01*
X047914Y027155D02*
Y026932D01*
X047691Y027155D01*
X047635D01*
X047579Y027099D01*
Y026988D01*
X047635Y026932D01*
X047858Y027266D02*
X047914Y027322D01*
Y027434D01*
X047858Y02749D01*
X047635D01*
X047579Y027434D01*
Y027322D01*
X047635Y027266D01*
X047691D01*
X047746Y027322D01*
Y02749D01*
X052379Y026663D02*
X052323Y026607D01*
Y026496D01*
X052379Y02644D01*
X052602D01*
X052658Y026496D01*
Y026607D01*
X052602Y026663D01*
X052658Y026997D02*
Y026774D01*
X052435Y026997D01*
X052379D01*
X052323Y026942D01*
Y02683D01*
X052379Y026774D01*
X052323Y027332D02*
X052379Y027221D01*
X05249Y027109D01*
X052602D01*
X052658Y027165D01*
Y027276D01*
X052602Y027332D01*
X052546D01*
X05249Y027276D01*
Y027109D01*
D12*
X040797Y029845D02*
G03*
X040797Y029845I-000049J0D01*
G01*
X060989Y024653D02*
Y024987D01*
X061156D01*
X061212Y024932D01*
Y02482D01*
X061156Y024764D01*
X060989D01*
X061323Y024932D02*
X061379Y024987D01*
X061491D01*
X061547Y024932D01*
Y024876D01*
X061491Y02482D01*
X061435D01*
X061491D01*
X061547Y024764D01*
Y024709D01*
X061491Y024653D01*
X061379D01*
X061323Y024709D01*
D13*
X041683Y029511D02*
G03*
X041683Y029511I-000118J0D01*
G01*
D14*
X051855Y021273D02*
Y021863D01*
X051855Y022739D02*
Y02333D01*
X048381Y021273D02*
X051855D01*
X048381D02*
Y021863D01*
X04838Y022739D02*
Y02333D01*
X044225Y038862D02*
Y039649D01*
Y040437D01*
X04265Y038862D02*
Y039649D01*
Y040437D01*
X04624Y038862D02*
Y039649D01*
Y040437D01*
X044666Y038862D02*
Y039649D01*
Y040437D01*
X048248Y038862D02*
Y039649D01*
Y040437D01*
X046673Y038862D02*
Y039649D01*
Y040437D01*
X050269Y038862D02*
Y039649D01*
Y040437D01*
X048695Y038862D02*
Y039649D01*
Y040437D01*
D15*
X05278Y023271D02*
X05345D01*
X05278D02*
Y024671D01*
X05345D01*
Y023271D02*
Y024671D01*
X054892Y027227D02*
Y029786D01*
Y027227D02*
X061979D01*
Y029786D01*
X054892Y037011D02*
Y037267D01*
X055856D01*
X061014D02*
X061979D01*
Y037011D02*
Y037267D01*
X048819Y026027D02*
Y027404D01*
X049351D01*
X050847D02*
X051378D01*
Y026027D02*
Y027404D01*
X040822Y03885D02*
Y04025D01*
Y03885D02*
X041492D01*
Y04025D01*
X040822D02*
X041492D01*
X045748Y025131D02*
Y025623D01*
X04626D01*
X045591D02*
X045748D01*
X045591Y025131D02*
X045748D01*
X04626D01*
X038942Y023299D02*
X039612D01*
X038942D02*
Y024699D01*
X039612D01*
Y023299D02*
Y024699D01*
X045539Y028045D02*
X046939D01*
X045539Y027375D02*
Y028045D01*
Y027375D02*
X046939D01*
Y028045D01*
X045539Y028845D02*
X046939D01*
X045539Y028175D02*
Y028845D01*
Y028175D02*
X046939D01*
Y028845D01*
X046449Y037759D02*
X046662D01*
X046449Y036775D02*
X046662D01*
D16*
X05336Y023801D02*
Y024141D01*
X05286Y023801D02*
Y024141D01*
X041412Y03938D02*
Y03972D01*
X040912Y03938D02*
Y03972D01*
X039522Y023829D02*
Y024169D01*
X039022Y023829D02*
Y024169D01*
X046069Y027455D02*
X046409D01*
X046069Y027955D02*
X046409D01*
X046069Y028255D02*
X046409D01*
X046069Y028755D02*
X046409D01*
D17*
X053549Y023557D02*
X054049D01*
Y024457D01*
Y024657D01*
X053549D02*
X054049D01*
X053549Y023557D02*
Y024657D01*
X053599Y023957D02*
X053999D01*
Y024257D01*
X053599D02*
X053999D01*
X053599Y023957D02*
Y024257D01*
X064637Y030182D02*
Y030482D01*
X064237Y030182D02*
X064637D01*
X064237D02*
Y030482D01*
X064637D01*
X064687Y029782D02*
Y030882D01*
X064187Y029782D02*
X064687D01*
X064187D02*
Y029982D01*
Y030882D01*
X064687D01*
X06212Y040606D02*
X06262D01*
X06212Y039706D02*
Y040606D01*
Y039506D02*
Y039706D01*
Y039506D02*
X06262D01*
Y040606D01*
X06217Y040206D02*
X06257D01*
X06217Y039906D02*
Y040206D01*
Y039906D02*
X06257D01*
Y040206D01*
X053478Y040606D02*
X053978D01*
X053478Y039706D02*
Y040606D01*
Y039506D02*
Y039706D01*
Y039506D02*
X053978D01*
Y040606D01*
X053528Y040206D02*
X053928D01*
X053528Y039906D02*
Y040206D01*
Y039906D02*
X053928D01*
Y040206D01*
X064637Y031422D02*
Y031722D01*
X064237Y031422D02*
X064637D01*
X064237D02*
Y031722D01*
X064637D01*
X064687Y031022D02*
Y032122D01*
X064187Y031022D02*
X064687D01*
X064187D02*
Y031222D01*
Y032122D01*
X064687D01*
X064046Y031413D02*
Y031713D01*
X063646Y031413D02*
X064046D01*
X063646D02*
Y031713D01*
X064046D01*
X064096Y031013D02*
Y032113D01*
X063596Y031013D02*
X064096D01*
X063596D02*
Y031213D01*
Y032113D01*
X064096D01*
X057354Y039906D02*
Y040206D01*
X056954Y039906D02*
X057354D01*
X056954D02*
Y040206D01*
X057354D01*
X057404Y039506D02*
Y040606D01*
X056904Y039506D02*
X057404D01*
X056904D02*
Y039706D01*
Y040606D01*
X057404D01*
X042704Y035695D02*
X043004D01*
Y035295D02*
Y035695D01*
X042704Y035295D02*
X043004D01*
X042704D02*
Y035695D01*
X042304Y035745D02*
X043404D01*
Y035245D02*
Y035745D01*
X043204Y035245D02*
X043404D01*
X042304D02*
X043204D01*
X042304D02*
Y035745D01*
X042704Y036246D02*
X043004D01*
Y035846D02*
Y036246D01*
X042704Y035846D02*
X043004D01*
X042704D02*
Y036246D01*
X042304Y036296D02*
X043404D01*
Y035796D02*
Y036296D01*
X043204Y035796D02*
X043404D01*
X042304D02*
X043204D01*
X042304D02*
Y036296D01*
X047783Y037821D02*
X048083D01*
Y037421D02*
Y037821D01*
X047783Y037421D02*
X048083D01*
X047783D02*
Y037821D01*
X047383Y037871D02*
X048483D01*
Y037371D02*
Y037871D01*
X048283Y037371D02*
X048483D01*
X047383D02*
X048283D01*
X047383D02*
Y037871D01*
X051749Y026762D02*
Y027062D01*
X052149D01*
Y026762D02*
Y027062D01*
X051749Y026762D02*
X052149D01*
X051699Y026362D02*
Y027462D01*
X052199D01*
Y027262D02*
Y027462D01*
Y026362D02*
Y027262D01*
X051699Y026362D02*
X052199D01*
X049555Y041043D02*
X049855D01*
X049555D02*
Y041443D01*
X049855D01*
Y041043D02*
Y041443D01*
X049155Y040993D02*
X050255D01*
X049155D02*
Y041493D01*
X049355D01*
X050255D01*
Y040993D02*
Y041493D01*
X047508Y041443D02*
X047808D01*
Y041043D02*
Y041443D01*
X047508Y041043D02*
X047808D01*
X047508D02*
Y041443D01*
X047108Y041493D02*
X048208D01*
Y040993D02*
Y041493D01*
X048008Y040993D02*
X048208D01*
X047108D02*
X048008D01*
X047108D02*
Y041493D01*
X041287Y041404D02*
X041587D01*
Y041004D02*
Y041404D01*
X041287Y041004D02*
X041587D01*
X041287D02*
Y041404D01*
X040887Y041454D02*
X041987D01*
Y040954D02*
Y041454D01*
X041787Y040954D02*
X041987D01*
X040887D02*
X041787D01*
X040887D02*
Y041454D01*
X047998Y026362D02*
X048498D01*
Y027262D01*
Y027462D01*
X047998D02*
X048498D01*
X047998Y026362D02*
Y027462D01*
X048048Y026762D02*
X048448D01*
Y027062D01*
X048048D02*
X048448D01*
X048048Y026762D02*
Y027062D01*
X048467Y025527D02*
Y025827D01*
X048067Y025527D02*
X048467D01*
X048067D02*
Y025827D01*
X048467D01*
X048517Y025127D02*
Y026227D01*
X048017Y025127D02*
X048517D01*
X048017D02*
Y025327D01*
Y026227D01*
X048517D01*
X052117Y025527D02*
Y025827D01*
X051717Y025527D02*
X052117D01*
X051717D02*
Y025827D01*
X052117D01*
X052167Y025127D02*
Y026227D01*
X051667Y025127D02*
X052167D01*
X051667D02*
Y025327D01*
Y026227D01*
X052167D01*
X044511Y026999D02*
Y027299D01*
X044111Y026999D02*
X044511D01*
X044111D02*
Y027299D01*
X044511D01*
X044561Y026599D02*
Y027699D01*
X044061Y026599D02*
X044561D01*
X044061D02*
Y026799D01*
Y027699D01*
X044561D01*
X039731Y023937D02*
Y024237D01*
X040131D01*
Y023937D02*
Y024237D01*
X039731Y023937D02*
X040131D01*
X039681Y023537D02*
Y024637D01*
X040181D01*
Y024437D02*
Y024637D01*
Y023537D02*
Y024437D01*
X039681Y023537D02*
X040181D01*
X050574Y037077D02*
Y037377D01*
X050174Y037077D02*
X050574D01*
X050174D02*
Y037377D01*
X050574D01*
X050624Y036677D02*
Y037777D01*
X050124Y036677D02*
X050624D01*
X050124D02*
Y036877D01*
Y037777D01*
X050624D01*
X049944Y037077D02*
Y037377D01*
X049544Y037077D02*
X049944D01*
X049544D02*
Y037377D01*
X049944D01*
X049994Y036677D02*
Y037777D01*
X049494Y036677D02*
X049994D01*
X049494D02*
Y036877D01*
Y037777D01*
X049994D01*
X045515Y037215D02*
Y037515D01*
X045115Y037215D02*
X045515D01*
X045115D02*
Y037515D01*
X045515D01*
X045565Y036815D02*
Y037915D01*
X045065Y036815D02*
X045565D01*
X045065D02*
Y037015D01*
Y037915D01*
X045565D01*
X047783Y037112D02*
X048083D01*
Y036712D02*
Y037112D01*
X047783Y036712D02*
X048083D01*
X047783D02*
Y037112D01*
X047383Y037162D02*
X048483D01*
Y036662D02*
Y037162D01*
X048283Y036662D02*
X048483D01*
X047383D02*
X048283D01*
X047383D02*
Y037162D01*
X05131Y028968D02*
Y029468D01*
Y028968D02*
X05221D01*
X05241D01*
Y029468D01*
X05131D02*
X05241D01*
X05171Y029018D02*
Y029418D01*
Y029018D02*
X05201D01*
Y029418D01*
X05171D02*
X05201D01*
X05131Y029518D02*
Y030018D01*
Y029518D02*
X05221D01*
X05241D01*
Y030018D01*
X05131D02*
X05241D01*
X05171Y029568D02*
Y029968D01*
Y029568D02*
X05201D01*
Y029968D01*
X05171D02*
X05201D01*
X046989Y032686D02*
Y033186D01*
Y032686D02*
X047889D01*
X048089D01*
Y033186D01*
X046989D02*
X048089D01*
X047389Y032736D02*
Y033136D01*
Y032736D02*
X047689D01*
Y033136D01*
X047389D02*
X047689D01*
X045255Y036032D02*
Y036532D01*
X044355D02*
X045255D01*
X044155D02*
X044355D01*
X044155Y036032D02*
Y036532D01*
Y036032D02*
X045255D01*
X044855Y036082D02*
Y036482D01*
X044555D02*
X044855D01*
X044555Y036082D02*
Y036482D01*
Y036082D02*
X044855D01*
X045255Y035048D02*
Y035548D01*
X044355D02*
X045255D01*
X044155D02*
X044355D01*
X044155Y035048D02*
Y035548D01*
Y035048D02*
X045255D01*
X044855Y035098D02*
Y035498D01*
X044555D02*
X044855D01*
X044555Y035098D02*
Y035498D01*
Y035098D02*
X044855D01*
X045255Y033749D02*
Y034249D01*
X044355D02*
X045255D01*
X044155D02*
X044355D01*
X044155Y033749D02*
Y034249D01*
Y033749D02*
X045255D01*
X044855Y033799D02*
Y034199D01*
X044555D02*
X044855D01*
X044555Y033799D02*
Y034199D01*
Y033799D02*
X044855D01*
X044509Y040993D02*
Y041493D01*
Y040993D02*
X045409D01*
X045609D01*
Y041493D01*
X044509D02*
X045609D01*
X044909Y041043D02*
Y041443D01*
Y041043D02*
X045209D01*
Y041443D01*
X044909D02*
X045209D01*
X045255Y034497D02*
Y034997D01*
X044355D02*
X045255D01*
X044155D02*
X044355D01*
X044155Y034497D02*
Y034997D01*
Y034497D02*
X045255D01*
X044855Y034547D02*
Y034947D01*
X044555D02*
X044855D01*
X044555Y034547D02*
Y034947D01*
Y034547D02*
X044855D01*
X048549Y037817D02*
X049049D01*
X048549Y036917D02*
Y037817D01*
Y036717D02*
Y036917D01*
Y036717D02*
X049049D01*
Y037817D01*
X048599Y037417D02*
X048999D01*
X048599Y037117D02*
Y037417D01*
Y037117D02*
X048999D01*
Y037417D01*
D18*
X061997Y023789D02*
X062163D01*
X06208D01*
Y024289D01*
X061997Y024206D01*
X062747Y023789D02*
X062413D01*
X062747Y024123D01*
Y024206D01*
X062663Y024289D01*
X062497D01*
X062413Y024206D01*
X062397Y022789D02*
X062563D01*
X06248D01*
Y023289D01*
X062397Y023206D01*
X061997Y022789D02*
X062163D01*
X06208D01*
Y023289D01*
X061997Y023206D01*
X055197Y022789D02*
X055363D01*
X05528D01*
Y023289D01*
X055197Y023206D01*
X05553Y023789D02*
X055197D01*
X05553Y024123D01*
Y024206D01*
X055447Y024289D01*
X05528D01*
X055197Y024206D01*
M02*
