G04*
G04 #@! TF.GenerationSoftware,Altium Limited,Altium Designer,20.0.1 (14)*
G04*
G04 Layer_Color=255*
%FSTAX24Y24*%
%MOIN*%
G70*
G01*
G75*
%ADD18R,0.0591X0.0394*%
G04:AMPARAMS|DCode=19|XSize=31.5mil|YSize=137.8mil|CornerRadius=1.6mil|HoleSize=0mil|Usage=FLASHONLY|Rotation=180.000|XOffset=0mil|YOffset=0mil|HoleType=Round|Shape=RoundedRectangle|*
%AMROUNDEDRECTD19*
21,1,0.0315,0.1346,0,0,180.0*
21,1,0.0283,0.1378,0,0,180.0*
1,1,0.0032,-0.0142,0.0673*
1,1,0.0032,0.0142,0.0673*
1,1,0.0032,0.0142,-0.0673*
1,1,0.0032,-0.0142,-0.0673*
%
%ADD19ROUNDEDRECTD19*%
G04:AMPARAMS|DCode=20|XSize=19.7mil|YSize=196.9mil|CornerRadius=1mil|HoleSize=0mil|Usage=FLASHONLY|Rotation=180.000|XOffset=0mil|YOffset=0mil|HoleType=Round|Shape=RoundedRectangle|*
%AMROUNDEDRECTD20*
21,1,0.0197,0.1949,0,0,180.0*
21,1,0.0177,0.1969,0,0,180.0*
1,1,0.0020,-0.0089,0.0974*
1,1,0.0020,0.0089,0.0974*
1,1,0.0020,0.0089,-0.0974*
1,1,0.0020,-0.0089,-0.0974*
%
%ADD20ROUNDEDRECTD20*%
G04:AMPARAMS|DCode=21|XSize=19.7mil|YSize=196.9mil|CornerRadius=1mil|HoleSize=0mil|Usage=FLASHONLY|Rotation=90.000|XOffset=0mil|YOffset=0mil|HoleType=Round|Shape=RoundedRectangle|*
%AMROUNDEDRECTD21*
21,1,0.0197,0.1949,0,0,90.0*
21,1,0.0177,0.1969,0,0,90.0*
1,1,0.0020,0.0974,0.0089*
1,1,0.0020,0.0974,-0.0089*
1,1,0.0020,-0.0974,-0.0089*
1,1,0.0020,-0.0974,0.0089*
%
%ADD21ROUNDEDRECTD21*%
G04:AMPARAMS|DCode=22|XSize=19.7mil|YSize=196.9mil|CornerRadius=1mil|HoleSize=0mil|Usage=FLASHONLY|Rotation=22.500|XOffset=0mil|YOffset=0mil|HoleType=Round|Shape=RoundedRectangle|*
%AMROUNDEDRECTD22*
21,1,0.0197,0.1949,0,0,22.5*
21,1,0.0177,0.1969,0,0,22.5*
1,1,0.0020,0.0455,-0.0866*
1,1,0.0020,0.0291,-0.0934*
1,1,0.0020,-0.0455,0.0866*
1,1,0.0020,-0.0291,0.0934*
%
%ADD22ROUNDEDRECTD22*%
G04:AMPARAMS|DCode=23|XSize=19.7mil|YSize=196.9mil|CornerRadius=1mil|HoleSize=0mil|Usage=FLASHONLY|Rotation=67.500|XOffset=0mil|YOffset=0mil|HoleType=Round|Shape=RoundedRectangle|*
%AMROUNDEDRECTD23*
21,1,0.0197,0.1949,0,0,67.5*
21,1,0.0177,0.1969,0,0,67.5*
1,1,0.0020,0.0934,-0.0291*
1,1,0.0020,0.0866,-0.0455*
1,1,0.0020,-0.0934,0.0291*
1,1,0.0020,-0.0866,0.0455*
%
%ADD23ROUNDEDRECTD23*%
G04:AMPARAMS|DCode=24|XSize=19.7mil|YSize=196.9mil|CornerRadius=1mil|HoleSize=0mil|Usage=FLASHONLY|Rotation=337.500|XOffset=0mil|YOffset=0mil|HoleType=Round|Shape=RoundedRectangle|*
%AMROUNDEDRECTD24*
21,1,0.0197,0.1949,0,0,337.5*
21,1,0.0177,0.1969,0,0,337.5*
1,1,0.0020,-0.0291,-0.0934*
1,1,0.0020,-0.0455,-0.0866*
1,1,0.0020,0.0291,0.0934*
1,1,0.0020,0.0455,0.0866*
%
%ADD24ROUNDEDRECTD24*%
G04:AMPARAMS|DCode=25|XSize=19.7mil|YSize=196.9mil|CornerRadius=1mil|HoleSize=0mil|Usage=FLASHONLY|Rotation=292.500|XOffset=0mil|YOffset=0mil|HoleType=Round|Shape=RoundedRectangle|*
%AMROUNDEDRECTD25*
21,1,0.0197,0.1949,0,0,292.5*
21,1,0.0177,0.1969,0,0,292.5*
1,1,0.0020,-0.0866,-0.0455*
1,1,0.0020,-0.0934,-0.0291*
1,1,0.0020,0.0866,0.0455*
1,1,0.0020,0.0934,0.0291*
%
%ADD25ROUNDEDRECTD25*%
%ADD26R,0.0236X0.0197*%
%ADD27R,0.0197X0.0236*%
G04:AMPARAMS|DCode=28|XSize=19.7mil|YSize=196.9mil|CornerRadius=1mil|HoleSize=0mil|Usage=FLASHONLY|Rotation=315.000|XOffset=0mil|YOffset=0mil|HoleType=Round|Shape=RoundedRectangle|*
%AMROUNDEDRECTD28*
21,1,0.0197,0.1949,0,0,315.0*
21,1,0.0177,0.1969,0,0,315.0*
1,1,0.0020,-0.0626,-0.0752*
1,1,0.0020,-0.0752,-0.0626*
1,1,0.0020,0.0626,0.0752*
1,1,0.0020,0.0752,0.0626*
%
%ADD28ROUNDEDRECTD28*%
G04:AMPARAMS|DCode=29|XSize=19.7mil|YSize=196.9mil|CornerRadius=1mil|HoleSize=0mil|Usage=FLASHONLY|Rotation=45.000|XOffset=0mil|YOffset=0mil|HoleType=Round|Shape=RoundedRectangle|*
%AMROUNDEDRECTD29*
21,1,0.0197,0.1949,0,0,45.0*
21,1,0.0177,0.1969,0,0,45.0*
1,1,0.0020,0.0752,-0.0626*
1,1,0.0020,0.0626,-0.0752*
1,1,0.0020,-0.0752,0.0626*
1,1,0.0020,-0.0626,0.0752*
%
%ADD29ROUNDEDRECTD29*%
%ADD30R,0.0472X0.0197*%
%ADD32R,0.0866X0.0157*%
%ADD33R,0.1969X0.0157*%
%ADD34R,0.0157X0.1969*%
%ADD44R,0.0433X0.0315*%
%ADD45R,0.0709X0.0394*%
%ADD46R,0.0709X0.0354*%
%ADD51C,0.0394*%
%ADD52C,0.0472*%
%ADD53C,0.0591*%
%ADD54R,0.0591X0.0591*%
D18*
X036334Y021286D02*
D03*
Y020578D02*
D03*
X034214Y021286D02*
D03*
Y020578D02*
D03*
D19*
X016516Y048931D02*
D03*
X017061D02*
D03*
X017606D02*
D03*
X018152D02*
D03*
X018697D02*
D03*
X019242D02*
D03*
X019787D02*
D03*
X020333D02*
D03*
X020878D02*
D03*
D20*
X018482Y032578D02*
D03*
X018915D02*
D03*
X018915Y028837D02*
D03*
X018482D02*
D03*
X018482Y021641D02*
D03*
X018915D02*
D03*
X018917Y0179D02*
D03*
X018484D02*
D03*
D21*
X020569Y030924D02*
D03*
Y030491D02*
D03*
X016829D02*
D03*
Y030924D02*
D03*
X020569Y019989D02*
D03*
Y019556D02*
D03*
X016831D02*
D03*
Y019989D02*
D03*
D22*
X036189Y018126D02*
D03*
X035789Y01796D02*
D03*
D23*
X037084Y019255D02*
D03*
X036918Y018855D02*
D03*
D24*
X034758Y01796D02*
D03*
X034358Y018126D02*
D03*
D25*
X033629Y018855D02*
D03*
X033463Y019255D02*
D03*
D26*
X035864Y030491D02*
D03*
Y030924D02*
D03*
X034683D02*
D03*
Y030491D02*
D03*
D27*
X03549Y031003D02*
D03*
X035057D02*
D03*
Y030412D02*
D03*
X03549D02*
D03*
D28*
X020192Y020924D02*
D03*
X019886Y021231D02*
D03*
X017225Y018601D02*
D03*
X017532Y018295D02*
D03*
D29*
X017532Y021249D02*
D03*
X017225Y020942D02*
D03*
X01987Y018295D02*
D03*
X020176Y018601D02*
D03*
D30*
X035825Y040607D02*
D03*
Y041123D02*
D03*
Y041666D02*
D03*
X03488D02*
D03*
Y041123D02*
D03*
Y040607D02*
D03*
Y042182D02*
D03*
X035825D02*
D03*
D32*
X018699Y030432D02*
D03*
Y030983D02*
D03*
X035274Y020046D02*
D03*
Y019495D02*
D03*
X018699Y020046D02*
D03*
Y019495D02*
D03*
D33*
X037242Y030432D02*
D03*
Y030983D02*
D03*
X033305D02*
D03*
Y030432D02*
D03*
D34*
X034998Y028837D02*
D03*
X035549D02*
D03*
Y032578D02*
D03*
X034998D02*
D03*
D44*
X052734Y029477D02*
D03*
Y029957D02*
D03*
Y030441D02*
D03*
Y030923D02*
D03*
Y031406D02*
D03*
Y031887D02*
D03*
X051789D02*
D03*
Y031406D02*
D03*
Y030923D02*
D03*
Y030441D02*
D03*
Y029957D02*
D03*
Y029477D02*
D03*
D45*
X052892Y042595D02*
D03*
Y041414D02*
D03*
Y040233D02*
D03*
X051593D02*
D03*
Y041414D02*
D03*
Y042595D02*
D03*
D46*
X051632Y020902D02*
D03*
Y02043D02*
D03*
Y019957D02*
D03*
Y019485D02*
D03*
Y019013D02*
D03*
Y01854D02*
D03*
X052931D02*
D03*
Y019013D02*
D03*
Y019485D02*
D03*
Y019957D02*
D03*
Y02043D02*
D03*
Y020902D02*
D03*
D51*
X017754Y038503D02*
D03*
D03*
D52*
X018738D02*
D03*
X019722D02*
D03*
X017754D02*
D03*
Y037204D02*
D03*
X019722D02*
D03*
X018738D02*
D03*
D53*
X012469Y039365D02*
D03*
Y040365D02*
D03*
Y041365D02*
D03*
Y042365D02*
D03*
X024949Y039361D02*
D03*
Y040361D02*
D03*
Y041361D02*
D03*
Y042361D02*
D03*
D54*
X012469Y043365D02*
D03*
X024949Y043361D02*
D03*
M02*
