M48
;Layer_Color=9474304
;FILE_FORMAT=2:4
INCH,LZ
;TYPE=PLATED
T1F00S00C0.0118
T2F00S00C0.0157
T3F00S00C0.0197
T4F00S00C0.0236
T5F00S00C0.0315
T6F00S00C0.0354
T7F00S00C0.0630
T8F00S00C0.1220
%
T01
X050923Y019485
X050963Y019957
X050963Y02043
X05364Y02043
Y020902
Y019485
Y019013
Y01854
X053325Y029446
X053329Y029953
X051199Y029957
X051207Y029477
X051435Y028422
X046514Y030666
X039045Y030007
X035492Y030179
X035049
X035049Y031237
X035492
X035925Y029081
X036299Y028737
X034616Y029013
X034075Y02978
X022844Y030341
X022439Y030934
X02049Y030048
X019348Y028444
X018039Y028946
X016937Y030048
X018454Y02348
X017805Y021572
X017037Y020578
X016014Y0204
X016949Y018904
X017648Y017733
X018071Y018078
X018699Y019261
Y020284
X019468Y021375
X019478Y021896
X020984Y02106
X020906Y019131
X020246Y019105
X019478Y017202
X022467Y019977
X02315Y021837
X014991Y019534
X014978Y030491
X013423Y032479
X013248Y032831
X016435Y031367
X018049Y032489
X019348Y032952
X021061Y031367
X022835Y032723
X02998Y032684
X030413Y032369
X030829Y044249
X031222
X031435Y042044
X03423Y04165
Y041139
X033679Y039957
X035805Y040115
X036238Y039052
X036459Y041123
Y041635
X034537Y034544
X034616Y032044
X034085Y031611
X033327Y032044
X035925
X036526Y031601
X047222Y03354
X047616
X051191Y031406
X0536Y032241
X05364Y040233
X051002
X051041Y042595
X051593Y043265
X05364Y043265
X056474Y042477
X047734Y04385
X047341
T02
X033115Y016549
X032092Y017646
X034619Y015878
X037803Y015971
X037311Y016522
X038541Y017615
X039171Y0192
X039338Y02043
X039753
X041454Y016217
X041869
X036604Y026788
X039764Y030715
X030817Y030991
X030343Y021631
X030049Y021924
X031041Y018284
X023159Y019711
X022017Y040294
X021602
X039783Y033107
T03
X018148Y04429
X02047Y04433
X01925Y046967
T04
X047Y016
X048
X049
X05
X051
X052
X053
X054
X055
X056
X057
X058
X059
X0595Y017
X0585
X0575
X0565
X0555
X0545
X0535
X0525
X0515
X0505
X0495
X0485
X0475
X048Y018
X049
X05
X051
X055
X056
X0575Y019
X059Y02
Y022
X0595Y023
X0585
X0575
X0565
X0555
X0545
X0535
X0525
X0515
X0505
X0495
X0485
X0475
X048Y022
X049
X05
X051
X052
X053
X054
X055
X056
Y027
X057
X058
X059
X0595Y028
X0585
X0575
X0565
X0555
X055Y027
X054
X053
X052
X051
X05
X049
X048
X047
X0475Y028
X0485
X0495
X0505
X05Y029
X049
X048
X047
X0485Y03
X05Y031
X0555Y03
X0565
X0575
X059Y031
Y029
Y018
X047
Y022
X0495Y021
X0465Y023
X0425
X0415
X0405
X0395
X0385
X0375
X0365
X0355
X0345
X0335
X0325
X0315
X032Y022
X033
X034
X035
X036
X037
X038
X039
X0385Y021
X0375
X038Y02
X037
X034
X033
X032
X0355Y017
X039Y016
X04
X041
X0405Y017
X0425
X042Y02
Y022
X0405Y019
X0465Y017
X046Y016
Y027
X0465Y028
X0425
X0415
X0405
X0395
X04Y027
X041
X042
Y029
Y031
X0405Y03
X039Y027
X038
X0345Y028
X0335
X033Y029
X0325Y03
X0315Y028
X032Y027
X033
X031
X03
X029
X0295Y028
X0305
X031Y029
X03
X0255Y028
X0245
X0235
X0225
X0215
X0205
X0195
X02Y027
X021
X022
X023
X024
X025
X0255Y023
X0245
X0235
X022Y022
Y018
X023
X0235Y019
X0205Y017
X021Y016
X02
X017
X016
Y018
X0175Y017
Y023
X0165
X016Y022
Y027
X017
X018
X019
X0175Y028
X0165
X016Y029
X0175Y03
X0215
X0235
X0295Y023
X0305
X03Y018
X0305Y017
X0295
X03Y016
X031
X029
X015
X014
X013
X012
X0125Y017
X0135
X0145
X014Y018
X013
X0155Y019
X015Y022
X014
X013
X0135Y023
X0145
X0155
X0125
X013Y027
X014
X015
X0155Y028
X015Y029
X0135Y028
X0125
X012Y027
X0145Y032
X0155
Y034
X0145
X0135
X0125
X0165
X0175
X018Y033
X0165Y032
X021Y033
X0225Y034
X0235
X0245
X0255
X0295
X0305
X031Y037
X03
X029
X0295Y038
X0305
X031Y039
X03
X0295Y044
X03Y045
X031
X029
X032
X033
X034
X035
X036
X037
X038
X039
X04
X041
X042
X0425Y044
X0415
X0405
X0395
X0385
X0375
X0365
X0355
X0345
X0335
X0325
X032Y041
X0325Y04
X032Y039
X0325Y038
X0335
X0345
X0355
X0365
X0375
X0385
X0395
X04Y037
X041
X042
X0425Y038
X042Y041
Y043
X0405Y042
Y04
X0395
X038Y039
X037
Y037
X038
X039
X036
X035
X034
X033
X032
X0315Y038
Y034
X0325
X032Y033
X0325Y032
X0365Y034
X0375
X038Y033
X039
X0395Y034
X0405
X0415
X0425
X042Y033
X0465Y034
X046Y037
X0465Y038
Y044
X046Y045
X0385Y042
X0345Y04
X047Y041
X049
X0495Y042
X0485
X049Y043
X05
X0505Y044
X0495
X0485
X049Y045
X05
X051
X052
X053
X0555Y044
X0565
X0575
X057Y043
X0575Y042
Y04
X0565
X0555
X056Y041
X055
X0555Y042
X0545
X055Y043
X0525Y042
X0515
X0525Y038
X0535
X0545
X0555
X0565
X0575
X0585
X0595
X059Y039
Y041
Y045
Y037
X058
X057
X056
X055
X054
X053
X052
X051
X05
X049
X048
X047
X0475Y038
X0485
X0495
X049Y039
X048
X047
X0475Y034
X0485
X0495
X0505
X0515
X0525
X0535
X0545
X0555Y032
X0565
X0575
X0595Y034
X057Y039
X056
X055
X054
X0495Y032
X0485
X048Y045
X047
T05
X017754Y037204
X018738
X019722
Y038503
X018738
X017754
T06
X012469Y039365
Y040365
Y041365
Y042365
Y043365
X024949Y043361
Y042361
Y041361
Y040361
Y039361
T07
X021827Y048715
X015567
T08
X023616Y048715
X013778
M30
