G04*
G04 #@! TF.GenerationSoftware,Altium Limited,Altium Designer,20.0.1 (14)*
G04*
G04 Layer_Color=8388736*
%FSTAX24Y24*%
%MOIN*%
G70*
G01*
G75*
%ADD12C,0.0079*%
D12*
X034821Y019357D02*
X034821Y020184D01*
X035726Y019357D02*
X035726Y020184D01*
X034821Y020184D02*
X035726Y020184D01*
X034821Y019357D02*
X035726Y019357D01*
X037695Y030294D02*
Y031121D01*
X036789Y030294D02*
Y031121D01*
Y030294D02*
X037695D01*
X036789Y031121D02*
X037695D01*
X03486Y028385D02*
X035687D01*
X03486Y02929D02*
X035687D01*
X03486Y028385D02*
Y02929D01*
X035687Y028385D02*
Y02929D01*
X03486Y03303D02*
X035687D01*
X03486Y032125D02*
X035687D01*
Y03303D01*
X03486Y032125D02*
Y03303D01*
X032852Y030294D02*
Y031121D01*
X033758Y030294D02*
Y031121D01*
X032852D02*
X033758D01*
X032852Y030294D02*
X033758D01*
X018246Y019357D02*
Y020184D01*
X019152Y019357D02*
Y020184D01*
X018246D02*
X019152D01*
X018246Y019357D02*
X019152D01*
X018246Y030294D02*
Y031121D01*
X019152Y030294D02*
Y031121D01*
X018246D02*
X019152D01*
X018246Y030294D02*
X019152D01*
M02*
