G04*
G04 #@! TF.GenerationSoftware,Altium Limited,Altium Designer,20.0.1 (14)*
G04*
G04 Layer_Color=32768*
%FSTAX24Y24*%
%MOIN*%
G70*
G01*
G75*
%ADD10C,0.0039*%
%ADD12C,0.0079*%
%ADD79C,0.0060*%
%ADD80C,0.0020*%
D10*
X035274Y019574D02*
Y019967D01*
X035077Y01977D02*
X03547D01*
X037242Y030511D02*
Y030904D01*
X037045Y030707D02*
X037439D01*
X035077Y028837D02*
X03547D01*
X035274Y028641D02*
Y029034D01*
X035077Y032578D02*
X03547D01*
X035274Y032381D02*
Y032774D01*
X033305Y030511D02*
Y030904D01*
X033108Y030707D02*
X033502D01*
X018699Y019574D02*
Y019967D01*
X018502Y01977D02*
X018896D01*
X018699Y030511D02*
Y030904D01*
X018502Y030707D02*
X018896D01*
D12*
X035726Y019357D02*
X035726Y020184D01*
X034821Y020184D02*
X035726Y020184D01*
X034821Y019357D02*
X034821Y020184D01*
X034821Y019357D02*
X035726Y019357D01*
X036789Y030294D02*
Y031121D01*
Y030294D02*
X037695D01*
Y031121D01*
X036789D02*
X037695D01*
X03486Y02929D02*
X035687D01*
X03486Y028385D02*
Y02929D01*
Y028385D02*
X035687D01*
Y02929D01*
X03486Y032125D02*
X035687D01*
Y03303D01*
X03486D02*
X035687D01*
X03486Y032125D02*
Y03303D01*
X033758Y030294D02*
Y031121D01*
X032852D02*
X033758D01*
X032852Y030294D02*
Y031121D01*
Y030294D02*
X033758D01*
X019152Y019357D02*
Y020184D01*
X018246D02*
X019152D01*
X018246Y019357D02*
Y020184D01*
Y019357D02*
X019152D01*
Y030294D02*
Y031121D01*
X018246D02*
X019152D01*
X018246Y030294D02*
Y031121D01*
Y030294D02*
X019152D01*
D79*
X036384Y021502D02*
Y021602D01*
X034164D02*
X036384D01*
X034164Y021502D02*
Y021602D01*
Y020222D02*
Y020323D01*
Y020222D02*
X036384D01*
Y020323D01*
Y021502D02*
X036564D01*
X033984D02*
X034164D01*
X033984Y020323D02*
Y021502D01*
Y020323D02*
X034164D01*
X036384D02*
X036564D01*
Y021502D01*
D80*
X052852Y029166D02*
Y032198D01*
X051671D02*
X052852D01*
X051671Y029166D02*
Y032198D01*
Y029166D02*
X052852D01*
X035943Y040371D02*
Y042418D01*
X034762D02*
X035943D01*
X034762Y040371D02*
Y042418D01*
Y040371D02*
X035943D01*
X051376Y042989D02*
X053108D01*
Y039839D02*
Y042989D01*
X051376Y039839D02*
X053108D01*
X051376D02*
Y042989D01*
X051415Y021296D02*
X051415Y018146D01*
X053148D01*
X053148Y021296D02*
X053148Y018146D01*
X051415Y021296D02*
X053148D01*
X036021Y030491D02*
Y030964D01*
X035707Y030491D02*
Y030964D01*
Y030491D02*
X036021D01*
X035707Y030964D02*
X036021D01*
X035018Y03116D02*
X03549D01*
X035018Y030846D02*
X03549D01*
Y03116D01*
X035018Y030846D02*
Y03116D01*
X035057Y030255D02*
X03553D01*
X035057Y030569D02*
X03553D01*
X035057Y030255D02*
Y030569D01*
X03553Y030255D02*
Y030569D01*
X034526Y030451D02*
Y030924D01*
X03484Y030451D02*
Y030924D01*
X034526D02*
X03484D01*
X034526Y030451D02*
X03484D01*
M02*
