G04*
G04 #@! TF.GenerationSoftware,Altium Limited,Altium Designer,20.0.1 (14)*
G04*
G04 Layer_Color=2752767*
%FSTAX24Y24*%
%MOIN*%
G70*
G01*
G75*
%ADD81C,0.0020*%
%ADD82C,0.0027*%
D81*
X017674Y038423D02*
Y038583D01*
X017834D01*
Y038423D01*
X017674D01*
Y038583D01*
X017834D01*
Y038423D01*
X017674D01*
X018658D02*
Y038583D01*
X018818D01*
Y038423D01*
X018658D01*
X019642D02*
Y038583D01*
X019802D01*
Y038423D01*
X019642D01*
X017674D02*
Y038583D01*
X017834D01*
Y038423D01*
X017674D01*
Y037124D02*
Y037284D01*
X017834D01*
Y037124D01*
X017674D01*
X019642D02*
Y037284D01*
X019802D01*
Y037124D01*
X019642D01*
X018658D02*
Y037284D01*
X018818D01*
Y037124D01*
X018658D01*
X0595Y02292D02*
X05942Y02308D01*
X05958D01*
X0595Y02292D01*
X059Y02192D02*
X05892Y02208D01*
X05908D01*
X059Y02192D01*
Y01992D02*
X05892Y02008D01*
X05908D01*
X059Y01992D01*
Y01792D02*
X05892Y01808D01*
X05908D01*
X059Y01792D01*
X0595Y01692D02*
X05942Y01708D01*
X05958D01*
X0595Y01692D01*
X059Y01592D02*
X05892Y01608D01*
X05908D01*
X059Y01592D01*
X0585Y02292D02*
X05842Y02308D01*
X05858D01*
X0585Y02292D01*
Y01692D02*
X05842Y01708D01*
X05858D01*
X0585Y01692D01*
X058Y01592D02*
X05792Y01608D01*
X05808D01*
X058Y01592D01*
X0575Y02292D02*
X05742Y02308D01*
X05758D01*
X0575Y02292D01*
Y01892D02*
X05742Y01908D01*
X05758D01*
X0575Y01892D01*
Y01692D02*
X05742Y01708D01*
X05758D01*
X0575Y01692D01*
X057Y01592D02*
X05692Y01608D01*
X05708D01*
X057Y01592D01*
X0565Y02292D02*
X05642Y02308D01*
X05658D01*
X0565Y02292D01*
X056Y02192D02*
X05592Y02208D01*
X05608D01*
X056Y02192D01*
Y01792D02*
X05592Y01808D01*
X05608D01*
X056Y01792D01*
X0565Y01692D02*
X05642Y01708D01*
X05658D01*
X0565Y01692D01*
X056Y01592D02*
X05592Y01608D01*
X05608D01*
X056Y01592D01*
X0555Y02292D02*
X05542Y02308D01*
X05558D01*
X0555Y02292D01*
X055Y02192D02*
X05492Y02208D01*
X05508D01*
X055Y02192D01*
Y01792D02*
X05492Y01808D01*
X05508D01*
X055Y01792D01*
X0555Y01692D02*
X05542Y01708D01*
X05558D01*
X0555Y01692D01*
X055Y01592D02*
X05492Y01608D01*
X05508D01*
X055Y01592D01*
X0545Y02292D02*
X05442Y02308D01*
X05458D01*
X0545Y02292D01*
X054Y02192D02*
X05392Y02208D01*
X05408D01*
X054Y02192D01*
X0545Y01692D02*
X05442Y01708D01*
X05458D01*
X0545Y01692D01*
X054Y01592D02*
X05392Y01608D01*
X05408D01*
X054Y01592D01*
X0535Y02292D02*
X05342Y02308D01*
X05358D01*
X0535Y02292D01*
X053Y02192D02*
X05292Y02208D01*
X05308D01*
X053Y02192D01*
X0535Y01692D02*
X05342Y01708D01*
X05358D01*
X0535Y01692D01*
X053Y01592D02*
X05292Y01608D01*
X05308D01*
X053Y01592D01*
X0525Y02292D02*
X05242Y02308D01*
X05258D01*
X0525Y02292D01*
X052Y02192D02*
X05192Y02208D01*
X05208D01*
X052Y02192D01*
X0525Y01692D02*
X05242Y01708D01*
X05258D01*
X0525Y01692D01*
X052Y01592D02*
X05192Y01608D01*
X05208D01*
X052Y01592D01*
X0515Y02292D02*
X05142Y02308D01*
X05158D01*
X0515Y02292D01*
X051Y02192D02*
X05092Y02208D01*
X05108D01*
X051Y02192D01*
Y01792D02*
X05092Y01808D01*
X05108D01*
X051Y01792D01*
X0515Y01692D02*
X05142Y01708D01*
X05158D01*
X0515Y01692D01*
X051Y01592D02*
X05092Y01608D01*
X05108D01*
X051Y01592D01*
X0505Y02292D02*
X05042Y02308D01*
X05058D01*
X0505Y02292D01*
X05Y02192D02*
X04992Y02208D01*
X05008D01*
X05Y02192D01*
Y01792D02*
X04992Y01808D01*
X05008D01*
X05Y01792D01*
X0505Y01692D02*
X05042Y01708D01*
X05058D01*
X0505Y01692D01*
X05Y01592D02*
X04992Y01608D01*
X05008D01*
X05Y01592D01*
X0495Y02292D02*
X04942Y02308D01*
X04958D01*
X0495Y02292D01*
X049Y02192D02*
X04892Y02208D01*
X04908D01*
X049Y02192D01*
X0495Y02092D02*
X04942Y02108D01*
X04958D01*
X0495Y02092D01*
X049Y01792D02*
X04892Y01808D01*
X04908D01*
X049Y01792D01*
X0495Y01692D02*
X04942Y01708D01*
X04958D01*
X0495Y01692D01*
X049Y01592D02*
X04892Y01608D01*
X04908D01*
X049Y01592D01*
X0485Y02292D02*
X04842Y02308D01*
X04858D01*
X0485Y02292D01*
X048Y02192D02*
X04792Y02208D01*
X04808D01*
X048Y02192D01*
Y01792D02*
X04792Y01808D01*
X04808D01*
X048Y01792D01*
X0485Y01692D02*
X04842Y01708D01*
X04858D01*
X0485Y01692D01*
X048Y01592D02*
X04792Y01608D01*
X04808D01*
X048Y01592D01*
X0475Y02292D02*
X04742Y02308D01*
X04758D01*
X0475Y02292D01*
X047Y02192D02*
X04692Y02208D01*
X04708D01*
X047Y02192D01*
Y01792D02*
X04692Y01808D01*
X04708D01*
X047Y01792D01*
X0475Y01692D02*
X04742Y01708D01*
X04758D01*
X0475Y01692D01*
X047Y01592D02*
X04692Y01608D01*
X04708D01*
X047Y01592D01*
X0465Y02292D02*
X04642Y02308D01*
X04658D01*
X0465Y02292D01*
Y01692D02*
X04642Y01708D01*
X04658D01*
X0465Y01692D01*
X046Y01592D02*
X04592Y01608D01*
X04608D01*
X046Y01592D01*
X0595Y03392D02*
X05942Y03408D01*
X05958D01*
X0595Y03392D01*
X059Y03092D02*
X05892Y03108D01*
X05908D01*
X059Y03092D01*
Y02892D02*
X05892Y02908D01*
X05908D01*
X059Y02892D01*
X0595Y02792D02*
X05942Y02808D01*
X05958D01*
X0595Y02792D01*
X059Y02692D02*
X05892Y02708D01*
X05908D01*
X059Y02692D01*
X0585Y02792D02*
X05842Y02808D01*
X05858D01*
X0585Y02792D01*
X058Y02692D02*
X05792Y02708D01*
X05808D01*
X058Y02692D01*
X0575Y03192D02*
X05742Y03208D01*
X05758D01*
X0575Y03192D01*
Y02992D02*
X05742Y03008D01*
X05758D01*
X0575Y02992D01*
Y02792D02*
X05742Y02808D01*
X05758D01*
X0575Y02792D01*
X057Y02692D02*
X05692Y02708D01*
X05708D01*
X057Y02692D01*
X0565Y03192D02*
X05642Y03208D01*
X05658D01*
X0565Y03192D01*
Y02992D02*
X05642Y03008D01*
X05658D01*
X0565Y02992D01*
Y02792D02*
X05642Y02808D01*
X05658D01*
X0565Y02792D01*
X056Y02692D02*
X05592Y02708D01*
X05608D01*
X056Y02692D01*
X0555Y03192D02*
X05542Y03208D01*
X05558D01*
X0555Y03192D01*
Y02992D02*
X05542Y03008D01*
X05558D01*
X0555Y02992D01*
Y02792D02*
X05542Y02808D01*
X05558D01*
X0555Y02792D01*
X055Y02692D02*
X05492Y02708D01*
X05508D01*
X055Y02692D01*
X0545Y03392D02*
X05442Y03408D01*
X05458D01*
X0545Y03392D01*
X054Y02692D02*
X05392Y02708D01*
X05408D01*
X054Y02692D01*
X0535Y03392D02*
X05342Y03408D01*
X05358D01*
X0535Y03392D01*
X053Y02692D02*
X05292Y02708D01*
X05308D01*
X053Y02692D01*
X0525Y03392D02*
X05242Y03408D01*
X05258D01*
X0525Y03392D01*
X052Y02692D02*
X05192Y02708D01*
X05208D01*
X052Y02692D01*
X0515Y03392D02*
X05142Y03408D01*
X05158D01*
X0515Y03392D01*
X051Y02692D02*
X05092Y02708D01*
X05108D01*
X051Y02692D01*
X0505Y03392D02*
X05042Y03408D01*
X05058D01*
X0505Y03392D01*
X05Y03092D02*
X04992Y03108D01*
X05008D01*
X05Y03092D01*
Y02892D02*
X04992Y02908D01*
X05008D01*
X05Y02892D01*
X0505Y02792D02*
X05042Y02808D01*
X05058D01*
X0505Y02792D01*
X05Y02692D02*
X04992Y02708D01*
X05008D01*
X05Y02692D01*
X0495Y03392D02*
X04942Y03408D01*
X04958D01*
X0495Y03392D01*
Y03192D02*
X04942Y03208D01*
X04958D01*
X0495Y03192D01*
X049Y02892D02*
X04892Y02908D01*
X04908D01*
X049Y02892D01*
X0495Y02792D02*
X04942Y02808D01*
X04958D01*
X0495Y02792D01*
X049Y02692D02*
X04892Y02708D01*
X04908D01*
X049Y02692D01*
X0485Y03392D02*
X04842Y03408D01*
X04858D01*
X0485Y03392D01*
Y03192D02*
X04842Y03208D01*
X04858D01*
X0485Y03192D01*
Y02992D02*
X04842Y03008D01*
X04858D01*
X0485Y02992D01*
X048Y02892D02*
X04792Y02908D01*
X04808D01*
X048Y02892D01*
X0485Y02792D02*
X04842Y02808D01*
X04858D01*
X0485Y02792D01*
X048Y02692D02*
X04792Y02708D01*
X04808D01*
X048Y02692D01*
X0475Y03392D02*
X04742Y03408D01*
X04758D01*
X0475Y03392D01*
X047Y02892D02*
X04692Y02908D01*
X04708D01*
X047Y02892D01*
X0475Y02792D02*
X04742Y02808D01*
X04758D01*
X0475Y02792D01*
X047Y02692D02*
X04692Y02708D01*
X04708D01*
X047Y02692D01*
X0465Y03392D02*
X04642Y03408D01*
X04658D01*
X0465Y03392D01*
Y02792D02*
X04642Y02808D01*
X04658D01*
X0465Y02792D01*
X046Y02692D02*
X04592Y02708D01*
X04608D01*
X046Y02692D01*
X059Y04492D02*
X05892Y04508D01*
X05908D01*
X059Y04492D01*
Y04092D02*
X05892Y04108D01*
X05908D01*
X059Y04092D01*
Y03892D02*
X05892Y03908D01*
X05908D01*
X059Y03892D01*
X0595Y03792D02*
X05942Y03808D01*
X05958D01*
X0595Y03792D01*
X059Y03692D02*
X05892Y03708D01*
X05908D01*
X059Y03692D01*
X0585Y03792D02*
X05842Y03808D01*
X05858D01*
X0585Y03792D01*
X058Y03692D02*
X05792Y03708D01*
X05808D01*
X058Y03692D01*
X0575Y04392D02*
X05742Y04408D01*
X05758D01*
X0575Y04392D01*
X057Y04292D02*
X05692Y04308D01*
X05708D01*
X057Y04292D01*
X0575Y04192D02*
X05742Y04208D01*
X05758D01*
X0575Y04192D01*
Y03992D02*
X05742Y04008D01*
X05758D01*
X0575Y03992D01*
X057Y03892D02*
X05692Y03908D01*
X05708D01*
X057Y03892D01*
X0575Y03792D02*
X05742Y03808D01*
X05758D01*
X0575Y03792D01*
X057Y03692D02*
X05692Y03708D01*
X05708D01*
X057Y03692D01*
X0565Y04392D02*
X05642Y04408D01*
X05658D01*
X0565Y04392D01*
X056Y04092D02*
X05592Y04108D01*
X05608D01*
X056Y04092D01*
X0565Y03992D02*
X05642Y04008D01*
X05658D01*
X0565Y03992D01*
X056Y03892D02*
X05592Y03908D01*
X05608D01*
X056Y03892D01*
X0565Y03792D02*
X05642Y03808D01*
X05658D01*
X0565Y03792D01*
X056Y03692D02*
X05592Y03708D01*
X05608D01*
X056Y03692D01*
X0555Y04392D02*
X05542Y04408D01*
X05558D01*
X0555Y04392D01*
X055Y04292D02*
X05492Y04308D01*
X05508D01*
X055Y04292D01*
X0555Y04192D02*
X05542Y04208D01*
X05558D01*
X0555Y04192D01*
X055Y04092D02*
X05492Y04108D01*
X05508D01*
X055Y04092D01*
X0555Y03992D02*
X05542Y04008D01*
X05558D01*
X0555Y03992D01*
X055Y03892D02*
X05492Y03908D01*
X05508D01*
X055Y03892D01*
X0555Y03792D02*
X05542Y03808D01*
X05558D01*
X0555Y03792D01*
X055Y03692D02*
X05492Y03708D01*
X05508D01*
X055Y03692D01*
X0545Y04192D02*
X05442Y04208D01*
X05458D01*
X0545Y04192D01*
X054Y03892D02*
X05392Y03908D01*
X05408D01*
X054Y03892D01*
X0545Y03792D02*
X05442Y03808D01*
X05458D01*
X0545Y03792D01*
X054Y03692D02*
X05392Y03708D01*
X05408D01*
X054Y03692D01*
X053Y04492D02*
X05292Y04508D01*
X05308D01*
X053Y04492D01*
X0535Y03792D02*
X05342Y03808D01*
X05358D01*
X0535Y03792D01*
X053Y03692D02*
X05292Y03708D01*
X05308D01*
X053Y03692D01*
X052Y04492D02*
X05192Y04508D01*
X05208D01*
X052Y04492D01*
X0525Y04192D02*
X05242Y04208D01*
X05258D01*
X0525Y04192D01*
Y03792D02*
X05242Y03808D01*
X05258D01*
X0525Y03792D01*
X052Y03692D02*
X05192Y03708D01*
X05208D01*
X052Y03692D01*
X051Y04492D02*
X05092Y04508D01*
X05108D01*
X051Y04492D01*
X0515Y04192D02*
X05142Y04208D01*
X05158D01*
X0515Y04192D01*
X051Y03692D02*
X05092Y03708D01*
X05108D01*
X051Y03692D01*
X05Y04492D02*
X04992Y04508D01*
X05008D01*
X05Y04492D01*
X0505Y04392D02*
X05042Y04408D01*
X05058D01*
X0505Y04392D01*
X05Y04292D02*
X04992Y04308D01*
X05008D01*
X05Y04292D01*
Y03692D02*
X04992Y03708D01*
X05008D01*
X05Y03692D01*
X049Y04492D02*
X04892Y04508D01*
X04908D01*
X049Y04492D01*
X0495Y04392D02*
X04942Y04408D01*
X04958D01*
X0495Y04392D01*
X049Y04292D02*
X04892Y04308D01*
X04908D01*
X049Y04292D01*
X0495Y04192D02*
X04942Y04208D01*
X04958D01*
X0495Y04192D01*
X049Y04092D02*
X04892Y04108D01*
X04908D01*
X049Y04092D01*
Y03892D02*
X04892Y03908D01*
X04908D01*
X049Y03892D01*
X0495Y03792D02*
X04942Y03808D01*
X04958D01*
X0495Y03792D01*
X049Y03692D02*
X04892Y03708D01*
X04908D01*
X049Y03692D01*
X048Y04492D02*
X04792Y04508D01*
X04808D01*
X048Y04492D01*
X0485Y04392D02*
X04842Y04408D01*
X04858D01*
X0485Y04392D01*
Y04192D02*
X04842Y04208D01*
X04858D01*
X0485Y04192D01*
X048Y03892D02*
X04792Y03908D01*
X04808D01*
X048Y03892D01*
X0485Y03792D02*
X04842Y03808D01*
X04858D01*
X0485Y03792D01*
X048Y03692D02*
X04792Y03708D01*
X04808D01*
X048Y03692D01*
X047Y04492D02*
X04692Y04508D01*
X04708D01*
X047Y04492D01*
Y04092D02*
X04692Y04108D01*
X04708D01*
X047Y04092D01*
Y03892D02*
X04692Y03908D01*
X04708D01*
X047Y03892D01*
X0475Y03792D02*
X04742Y03808D01*
X04758D01*
X0475Y03792D01*
X047Y03692D02*
X04692Y03708D01*
X04708D01*
X047Y03692D01*
X046Y04492D02*
X04592Y04508D01*
X04608D01*
X046Y04492D01*
X0465Y04392D02*
X04642Y04408D01*
X04658D01*
X0465Y04392D01*
Y03792D02*
X04642Y03808D01*
X04658D01*
X0465Y03792D01*
X046Y03692D02*
X04592Y03708D01*
X04608D01*
X046Y03692D01*
X042Y04492D02*
X04192Y04508D01*
X04208D01*
X042Y04492D01*
X0425Y04392D02*
X04242Y04408D01*
X04258D01*
X0425Y04392D01*
X042Y04292D02*
X04192Y04308D01*
X04208D01*
X042Y04292D01*
Y04092D02*
X04192Y04108D01*
X04208D01*
X042Y04092D01*
X0425Y03792D02*
X04242Y03808D01*
X04258D01*
X0425Y03792D01*
X042Y03692D02*
X04192Y03708D01*
X04208D01*
X042Y03692D01*
X041Y04492D02*
X04092Y04508D01*
X04108D01*
X041Y04492D01*
X0415Y04392D02*
X04142Y04408D01*
X04158D01*
X0415Y04392D01*
X041Y03692D02*
X04092Y03708D01*
X04108D01*
X041Y03692D01*
X04Y04492D02*
X03992Y04508D01*
X04008D01*
X04Y04492D01*
X0405Y04392D02*
X04042Y04408D01*
X04058D01*
X0405Y04392D01*
Y04192D02*
X04042Y04208D01*
X04058D01*
X0405Y04192D01*
Y03992D02*
X04042Y04008D01*
X04058D01*
X0405Y03992D01*
X04Y03692D02*
X03992Y03708D01*
X04008D01*
X04Y03692D01*
X039Y04492D02*
X03892Y04508D01*
X03908D01*
X039Y04492D01*
X0395Y04392D02*
X03942Y04408D01*
X03958D01*
X0395Y04392D01*
Y03992D02*
X03942Y04008D01*
X03958D01*
X0395Y03992D01*
Y03792D02*
X03942Y03808D01*
X03958D01*
X0395Y03792D01*
X039Y03692D02*
X03892Y03708D01*
X03908D01*
X039Y03692D01*
X038Y04492D02*
X03792Y04508D01*
X03808D01*
X038Y04492D01*
X0385Y04392D02*
X03842Y04408D01*
X03858D01*
X0385Y04392D01*
Y04192D02*
X03842Y04208D01*
X03858D01*
X0385Y04192D01*
X038Y03892D02*
X03792Y03908D01*
X03808D01*
X038Y03892D01*
X0385Y03792D02*
X03842Y03808D01*
X03858D01*
X0385Y03792D01*
X038Y03692D02*
X03792Y03708D01*
X03808D01*
X038Y03692D01*
X037Y04492D02*
X03692Y04508D01*
X03708D01*
X037Y04492D01*
X0375Y04392D02*
X03742Y04408D01*
X03758D01*
X0375Y04392D01*
X037Y03892D02*
X03692Y03908D01*
X03708D01*
X037Y03892D01*
X0375Y03792D02*
X03742Y03808D01*
X03758D01*
X0375Y03792D01*
X037Y03692D02*
X03692Y03708D01*
X03708D01*
X037Y03692D01*
X036Y04492D02*
X03592Y04508D01*
X03608D01*
X036Y04492D01*
X0365Y04392D02*
X03642Y04408D01*
X03658D01*
X0365Y04392D01*
Y03792D02*
X03642Y03808D01*
X03658D01*
X0365Y03792D01*
X036Y03692D02*
X03592Y03708D01*
X03608D01*
X036Y03692D01*
X035Y04492D02*
X03492Y04508D01*
X03508D01*
X035Y04492D01*
X0355Y04392D02*
X03542Y04408D01*
X03558D01*
X0355Y04392D01*
Y03792D02*
X03542Y03808D01*
X03558D01*
X0355Y03792D01*
X035Y03692D02*
X03492Y03708D01*
X03508D01*
X035Y03692D01*
X034Y04492D02*
X03392Y04508D01*
X03408D01*
X034Y04492D01*
X0345Y04392D02*
X03442Y04408D01*
X03458D01*
X0345Y04392D01*
Y03992D02*
X03442Y04008D01*
X03458D01*
X0345Y03992D01*
Y03792D02*
X03442Y03808D01*
X03458D01*
X0345Y03792D01*
X034Y03692D02*
X03392Y03708D01*
X03408D01*
X034Y03692D01*
X033Y04492D02*
X03292Y04508D01*
X03308D01*
X033Y04492D01*
X0335Y04392D02*
X03342Y04408D01*
X03358D01*
X0335Y04392D01*
Y03792D02*
X03342Y03808D01*
X03358D01*
X0335Y03792D01*
X033Y03692D02*
X03292Y03708D01*
X03308D01*
X033Y03692D01*
X032Y04492D02*
X03192Y04508D01*
X03208D01*
X032Y04492D01*
X0325Y04392D02*
X03242Y04408D01*
X03258D01*
X0325Y04392D01*
X032Y04092D02*
X03192Y04108D01*
X03208D01*
X032Y04092D01*
X0325Y03992D02*
X03242Y04008D01*
X03258D01*
X0325Y03992D01*
X032Y03892D02*
X03192Y03908D01*
X03208D01*
X032Y03892D01*
X0325Y03792D02*
X03242Y03808D01*
X03258D01*
X0325Y03792D01*
X032Y03692D02*
X03192Y03708D01*
X03208D01*
X032Y03692D01*
X031Y04492D02*
X03092Y04508D01*
X03108D01*
X031Y04492D01*
Y03892D02*
X03092Y03908D01*
X03108D01*
X031Y03892D01*
X0315Y03792D02*
X03142Y03808D01*
X03158D01*
X0315Y03792D01*
X031Y03692D02*
X03092Y03708D01*
X03108D01*
X031Y03692D01*
X03Y04492D02*
X02992Y04508D01*
X03008D01*
X03Y04492D01*
Y03892D02*
X02992Y03908D01*
X03008D01*
X03Y03892D01*
X0305Y03792D02*
X03042Y03808D01*
X03058D01*
X0305Y03792D01*
X03Y03692D02*
X02992Y03708D01*
X03008D01*
X03Y03692D01*
X029Y04492D02*
X02892Y04508D01*
X02908D01*
X029Y04492D01*
X0295Y04392D02*
X02942Y04408D01*
X02958D01*
X0295Y04392D01*
Y03792D02*
X02942Y03808D01*
X02958D01*
X0295Y03792D01*
X029Y03692D02*
X02892Y03708D01*
X02908D01*
X029Y03692D01*
X0425Y02292D02*
X04242Y02308D01*
X04258D01*
X0425Y02292D01*
X042Y02192D02*
X04192Y02208D01*
X04208D01*
X042Y02192D01*
Y01992D02*
X04192Y02008D01*
X04208D01*
X042Y01992D01*
X0425Y01692D02*
X04242Y01708D01*
X04258D01*
X0425Y01692D01*
X0415Y02292D02*
X04142Y02308D01*
X04158D01*
X0415Y02292D01*
X041Y01592D02*
X04092Y01608D01*
X04108D01*
X041Y01592D01*
X0405Y02292D02*
X04042Y02308D01*
X04058D01*
X0405Y02292D01*
Y01892D02*
X04042Y01908D01*
X04058D01*
X0405Y01892D01*
Y01692D02*
X04042Y01708D01*
X04058D01*
X0405Y01692D01*
X04Y01592D02*
X03992Y01608D01*
X04008D01*
X04Y01592D01*
X0395Y02292D02*
X03942Y02308D01*
X03958D01*
X0395Y02292D01*
X039Y02192D02*
X03892Y02208D01*
X03908D01*
X039Y02192D01*
Y01592D02*
X03892Y01608D01*
X03908D01*
X039Y01592D01*
X0385Y02292D02*
X03842Y02308D01*
X03858D01*
X0385Y02292D01*
X038Y02192D02*
X03792Y02208D01*
X03808D01*
X038Y02192D01*
X0385Y02092D02*
X03842Y02108D01*
X03858D01*
X0385Y02092D01*
X038Y01992D02*
X03792Y02008D01*
X03808D01*
X038Y01992D01*
X0375Y02292D02*
X03742Y02308D01*
X03758D01*
X0375Y02292D01*
X037Y02192D02*
X03692Y02208D01*
X03708D01*
X037Y02192D01*
X0375Y02092D02*
X03742Y02108D01*
X03758D01*
X0375Y02092D01*
X037Y01992D02*
X03692Y02008D01*
X03708D01*
X037Y01992D01*
X0365Y02292D02*
X03642Y02308D01*
X03658D01*
X0365Y02292D01*
X036Y02192D02*
X03592Y02208D01*
X03608D01*
X036Y02192D01*
X0355Y02292D02*
X03542Y02308D01*
X03558D01*
X0355Y02292D01*
X035Y02192D02*
X03492Y02208D01*
X03508D01*
X035Y02192D01*
X0355Y01692D02*
X03542Y01708D01*
X03558D01*
X0355Y01692D01*
X0345Y02292D02*
X03442Y02308D01*
X03458D01*
X0345Y02292D01*
X034Y02192D02*
X03392Y02208D01*
X03408D01*
X034Y02192D01*
Y01992D02*
X03392Y02008D01*
X03408D01*
X034Y01992D01*
X0335Y02292D02*
X03342Y02308D01*
X03358D01*
X0335Y02292D01*
X033Y02192D02*
X03292Y02208D01*
X03308D01*
X033Y02192D01*
Y01992D02*
X03292Y02008D01*
X03308D01*
X033Y01992D01*
X0325Y02292D02*
X03242Y02308D01*
X03258D01*
X0325Y02292D01*
X032Y02192D02*
X03192Y02208D01*
X03208D01*
X032Y02192D01*
Y01992D02*
X03192Y02008D01*
X03208D01*
X032Y01992D01*
X0315Y02292D02*
X03142Y02308D01*
X03158D01*
X0315Y02292D01*
X031Y01592D02*
X03092Y01608D01*
X03108D01*
X031Y01592D01*
X0305Y02292D02*
X03042Y02308D01*
X03058D01*
X0305Y02292D01*
X03Y01792D02*
X02992Y01808D01*
X03008D01*
X03Y01792D01*
X0305Y01692D02*
X03042Y01708D01*
X03058D01*
X0305Y01692D01*
X03Y01592D02*
X02992Y01608D01*
X03008D01*
X03Y01592D01*
X0295Y02292D02*
X02942Y02308D01*
X02958D01*
X0295Y02292D01*
Y01692D02*
X02942Y01708D01*
X02958D01*
X0295Y01692D01*
X029Y01592D02*
X02892Y01608D01*
X02908D01*
X029Y01592D01*
X0425Y03392D02*
X04242Y03408D01*
X04258D01*
X0425Y03392D01*
X042Y03292D02*
X04192Y03308D01*
X04208D01*
X042Y03292D01*
Y03092D02*
X04192Y03108D01*
X04208D01*
X042Y03092D01*
Y02892D02*
X04192Y02908D01*
X04208D01*
X042Y02892D01*
X0425Y02792D02*
X04242Y02808D01*
X04258D01*
X0425Y02792D01*
X042Y02692D02*
X04192Y02708D01*
X04208D01*
X042Y02692D01*
X0415Y03392D02*
X04142Y03408D01*
X04158D01*
X0415Y03392D01*
Y02792D02*
X04142Y02808D01*
X04158D01*
X0415Y02792D01*
X041Y02692D02*
X04092Y02708D01*
X04108D01*
X041Y02692D01*
X0405Y03392D02*
X04042Y03408D01*
X04058D01*
X0405Y03392D01*
Y02992D02*
X04042Y03008D01*
X04058D01*
X0405Y02992D01*
Y02792D02*
X04042Y02808D01*
X04058D01*
X0405Y02792D01*
X04Y02692D02*
X03992Y02708D01*
X04008D01*
X04Y02692D01*
X0395Y03392D02*
X03942Y03408D01*
X03958D01*
X0395Y03392D01*
X039Y03292D02*
X03892Y03308D01*
X03908D01*
X039Y03292D01*
X0395Y02792D02*
X03942Y02808D01*
X03958D01*
X0395Y02792D01*
X039Y02692D02*
X03892Y02708D01*
X03908D01*
X039Y02692D01*
X038Y03292D02*
X03792Y03308D01*
X03808D01*
X038Y03292D01*
Y02692D02*
X03792Y02708D01*
X03808D01*
X038Y02692D01*
X0375Y03392D02*
X03742Y03408D01*
X03758D01*
X0375Y03392D01*
X0365D02*
X03642Y03408D01*
X03658D01*
X0365Y03392D01*
X0345Y02792D02*
X03442Y02808D01*
X03458D01*
X0345Y02792D01*
X033Y02892D02*
X03292Y02908D01*
X03308D01*
X033Y02892D01*
X0335Y02792D02*
X03342Y02808D01*
X03358D01*
X0335Y02792D01*
X033Y02692D02*
X03292Y02708D01*
X03308D01*
X033Y02692D01*
X0325Y03392D02*
X03242Y03408D01*
X03258D01*
X0325Y03392D01*
X032Y03292D02*
X03192Y03308D01*
X03208D01*
X032Y03292D01*
X0325Y03192D02*
X03242Y03208D01*
X03258D01*
X0325Y03192D01*
Y02992D02*
X03242Y03008D01*
X03258D01*
X0325Y02992D01*
X032Y02692D02*
X03192Y02708D01*
X03208D01*
X032Y02692D01*
X0315Y03392D02*
X03142Y03408D01*
X03158D01*
X0315Y03392D01*
X031Y02892D02*
X03092Y02908D01*
X03108D01*
X031Y02892D01*
X0315Y02792D02*
X03142Y02808D01*
X03158D01*
X0315Y02792D01*
X031Y02692D02*
X03092Y02708D01*
X03108D01*
X031Y02692D01*
X0305Y03392D02*
X03042Y03408D01*
X03058D01*
X0305Y03392D01*
X03Y02892D02*
X02992Y02908D01*
X03008D01*
X03Y02892D01*
X0305Y02792D02*
X03042Y02808D01*
X03058D01*
X0305Y02792D01*
X03Y02692D02*
X02992Y02708D01*
X03008D01*
X03Y02692D01*
X0295Y03392D02*
X02942Y03408D01*
X02958D01*
X0295Y03392D01*
Y02792D02*
X02942Y02808D01*
X02958D01*
X0295Y02792D01*
X029Y02692D02*
X02892Y02708D01*
X02908D01*
X029Y02692D01*
X0255Y02292D02*
X02542Y02308D01*
X02558D01*
X0255Y02292D01*
X0245D02*
X02442Y02308D01*
X02458D01*
X0245Y02292D01*
X0235D02*
X02342Y02308D01*
X02358D01*
X0235Y02292D01*
Y01892D02*
X02342Y01908D01*
X02358D01*
X0235Y01892D01*
X023Y01792D02*
X02292Y01808D01*
X02308D01*
X023Y01792D01*
X022Y02192D02*
X02192Y02208D01*
X02208D01*
X022Y02192D01*
Y01792D02*
X02192Y01808D01*
X02208D01*
X022Y01792D01*
X021Y01592D02*
X02092Y01608D01*
X02108D01*
X021Y01592D01*
X0205Y01692D02*
X02042Y01708D01*
X02058D01*
X0205Y01692D01*
X02Y01592D02*
X01992Y01608D01*
X02008D01*
X02Y01592D01*
X0175Y02292D02*
X01742Y02308D01*
X01758D01*
X0175Y02292D01*
Y01692D02*
X01742Y01708D01*
X01758D01*
X0175Y01692D01*
X017Y01592D02*
X01692Y01608D01*
X01708D01*
X017Y01592D01*
X0165Y02292D02*
X01642Y02308D01*
X01658D01*
X0165Y02292D01*
X016Y02192D02*
X01592Y02208D01*
X01608D01*
X016Y02192D01*
Y01792D02*
X01592Y01808D01*
X01608D01*
X016Y01792D01*
Y01592D02*
X01592Y01608D01*
X01608D01*
X016Y01592D01*
X0155Y02292D02*
X01542Y02308D01*
X01558D01*
X0155Y02292D01*
X015Y02192D02*
X01492Y02208D01*
X01508D01*
X015Y02192D01*
X0155Y01892D02*
X01542Y01908D01*
X01558D01*
X0155Y01892D01*
X015Y01592D02*
X01492Y01608D01*
X01508D01*
X015Y01592D01*
X0145Y02292D02*
X01442Y02308D01*
X01458D01*
X0145Y02292D01*
X014Y02192D02*
X01392Y02208D01*
X01408D01*
X014Y02192D01*
Y01792D02*
X01392Y01808D01*
X01408D01*
X014Y01792D01*
X0145Y01692D02*
X01442Y01708D01*
X01458D01*
X0145Y01692D01*
X014Y01592D02*
X01392Y01608D01*
X01408D01*
X014Y01592D01*
X0135Y02292D02*
X01342Y02308D01*
X01358D01*
X0135Y02292D01*
X013Y02192D02*
X01292Y02208D01*
X01308D01*
X013Y02192D01*
Y01792D02*
X01292Y01808D01*
X01308D01*
X013Y01792D01*
X0135Y01692D02*
X01342Y01708D01*
X01358D01*
X0135Y01692D01*
X013Y01592D02*
X01292Y01608D01*
X01308D01*
X013Y01592D01*
X0125Y02292D02*
X01242Y02308D01*
X01258D01*
X0125Y02292D01*
Y01692D02*
X01242Y01708D01*
X01258D01*
X0125Y01692D01*
X012Y01592D02*
X01192Y01608D01*
X01208D01*
X012Y01592D01*
X0255Y03392D02*
X02542Y03408D01*
X02558D01*
X0255Y03392D01*
Y02792D02*
X02542Y02808D01*
X02558D01*
X0255Y02792D01*
X025Y02692D02*
X02492Y02708D01*
X02508D01*
X025Y02692D01*
X0245Y03392D02*
X02442Y03408D01*
X02458D01*
X0245Y03392D01*
Y02792D02*
X02442Y02808D01*
X02458D01*
X0245Y02792D01*
X024Y02692D02*
X02392Y02708D01*
X02408D01*
X024Y02692D01*
X0235Y03392D02*
X02342Y03408D01*
X02358D01*
X0235Y03392D01*
Y02992D02*
X02342Y03008D01*
X02358D01*
X0235Y02992D01*
Y02792D02*
X02342Y02808D01*
X02358D01*
X0235Y02792D01*
X023Y02692D02*
X02292Y02708D01*
X02308D01*
X023Y02692D01*
X0225Y03392D02*
X02242Y03408D01*
X02258D01*
X0225Y03392D01*
Y02792D02*
X02242Y02808D01*
X02258D01*
X0225Y02792D01*
X022Y02692D02*
X02192Y02708D01*
X02208D01*
X022Y02692D01*
X021Y03292D02*
X02092Y03308D01*
X02108D01*
X021Y03292D01*
X0215Y02992D02*
X02142Y03008D01*
X02158D01*
X0215Y02992D01*
Y02792D02*
X02142Y02808D01*
X02158D01*
X0215Y02792D01*
X021Y02692D02*
X02092Y02708D01*
X02108D01*
X021Y02692D01*
X0205Y02792D02*
X02042Y02808D01*
X02058D01*
X0205Y02792D01*
X02Y02692D02*
X01992Y02708D01*
X02008D01*
X02Y02692D01*
X0195Y02792D02*
X01942Y02808D01*
X01958D01*
X0195Y02792D01*
X019Y02692D02*
X01892Y02708D01*
X01908D01*
X019Y02692D01*
X018Y03292D02*
X01792Y03308D01*
X01808D01*
X018Y03292D01*
Y02692D02*
X01792Y02708D01*
X01808D01*
X018Y02692D01*
X0175Y03392D02*
X01742Y03408D01*
X01758D01*
X0175Y03392D01*
Y02992D02*
X01742Y03008D01*
X01758D01*
X0175Y02992D01*
Y02792D02*
X01742Y02808D01*
X01758D01*
X0175Y02792D01*
X017Y02692D02*
X01692Y02708D01*
X01708D01*
X017Y02692D01*
X0165Y03392D02*
X01642Y03408D01*
X01658D01*
X0165Y03392D01*
Y03192D02*
X01642Y03208D01*
X01658D01*
X0165Y03192D01*
X016Y02892D02*
X01592Y02908D01*
X01608D01*
X016Y02892D01*
X0165Y02792D02*
X01642Y02808D01*
X01658D01*
X0165Y02792D01*
X016Y02692D02*
X01592Y02708D01*
X01608D01*
X016Y02692D01*
X0155Y03392D02*
X01542Y03408D01*
X01558D01*
X0155Y03392D01*
Y03192D02*
X01542Y03208D01*
X01558D01*
X0155Y03192D01*
X015Y02892D02*
X01492Y02908D01*
X01508D01*
X015Y02892D01*
X0155Y02792D02*
X01542Y02808D01*
X01558D01*
X0155Y02792D01*
X015Y02692D02*
X01492Y02708D01*
X01508D01*
X015Y02692D01*
X0145Y03392D02*
X01442Y03408D01*
X01458D01*
X0145Y03392D01*
Y03192D02*
X01442Y03208D01*
X01458D01*
X0145Y03192D01*
X014Y02692D02*
X01392Y02708D01*
X01408D01*
X014Y02692D01*
X0135Y03392D02*
X01342Y03408D01*
X01358D01*
X0135Y03392D01*
Y02792D02*
X01342Y02808D01*
X01358D01*
X0135Y02792D01*
X013Y02692D02*
X01292Y02708D01*
X01308D01*
X013Y02692D01*
X0125Y03392D02*
X01242Y03408D01*
X01258D01*
X0125Y03392D01*
Y02792D02*
X01242Y02808D01*
X01258D01*
X0125Y02792D01*
X012Y02692D02*
X01192Y02708D01*
X01208D01*
X012Y02692D01*
X020906Y019051D02*
X020946Y019091D01*
X020986D01*
X020946Y019131D01*
X020986Y019171D01*
X020946D01*
X020906Y019211D01*
X020866Y019171D01*
X020826D01*
X020866Y019131D01*
X020826Y019091D01*
X020866D01*
X020906Y019051D01*
X034616Y028933D02*
X034656Y028973D01*
X034696D01*
X034656Y029013D01*
X034696Y029053D01*
X034656D01*
X034616Y029093D01*
X034576Y029053D01*
X034536D01*
X034576Y029013D01*
X034536Y028973D01*
X034576D01*
X034616Y028933D01*
X02998Y032604D02*
X03002Y032644D01*
X03006D01*
X03002Y032684D01*
X03006Y032724D01*
X03002D01*
X02998Y032764D01*
X02994Y032724D01*
X0299D01*
X02994Y032684D01*
X0299Y032644D01*
X02994D01*
X02998Y032604D01*
X030413Y032289D02*
X030453Y032329D01*
X030493D01*
X030453Y032369D01*
X030493Y032409D01*
X030453D01*
X030413Y032449D01*
X030373Y032409D01*
X030333D01*
X030373Y032369D01*
X030333Y032329D01*
X030373D01*
X030413Y032289D01*
X013248Y032751D02*
X013288Y032791D01*
X013328D01*
X013288Y032831D01*
X013328Y032871D01*
X013288D01*
X013248Y032911D01*
X013208Y032871D01*
X013168D01*
X013208Y032831D01*
X013168Y032791D01*
X013208D01*
X013248Y032751D01*
X039703Y033027D02*
X039743Y033107D01*
X039703Y033187D01*
X039783Y033147D01*
X039863Y033187D01*
X039823Y033107D01*
X039863Y033027D01*
X039783Y033067D01*
X039703Y033027D01*
X039684Y030635D02*
X039724Y030715D01*
X039684Y030795D01*
X039764Y030755D01*
X039844Y030795D01*
X039804Y030715D01*
X039844Y030635D01*
X039764Y030675D01*
X039684Y030635D01*
X02315Y021757D02*
X02319Y021797D01*
X02323D01*
X02319Y021837D01*
X02323Y021877D01*
X02319D01*
X02315Y021917D01*
X02311Y021877D01*
X02307D01*
X02311Y021837D01*
X02307Y021797D01*
X02311D01*
X02315Y021757D01*
X022835Y032643D02*
X022875Y032683D01*
X022915D01*
X022875Y032723D01*
X022915Y032763D01*
X022875D01*
X022835Y032803D01*
X022795Y032763D01*
X022755D01*
X022795Y032723D01*
X022755Y032683D01*
X022795D01*
X022835Y032643D01*
X022844Y030261D02*
X022884Y030301D01*
X022924D01*
X022884Y030341D01*
X022924Y030381D01*
X022884D01*
X022844Y030421D01*
X022804Y030381D01*
X022764D01*
X022804Y030341D01*
X022764Y030301D01*
X022804D01*
X022844Y030261D01*
X021937Y040214D02*
X021977Y040294D01*
X021937Y040374D01*
X022017Y040334D01*
X022097Y040374D01*
X022057Y040294D01*
X022097Y040214D01*
X022017Y040254D01*
X021937Y040214D01*
X021787Y048675D02*
Y048635D01*
X021867D01*
Y048675D01*
X021907D01*
Y048755D01*
X021867D01*
Y048795D01*
X021787D01*
Y048755D01*
X021747D01*
Y048675D01*
X021787D01*
Y048635D01*
X021867D01*
Y048675D01*
X021907D01*
Y048755D01*
X021867D01*
Y048795D01*
X021787D01*
Y048755D01*
X021747D01*
Y048675D01*
X021787D01*
X015527D02*
Y048635D01*
X015607D01*
Y048675D01*
X015647D01*
Y048755D01*
X015607D01*
Y048795D01*
X015527D01*
Y048755D01*
X015487D01*
Y048675D01*
X015527D01*
X023536Y048635D02*
X023576D01*
X023616Y048675D01*
X023656Y048635D01*
X023696D01*
Y048675D01*
X023656Y048715D01*
X023696Y048755D01*
Y048795D01*
X023656D01*
X023616Y048755D01*
X023576Y048795D01*
X023536D01*
Y048755D01*
X023576Y048715D01*
X023536Y048675D01*
Y048635D01*
X023576D01*
X023616Y048675D01*
X023656Y048635D01*
X023696D01*
Y048675D01*
X023656Y048715D01*
X023696Y048755D01*
Y048795D01*
X023656D01*
X023616Y048755D01*
X023576Y048795D01*
X023536D01*
Y048755D01*
X023576Y048715D01*
X023536Y048675D01*
Y048635D01*
X013698D02*
X013738D01*
X013778Y048675D01*
X013818Y048635D01*
X013858D01*
Y048675D01*
X013818Y048715D01*
X013858Y048755D01*
Y048795D01*
X013818D01*
X013778Y048755D01*
X013738Y048795D01*
X013698D01*
Y048755D01*
X013738Y048715D01*
X013698Y048675D01*
Y048635D01*
X039045Y029927D02*
X039085Y029967D01*
X039125D01*
X039085Y030007D01*
X039125Y030047D01*
X039085D01*
X039045Y030087D01*
X039005Y030047D01*
X038965D01*
X039005Y030007D01*
X038965Y029967D01*
X039005D01*
X039045Y029927D01*
X036524Y026708D02*
X036564Y026788D01*
X036524Y026868D01*
X036604Y026828D01*
X036684Y026868D01*
X036644Y026788D01*
X036684Y026708D01*
X036604Y026748D01*
X036524Y026708D01*
X030737Y030911D02*
X030777Y030991D01*
X030737Y031071D01*
X030817Y031031D01*
X030897Y031071D01*
X030857Y030991D01*
X030897Y030911D01*
X030817Y030951D01*
X030737Y030911D01*
X036526Y031521D02*
X036566Y031561D01*
X036606D01*
X036566Y031601D01*
X036606Y031641D01*
X036566D01*
X036526Y031681D01*
X036486Y031641D01*
X036446D01*
X036486Y031601D01*
X036446Y031561D01*
X036486D01*
X036526Y031521D01*
X036299Y028657D02*
X036339Y028697D01*
X036379D01*
X036339Y028737D01*
X036379Y028777D01*
X036339D01*
X036299Y028817D01*
X036259Y028777D01*
X036219D01*
X036259Y028737D01*
X036219Y028697D01*
X036259D01*
X036299Y028657D01*
X034085Y031531D02*
X034125Y031571D01*
X034165D01*
X034125Y031611D01*
X034165Y031651D01*
X034125D01*
X034085Y031691D01*
X034045Y031651D01*
X034005D01*
X034045Y031611D01*
X034005Y031571D01*
X034045D01*
X034085Y031531D01*
X034075Y0297D02*
X034115Y02974D01*
X034155D01*
X034115Y02978D01*
X034155Y02982D01*
X034115D01*
X034075Y02986D01*
X034035Y02982D01*
X033995D01*
X034035Y02978D01*
X033995Y02974D01*
X034035D01*
X034075Y0297D01*
X035925Y029001D02*
X035965Y029041D01*
X036005D01*
X035965Y029081D01*
X036005Y029121D01*
X035965D01*
X035925Y029161D01*
X035885Y029121D01*
X035845D01*
X035885Y029081D01*
X035845Y029041D01*
X035885D01*
X035925Y029001D01*
X034537Y034464D02*
X034577Y034504D01*
X034617D01*
X034577Y034544D01*
X034617Y034584D01*
X034577D01*
X034537Y034624D01*
X034497Y034584D01*
X034457D01*
X034497Y034544D01*
X034457Y034504D01*
X034497D01*
X034537Y034464D01*
X033327Y031964D02*
X033367Y032004D01*
X033407D01*
X033367Y032044D01*
X033407Y032084D01*
X033367D01*
X033327Y032124D01*
X033287Y032084D01*
X033247D01*
X033287Y032044D01*
X033247Y032004D01*
X033287D01*
X033327Y031964D01*
X035925D02*
X035965Y032004D01*
X036005D01*
X035965Y032044D01*
X036005Y032084D01*
X035965D01*
X035925Y032124D01*
X035885Y032084D01*
X035845D01*
X035885Y032044D01*
X035845Y032004D01*
X035885D01*
X035925Y031964D01*
X035049Y031157D02*
X035089Y031197D01*
X035129D01*
X035089Y031237D01*
X035129Y031277D01*
X035089D01*
X035049Y031317D01*
X035009Y031277D01*
X034969D01*
X035009Y031237D01*
X034969Y031197D01*
X035009D01*
X035049Y031157D01*
X035492Y030099D02*
X035532Y030139D01*
X035572D01*
X035532Y030179D01*
X035572Y030219D01*
X035532D01*
X035492Y030259D01*
X035452Y030219D01*
X035412D01*
X035452Y030179D01*
X035412Y030139D01*
X035452D01*
X035492Y030099D01*
X034616Y031964D02*
X034656Y032004D01*
X034696D01*
X034656Y032044D01*
X034696Y032084D01*
X034656D01*
X034616Y032124D01*
X034576Y032084D01*
X034536D01*
X034576Y032044D01*
X034536Y032004D01*
X034576D01*
X034616Y031964D01*
X035492Y031157D02*
X035532Y031197D01*
X035572D01*
X035532Y031237D01*
X035572Y031277D01*
X035532D01*
X035492Y031317D01*
X035452Y031277D01*
X035412D01*
X035452Y031237D01*
X035412Y031197D01*
X035452D01*
X035492Y031157D01*
X035049Y030099D02*
X035089Y030139D01*
X035129D01*
X035089Y030179D01*
X035129Y030219D01*
X035089D01*
X035049Y030259D01*
X035009Y030219D01*
X034969D01*
X035009Y030179D01*
X034969Y030139D01*
X035009D01*
X035049Y030099D01*
X017037Y020498D02*
X017077Y020538D01*
X017117D01*
X017077Y020578D01*
X017117Y020618D01*
X017077D01*
X017037Y020658D01*
X016997Y020618D01*
X016957D01*
X016997Y020578D01*
X016957Y020538D01*
X016997D01*
X017037Y020498D01*
X016014Y02032D02*
X016054Y02036D01*
X016094D01*
X016054Y0204D01*
X016094Y02044D01*
X016054D01*
X016014Y02048D01*
X015974Y02044D01*
X015934D01*
X015974Y0204D01*
X015934Y02036D01*
X015974D01*
X016014Y02032D01*
X018699Y020204D02*
X018739Y020244D01*
X018779D01*
X018739Y020284D01*
X018779Y020324D01*
X018739D01*
X018699Y020364D01*
X018659Y020324D01*
X018619D01*
X018659Y020284D01*
X018619Y020244D01*
X018659D01*
X018699Y020204D01*
Y019181D02*
X018739Y019221D01*
X018779D01*
X018739Y019261D01*
X018779Y019301D01*
X018739D01*
X018699Y019341D01*
X018659Y019301D01*
X018619D01*
X018659Y019261D01*
X018619Y019221D01*
X018659D01*
X018699Y019181D01*
X023079Y019631D02*
X023119Y019711D01*
X023079Y019791D01*
X023159Y019751D01*
X023239Y019791D01*
X023199Y019711D01*
X023239Y019631D01*
X023159Y019671D01*
X023079Y019631D01*
X022467Y019897D02*
X022507Y019937D01*
X022547D01*
X022507Y019977D01*
X022547Y020017D01*
X022507D01*
X022467Y020057D01*
X022427Y020017D01*
X022387D01*
X022427Y019977D01*
X022387Y019937D01*
X022427D01*
X022467Y019897D01*
X018454Y0234D02*
X018494Y02344D01*
X018534D01*
X018494Y02348D01*
X018534Y02352D01*
X018494D01*
X018454Y02356D01*
X018414Y02352D01*
X018374D01*
X018414Y02348D01*
X018374Y02344D01*
X018414D01*
X018454Y0234D01*
X014991Y019454D02*
X015031Y019494D01*
X015071D01*
X015031Y019534D01*
X015071Y019574D01*
X015031D01*
X014991Y019614D01*
X014951Y019574D01*
X014911D01*
X014951Y019534D01*
X014911Y019494D01*
X014951D01*
X014991Y019454D01*
X019478Y021816D02*
X019518Y021856D01*
X019558D01*
X019518Y021896D01*
X019558Y021936D01*
X019518D01*
X019478Y021976D01*
X019438Y021936D01*
X019398D01*
X019438Y021896D01*
X019398Y021856D01*
X019438D01*
X019478Y021816D01*
X019468Y021295D02*
X019509Y021335D01*
X019548D01*
X019509Y021375D01*
X019548Y021415D01*
X019509D01*
X019468Y021455D01*
X019428Y021415D01*
X019389D01*
X019428Y021375D01*
X019389Y021335D01*
X019428D01*
X019468Y021295D01*
X017805Y021492D02*
X017845Y021532D01*
X017885D01*
X017845Y021572D01*
X017885Y021612D01*
X017845D01*
X017805Y021652D01*
X017765Y021612D01*
X017725D01*
X017765Y021572D01*
X017725Y021532D01*
X017765D01*
X017805Y021492D01*
X020984Y02098D02*
X021024Y02102D01*
X021064D01*
X021024Y02106D01*
X021064Y0211D01*
X021024D01*
X020984Y02114D01*
X020944Y0211D01*
X020904D01*
X020944Y02106D01*
X020904Y02102D01*
X020944D01*
X020984Y02098D01*
X016949Y018824D02*
X016989Y018864D01*
X017029D01*
X016989Y018904D01*
X017029Y018944D01*
X016989D01*
X016949Y018984D01*
X016909Y018944D01*
X016869D01*
X016909Y018904D01*
X016869Y018864D01*
X016909D01*
X016949Y018824D01*
X020246Y019025D02*
X020286Y019065D01*
X020326D01*
X020286Y019105D01*
X020326Y019145D01*
X020286D01*
X020246Y019185D01*
X020206Y019145D01*
X020166D01*
X020206Y019105D01*
X020166Y019065D01*
X020206D01*
X020246Y019025D01*
X018071Y017998D02*
X018111Y018038D01*
X018151D01*
X018111Y018078D01*
X018151Y018118D01*
X018111D01*
X018071Y018158D01*
X018031Y018118D01*
X017991D01*
X018031Y018078D01*
X017991Y018038D01*
X018031D01*
X018071Y017998D01*
X017648Y017653D02*
X017688Y017693D01*
X017728D01*
X017688Y017733D01*
X017728Y017773D01*
X017688D01*
X017648Y017813D01*
X017608Y017773D01*
X017568D01*
X017608Y017733D01*
X017568Y017693D01*
X017608D01*
X017648Y017653D01*
X019478Y017122D02*
X019518Y017162D01*
X019558D01*
X019518Y017202D01*
X019558Y017242D01*
X019518D01*
X019478Y017282D01*
X019438Y017242D01*
X019398D01*
X019438Y017202D01*
X019398Y017162D01*
X019438D01*
X019478Y017122D01*
X014978Y030411D02*
X015018Y030451D01*
X015058D01*
X015018Y030491D01*
X015058Y030531D01*
X015018D01*
X014978Y030571D01*
X014938Y030531D01*
X014898D01*
X014938Y030491D01*
X014898Y030451D01*
X014938D01*
X014978Y030411D01*
X022439Y030854D02*
X022479Y030894D01*
X022519D01*
X022479Y030934D01*
X022519Y030974D01*
X022479D01*
X022439Y031014D01*
X022399Y030974D01*
X022359D01*
X022399Y030934D01*
X022359Y030894D01*
X022399D01*
X022439Y030854D01*
X013423Y032399D02*
X013463Y032439D01*
X013503D01*
X013463Y032479D01*
X013503Y032519D01*
X013463D01*
X013423Y032559D01*
X013383Y032519D01*
X013343D01*
X013383Y032479D01*
X013343Y032439D01*
X013383D01*
X013423Y032399D01*
X02049Y029968D02*
X02053Y030008D01*
X02057D01*
X02053Y030048D01*
X02057Y030088D01*
X02053D01*
X02049Y030128D01*
X02045Y030088D01*
X02041D01*
X02045Y030048D01*
X02041Y030008D01*
X02045D01*
X02049Y029968D01*
X019348Y032872D02*
X019388Y032912D01*
X019428D01*
X019388Y032952D01*
X019428Y032992D01*
X019388D01*
X019348Y033032D01*
X019308Y032992D01*
X019268D01*
X019308Y032952D01*
X019268Y032912D01*
X019308D01*
X019348Y032872D01*
X021061Y031287D02*
X021101Y031327D01*
X021141D01*
X021101Y031367D01*
X021141Y031407D01*
X021101D01*
X021061Y031447D01*
X021021Y031407D01*
X020981D01*
X021021Y031367D01*
X020981Y031327D01*
X021021D01*
X021061Y031287D01*
X018049Y032409D02*
X018089Y032449D01*
X018129D01*
X018089Y032489D01*
X018129Y032529D01*
X018089D01*
X018049Y032569D01*
X018009Y032529D01*
X017969D01*
X018009Y032489D01*
X017969Y032449D01*
X018009D01*
X018049Y032409D01*
X016435Y031287D02*
X016475Y031327D01*
X016515D01*
X016475Y031367D01*
X016515Y031407D01*
X016475D01*
X016435Y031447D01*
X016395Y031407D01*
X016355D01*
X016395Y031367D01*
X016355Y031327D01*
X016395D01*
X016435Y031287D01*
X018039Y028866D02*
X018079Y028906D01*
X018119D01*
X018079Y028946D01*
X018119Y028986D01*
X018079D01*
X018039Y029026D01*
X017999Y028986D01*
X017959D01*
X017999Y028946D01*
X017959Y028906D01*
X017999D01*
X018039Y028866D01*
X019348Y028364D02*
X019388Y028404D01*
X019428D01*
X019388Y028444D01*
X019428Y028484D01*
X019388D01*
X019348Y028524D01*
X019308Y028484D01*
X019268D01*
X019308Y028444D01*
X019268Y028404D01*
X019308D01*
X019348Y028364D01*
X016937Y029968D02*
X016977Y030008D01*
X017017D01*
X016977Y030048D01*
X017017Y030088D01*
X016977D01*
X016937Y030128D01*
X016897Y030088D01*
X016857D01*
X016897Y030048D01*
X016857Y030008D01*
X016897D01*
X016937Y029968D01*
X050963Y02035D02*
X051003Y02039D01*
X051043D01*
X051003Y02043D01*
X051043Y02047D01*
X051003D01*
X050963Y02051D01*
X050923Y02047D01*
X050883D01*
X050923Y02043D01*
X050883Y02039D01*
X050923D01*
X050963Y02035D01*
X050963Y019877D02*
X051003Y019917D01*
X051043D01*
X051003Y019957D01*
X051043Y019997D01*
X051003D01*
X050963Y020037D01*
X050923Y019997D01*
X050883D01*
X050923Y019957D01*
X050883Y019917D01*
X050923D01*
X050963Y019877D01*
X05364Y020822D02*
X05368Y020862D01*
X05372D01*
X05368Y020902D01*
X05372Y020942D01*
X05368D01*
X05364Y020982D01*
X0536Y020942D01*
X05356D01*
X0536Y020902D01*
X05356Y020862D01*
X0536D01*
X05364Y020822D01*
Y02035D02*
X05368Y02039D01*
X05372D01*
X05368Y02043D01*
X05372Y02047D01*
X05368D01*
X05364Y02051D01*
X0536Y02047D01*
X05356D01*
X0536Y02043D01*
X05356Y02039D01*
X0536D01*
X05364Y02035D01*
Y019405D02*
X05368Y019445D01*
X05372D01*
X05368Y019485D01*
X05372Y019525D01*
X05368D01*
X05364Y019565D01*
X0536Y019525D01*
X05356D01*
X0536Y019485D01*
X05356Y019445D01*
X0536D01*
X05364Y019405D01*
Y018933D02*
X05368Y018973D01*
X05372D01*
X05368Y019013D01*
X05372Y019053D01*
X05368D01*
X05364Y019093D01*
X0536Y019053D01*
X05356D01*
X0536Y019013D01*
X05356Y018973D01*
X0536D01*
X05364Y018933D01*
X050923Y019405D02*
X050963Y019445D01*
X051003D01*
X050963Y019485D01*
X051003Y019525D01*
X050963D01*
X050923Y019565D01*
X050883Y019525D01*
X050843D01*
X050883Y019485D01*
X050843Y019445D01*
X050883D01*
X050923Y019405D01*
X051207Y029397D02*
X051247Y029437D01*
X051287D01*
X051247Y029477D01*
X051287Y029517D01*
X051247D01*
X051207Y029557D01*
X051167Y029517D01*
X051127D01*
X051167Y029477D01*
X051127Y029437D01*
X051167D01*
X051207Y029397D01*
X051435Y028342D02*
X051475Y028382D01*
X051515D01*
X051475Y028422D01*
X051515Y028462D01*
X051475D01*
X051435Y028502D01*
X051395Y028462D01*
X051355D01*
X051395Y028422D01*
X051355Y028382D01*
X051395D01*
X051435Y028342D01*
X05364Y01846D02*
X05368Y0185D01*
X05372D01*
X05368Y01854D01*
X05372Y01858D01*
X05368D01*
X05364Y01862D01*
X0536Y01858D01*
X05356D01*
X0536Y01854D01*
X05356Y0185D01*
X0536D01*
X05364Y01846D01*
X047222Y03346D02*
X047262Y0335D01*
X047302D01*
X047262Y03354D01*
X047302Y03358D01*
X047262D01*
X047222Y03362D01*
X047182Y03358D01*
X047142D01*
X047182Y03354D01*
X047142Y0335D01*
X047182D01*
X047222Y03346D01*
X047616D02*
X047656Y0335D01*
X047696D01*
X047656Y03354D01*
X047696Y03358D01*
X047656D01*
X047616Y03362D01*
X047576Y03358D01*
X047536D01*
X047576Y03354D01*
X047536Y0335D01*
X047576D01*
X047616Y03346D01*
X046514Y030586D02*
X046554Y030626D01*
X046594D01*
X046554Y030666D01*
X046594Y030706D01*
X046554D01*
X046514Y030746D01*
X046474Y030706D01*
X046434D01*
X046474Y030666D01*
X046434Y030626D01*
X046474D01*
X046514Y030586D01*
X053329Y029873D02*
X053369Y029913D01*
X053409D01*
X053369Y029953D01*
X053409Y029993D01*
X053369D01*
X053329Y030033D01*
X053289Y029993D01*
X053249D01*
X053289Y029953D01*
X053249Y029913D01*
X053289D01*
X053329Y029873D01*
X051199Y029877D02*
X051239Y029917D01*
X051279D01*
X051239Y029957D01*
X051279Y029997D01*
X051239D01*
X051199Y030037D01*
X051159Y029997D01*
X051119D01*
X051159Y029957D01*
X051119Y029917D01*
X051159D01*
X051199Y029877D01*
X0536Y032161D02*
X05364Y032201D01*
X05368D01*
X05364Y032241D01*
X05368Y032281D01*
X05364D01*
X0536Y032321D01*
X05356Y032281D01*
X05352D01*
X05356Y032241D01*
X05352Y032201D01*
X05356D01*
X0536Y032161D01*
X053325Y029366D02*
X053365Y029406D01*
X053405D01*
X053365Y029446D01*
X053405Y029486D01*
X053365D01*
X053325Y029526D01*
X053285Y029486D01*
X053245D01*
X053285Y029446D01*
X053245Y029406D01*
X053285D01*
X053325Y029366D01*
X051191Y031326D02*
X051231Y031366D01*
X051271D01*
X051231Y031406D01*
X051271Y031446D01*
X051231D01*
X051191Y031486D01*
X051151Y031446D01*
X051111D01*
X051151Y031406D01*
X051111Y031366D01*
X051151D01*
X051191Y031326D01*
X056474Y042397D02*
X056514Y042437D01*
X056554D01*
X056514Y042477D01*
X056554Y042517D01*
X056514D01*
X056474Y042557D01*
X056434Y042517D01*
X056394D01*
X056434Y042477D01*
X056394Y042437D01*
X056434D01*
X056474Y042397D01*
X047341Y04377D02*
X047381Y04381D01*
X047421D01*
X047381Y04385D01*
X047421Y04389D01*
X047381D01*
X047341Y04393D01*
X047301Y04389D01*
X047261D01*
X047301Y04385D01*
X047261Y04381D01*
X047301D01*
X047341Y04377D01*
X047734D02*
X047774Y04381D01*
X047814D01*
X047774Y04385D01*
X047814Y04389D01*
X047774D01*
X047734Y04393D01*
X047694Y04389D01*
X047654D01*
X047694Y04385D01*
X047654Y04381D01*
X047694D01*
X047734Y04377D01*
X05364Y040153D02*
X05368Y040193D01*
X05372D01*
X05368Y040233D01*
X05372Y040273D01*
X05368D01*
X05364Y040313D01*
X0536Y040273D01*
X05356D01*
X0536Y040233D01*
X05356Y040193D01*
X0536D01*
X05364Y040153D01*
Y043185D02*
X05368Y043225D01*
X05372D01*
X05368Y043265D01*
X05372Y043305D01*
X05368D01*
X05364Y043345D01*
X0536Y043305D01*
X05356D01*
X0536Y043265D01*
X05356Y043225D01*
X0536D01*
X05364Y043185D01*
X051593Y043185D02*
X051633Y043225D01*
X051673D01*
X051633Y043265D01*
X051673Y043305D01*
X051633D01*
X051593Y043345D01*
X051553Y043305D01*
X051513D01*
X051553Y043265D01*
X051513Y043225D01*
X051553D01*
X051593Y043185D01*
X051002Y040153D02*
X051042Y040193D01*
X051082D01*
X051042Y040233D01*
X051082Y040273D01*
X051042D01*
X051002Y040313D01*
X050962Y040273D01*
X050922D01*
X050962Y040233D01*
X050922Y040193D01*
X050962D01*
X051002Y040153D01*
X051041Y042515D02*
X051081Y042555D01*
X051121D01*
X051081Y042595D01*
X051121Y042635D01*
X051081D01*
X051041Y042675D01*
X051001Y042635D01*
X050961D01*
X051001Y042595D01*
X050961Y042555D01*
X051001D01*
X051041Y042515D01*
X031435Y041964D02*
X031475Y042004D01*
X031515D01*
X031475Y042044D01*
X031515Y042084D01*
X031475D01*
X031435Y042124D01*
X031395Y042084D01*
X031355D01*
X031395Y042044D01*
X031355Y042004D01*
X031395D01*
X031435Y041964D01*
X036238Y038972D02*
X036278Y039012D01*
X036318D01*
X036278Y039052D01*
X036318Y039092D01*
X036278D01*
X036238Y039132D01*
X036198Y039092D01*
X036158D01*
X036198Y039052D01*
X036158Y039012D01*
X036198D01*
X036238Y038972D01*
X036459Y041555D02*
X036499Y041595D01*
X036539D01*
X036499Y041635D01*
X036539Y041675D01*
X036499D01*
X036459Y041715D01*
X036419Y041675D01*
X036379D01*
X036419Y041635D01*
X036379Y041595D01*
X036419D01*
X036459Y041555D01*
X035805Y040035D02*
X035845Y040075D01*
X035885D01*
X035845Y040115D01*
X035885Y040155D01*
X035845D01*
X035805Y040195D01*
X035765Y040155D01*
X035725D01*
X035765Y040115D01*
X035725Y040075D01*
X035765D01*
X035805Y040035D01*
X033679Y039877D02*
X033719Y039917D01*
X033759D01*
X033719Y039957D01*
X033759Y039997D01*
X033719D01*
X033679Y040037D01*
X033639Y039997D01*
X033599D01*
X033639Y039957D01*
X033599Y039917D01*
X033639D01*
X033679Y039877D01*
X036459Y041043D02*
X036499Y041083D01*
X036539D01*
X036499Y041123D01*
X036539Y041163D01*
X036499D01*
X036459Y041203D01*
X036419Y041163D01*
X036379D01*
X036419Y041123D01*
X036379Y041083D01*
X036419D01*
X036459Y041043D01*
X03423Y041059D02*
X03427Y041099D01*
X03431D01*
X03427Y041139D01*
X03431Y041179D01*
X03427D01*
X03423Y041219D01*
X03419Y041179D01*
X03415D01*
X03419Y041139D01*
X03415Y041099D01*
X03419D01*
X03423Y041059D01*
Y04157D02*
X03427Y04161D01*
X03431D01*
X03427Y04165D01*
X03431Y04169D01*
X03427D01*
X03423Y04173D01*
X03419Y04169D01*
X03415D01*
X03419Y04165D01*
X03415Y04161D01*
X03419D01*
X03423Y04157D01*
X031222Y044169D02*
X031262Y044209D01*
X031302D01*
X031262Y044249D01*
X031302Y044289D01*
X031262D01*
X031222Y044329D01*
X031182Y044289D01*
X031142D01*
X031182Y044249D01*
X031142Y044209D01*
X031182D01*
X031222Y044169D01*
X030829D02*
X030869Y044209D01*
X030909D01*
X030869Y044249D01*
X030909Y044289D01*
X030869D01*
X030829Y044329D01*
X030789Y044289D01*
X030749D01*
X030789Y044249D01*
X030749Y044209D01*
X030789D01*
X030829Y044169D01*
X038461Y017535D02*
X038501Y017615D01*
X038461Y017695D01*
X038541Y017655D01*
X038621Y017695D01*
X038581Y017615D01*
X038621Y017535D01*
X038541Y017575D01*
X038461Y017535D01*
X037723Y015891D02*
X037763Y015971D01*
X037723Y016051D01*
X037803Y016011D01*
X037883Y016051D01*
X037843Y015971D01*
X037883Y015891D01*
X037803Y015931D01*
X037723Y015891D01*
X039673Y02035D02*
X039713Y02043D01*
X039673Y02051D01*
X039753Y02047D01*
X039833Y02051D01*
X039793Y02043D01*
X039833Y02035D01*
X039753Y02039D01*
X039673Y02035D01*
X039258D02*
X039298Y02043D01*
X039258Y02051D01*
X039338Y02047D01*
X039418Y02051D01*
X039378Y02043D01*
X039418Y02035D01*
X039338Y02039D01*
X039258Y02035D01*
X039091Y01912D02*
X039131Y0192D01*
X039091Y01928D01*
X039171Y01924D01*
X039251Y01928D01*
X039211Y0192D01*
X039251Y01912D01*
X039171Y01916D01*
X039091Y01912D01*
X037231Y016442D02*
X037271Y016522D01*
X037231Y016602D01*
X037311Y016562D01*
X037391Y016602D01*
X037351Y016522D01*
X037391Y016442D01*
X037311Y016482D01*
X037231Y016442D01*
X030961Y018204D02*
X031001Y018284D01*
X030961Y018364D01*
X031041Y018324D01*
X031121Y018364D01*
X031081Y018284D01*
X031121Y018204D01*
X031041Y018244D01*
X030961Y018204D01*
X033035Y016469D02*
X033075Y016549D01*
X033035Y016629D01*
X033115Y016589D01*
X033195Y016629D01*
X033155Y016549D01*
X033195Y016469D01*
X033115Y016509D01*
X033035Y016469D01*
X041374Y016137D02*
X041414Y016217D01*
X041374Y016297D01*
X041454Y016257D01*
X041534Y016297D01*
X041494Y016217D01*
X041534Y016137D01*
X041454Y016177D01*
X041374Y016137D01*
X041789D02*
X041829Y016217D01*
X041789Y016297D01*
X041869Y016257D01*
X041949Y016297D01*
X041909Y016217D01*
X041949Y016137D01*
X041869Y016177D01*
X041789Y016137D01*
X034539Y015798D02*
X034579Y015878D01*
X034539Y015958D01*
X034619Y015918D01*
X034699Y015958D01*
X034659Y015878D01*
X034699Y015798D01*
X034619Y015838D01*
X034539Y015798D01*
X032012Y017566D02*
X032052Y017646D01*
X032012Y017726D01*
X032092Y017686D01*
X032172Y017726D01*
X032132Y017646D01*
X032172Y017566D01*
X032092Y017606D01*
X032012Y017566D01*
X030263Y021551D02*
X030303Y021631D01*
X030263Y021711D01*
X030343Y021671D01*
X030423Y021711D01*
X030383Y021631D01*
X030423Y021551D01*
X030343Y021591D01*
X030263Y021551D01*
X029969Y021844D02*
X030009Y021924D01*
X029969Y022004D01*
X030049Y021964D01*
X030129Y022004D01*
X030089Y021924D01*
X030129Y021844D01*
X030049Y021884D01*
X029969Y021844D01*
X01917Y046967D02*
X01925Y047047D01*
X01933Y046967D01*
X01925Y046887D01*
X01917Y046967D01*
X018068Y04429D02*
X018148Y04437D01*
X018228Y04429D01*
X018148Y04421D01*
X018068Y04429D01*
X02039Y04433D02*
X02047Y04441D01*
X02055Y04433D01*
X02047Y04425D01*
X02039Y04433D01*
X021522Y040214D02*
X021562Y040294D01*
X021522Y040374D01*
X021602Y040334D01*
X021682Y040374D01*
X021642Y040294D01*
X021682Y040214D01*
X021602Y040254D01*
X021522Y040214D01*
D82*
X012549Y039365D02*
G03*
X012549Y039365I-00008J0D01*
G01*
Y040365D02*
G03*
X012549Y040365I-00008J0D01*
G01*
Y041365D02*
G03*
X012549Y041365I-00008J0D01*
G01*
Y042365D02*
G03*
X012549Y042365I-00008J0D01*
G01*
Y043365D02*
G03*
X012549Y043365I-00008J0D01*
G01*
X025029Y039361D02*
G03*
X025029Y039361I-00008J0D01*
G01*
Y040361D02*
G03*
X025029Y040361I-00008J0D01*
G01*
Y041361D02*
G03*
X025029Y041361I-00008J0D01*
G01*
Y042361D02*
G03*
X025029Y042361I-00008J0D01*
G01*
Y043361D02*
G03*
X025029Y043361I-00008J0D01*
G01*
M02*
